<svg xmlns="http://www.w3.org/2000/svg" xmlns:xlink="http://www.w3.org/1999/xlink" version="1.1" viewBox="0 0 466.14 439.3">
<defs>
<clipPath id="clip_0">
<path transform="matrix(1,0,0,-1,0,439.3008)" d="M155.1163 307.5994H311.0243V360.6736H155.1163Z"/>
</clipPath>
<clipPath id="clip_1">
<path transform="matrix(1,0,0,-1,0,439.3008)" d="M156.1163 308.5994H310.0243V359.6736H156.1163Z"/>
</clipPath>
<path id="font_2_2" d="M.033203126 .00048828127H.16503906L.35009767 .57421877H.3876953V.7050781H.28320313L.033203126 .00048828127M.15917969 .18261719H.54833987L.5151367 .28027345H.19238281L.15917969 .18261719M.54345706 .00048828127H.67529299L.42529298 .7050781H.35839845V.57421877L.54345706 .00048828127Z"/>
<path id="font_2_7" d="M.07714844 0H.19921875V.7392578H.07714844V0Z"/>
<path id="font_2_6" d="M.07519531 0H.19628906V.5332031H.07519531V0M.13598633 .6220703C.1559143 .6220703 .17289734 .62908938 .18693543 .64312747 .20098369 .6571757 .20800781 .67400106 .20800781 .6936035 .20800781 .7135315 .20098369 .7305145 .18693543 .7445526 .17289734 .7586009 .1559143 .765625 .13598633 .765625 .11605835 .765625 .09898885 .7586009 .08477783 .7445526 .07057699 .7305145 .06347656 .7135315 .06347656 .6936035 .06347656 .67400106 .07057699 .6571757 .08477783 .64312747 .09898885 .62908938 .11605835 .6220703 .13598633 .6220703Z"/>
<path id="font_2_4" d="M.21949768-.0087890629C.2429657-.0087890629 .26464335-.005518595 .28453065 .0010223389 .30441795 .007573446 .32210288 .017064413 .33758546 .02949524 .35307823 .041936239 .3657125 .05682373 .37548829 .074157718H.38378907V.000045776369H.50390627V.3645935C.50390627 .40205894 .4955953 .43414817 .4789734 .4608612 .46236167 .48757426 .43800865 .50809738 .4059143 .5224304 .37381999 .5367737 .33496604 .5439453 .28935243 .5439453 .24699402 .5439453 .20968628 .537679 .1774292 .5251465 .14517212 .51261398 .11934916 .4951172 .09996033 .47265626 .080571498 .4501953 .06876119 .42382813 .06452942 .3935547L.06404114 .38964845H.17919922L.1796875 .39160157C.18587239 .40918986 .1977539 .42286173 .21533203 .4326172 .23291016 .4423828 .25569663 .44726563 .2836914 .44726563 .316569 .44726563 .34147135 .44010417 .35839845 .42578126 .37532554 .41145835 .38378907 .39095054 .38378907 .3642578V.19630432C.38378907 .1751353 .37825523 .15616863 .3671875 .1394043 .35611979 .12263998 .34098307 .109375 .32177735 .099609378 .30257163 .08984375 .28076173 .08496094 .25634767 .08496094 .22932942 .08496094 .20719402 .091308597 .1899414 .104003909 .1726888 .11669922 .1640625 .13444011 .1640625 .15722656V.15820313C.1640625 .18001302 .17220052 .19710286 .18847656 .20947266 .20475261 .22184246 .2298177 .22900899 .26367188 .23097229L.44384767 .24267578V.3227539L.24633789 .3110199C.20299275 .30840556 .1662445 .3005778 .13609314 .28753663 .10595194 .27450563 .08305868 .25657655 .06741333 .23374939 .051767988 .21093242 .043945314 .18355306 .043945314 .15161133V.15063477C.043945314 .11835734 .051523847 .09023539 .06668091 .06626892 .081837978 .042312623 .102620448 .023813883 .12902832 .010772705 .1554362-.0022684735 .18559265-.0087890629 .21949768-.0087890629Z"/>
<path id="font_2_11" d="M.27416993-.0107421879C.3181661-.0107421879 .3571879-.0037384034 .39123536 .010269165 .42529298 .024286906 .45209757 .04408264 .47164918 .06965637 .49120078 .09524027 .50097659 .12497965 .50097659 .15887451V.1593628C.50097659 .18543498 .49543254 .20783489 .48434449 .2265625 .4732666 .2453003 .45639549 .2611033 .43373109 .27397157 .41107688 .28684999 .3821462 .29720054 .3469391 .3050232L.26086427 .32408143C.241628 .3286387 .22614034 .33384706 .21440125 .33970643 .20267232 .34557597 .19411724 .3524221 .18873596 .36024476 .18335469 .3680674 .18066406 .37719728 .18066406 .38763429V.38812257C.18066406 .4014791 .18466187 .41312663 .19265747 .4230652 .20065308 .43300376 .21166484 .44065858 .22569275 .44602967 .23973084 .45141093 .25572206 .45410157 .27366639 .45410157 .30238343 .45410157 .32538859 .44805909 .34268189 .43597413 .3599752 .42388917 .3707428 .40906779 .37498475 .39151H.4897461V.39297486C.48714195 .421875 .47704063 .44768778 .45944215 .4704132 .44184367 .49313865 .41739909 .5110728 .3861084 .5242157 .35482789 .5373688 .31751506 .5439453 .27416993 .5439453 .2324524 .5439453 .19546 .5371043 .16319275 .52342227 .13093567 .5097402 .105763759 .49067689 .087677 .4662323 .06959025 .44178773 .060546876 .4134318 .060546876 .38116456V.38067628C.060546876 .35461427 .06600443 .33180747 .076919559 .31225587 .08784485 .29270426 .104390468 .27624513 .1265564 .26287843 .1487325 .2495219 .1766103 .23910015 .21018982 .23161316L.2972412 .21253968C.32625328 .20569356 .3471171 .19697571 .35983277 .18638611 .37254844 .17579651 .37890626 .16268413 .37890626 .14704895V.14656067C.37890626 .13319397 .37450157 .12145996 .36569215 .11135864 .35688273 .101257327 .3448893 .09335327 .3297119 .087646488 .31454469 .08194987 .29668174 .07910156 .27612306 .07910156 .24611409 .07910156 .22205098 .0850118 .20393372 .096832279 .18582662 .108662929 .17367554 .12409973 .16748047 .1431427H.16699219 .04638672L.046875 .14167786C.050130208 .111821498 .061208089 .08544922 .08010864 .062561038 .09900919 .03967285 .12483215 .021733603 .15757752 .008743286 .19033306-.00424703 .22919719-.0107421879 .27416993-.0107421879Z"/>
<path id="font_2_1" d="M0 0Z"/>
<path id="font_2_5" d="M.30126954-.01171875C.33740235-.01171875 .36914063-.0070648195 .39648438 .002243042 .42382813 .011550903 .44702149 .023798624 .46606446 .038986207 .48510743 .054173788 .50024417 .07066345 .5114746 .0884552 .5227051 .10625712 .5304362 .123809818 .53466799 .14111328L.53564456 .1459961H.42041017L.4189453 .14256287C.4153646 .1341095 .40861003 .1254069 .39868165 .11645508 .38875328 .10750326 .37597657 .099853519 .36035157 .09350586 .34472657 .0871582 .32600913 .083984378 .30419923 .083984378 .27620445 .083984378 .25203453 .090174358 .23168946 .10255432 .2113444 .11494446 .19563802 .13287354 .18457031 .15634156 .17350261 .17980957 .16796875 .20784505 .16796875 .240448V.28933717C.16796875 .32356773 .17358399 .35249839 .18481446 .37612916 .19604492 .39975993 .2113444 .41768394 .23071289 .42990113 .2500814 .4421285 .2722982 .4482422 .29736329 .4482422 .32210288 .4482422 .34399415 .44236756 .3630371 .4306183 .38208009 .41887919 .39697267 .40126548 .40771485 .3777771 .41845704 .35428874 .42382813 .32476298 .42382813 .28919984V.24075318L.4814453 .3173828H.107910159V.23535156H.5410156V.2755127C.5410156 .32939659 .5310872 .37641908 .51123049 .4165802 .4913737 .4567515 .46313478 .48802186 .42651368 .51039126 .38989259 .5327606 .34635417 .5439453 .29589845 .5439453 .2454427 .5439453 .20149739 .5323588 .1640625 .5091858 .12662761 .4860128 .09773763 .45361839 .07739258 .41200257 .057047529 .37039695 .046875 .3215281 .046875 .26539613V.26489259C.046875 .20810955 .057128908 .15907288 .07763672 .11778259 .09814453 .07649231 .12736003 .04458618 .1652832 .022064209 .20320638-.00045776368 .24853516-.01171875 .30126954-.01171875Z"/>
<path id="font_2_8" d="M.07324219 0H.19433594V.32507325C.19433594 .34690348 .19881185 .36669923 .20776367 .38446046 .2167155 .40222169 .22908528 .41615296 .24487305 .42625428 .2606608 .4363556 .27848307 .44140626 .29833985 .44140626 .31819663 .44140626 .33536784 .4375763 .34985353 .42991639 .3643392 .42226664 .3754069 .41135154 .38305665 .39717103 .3907064 .3829905 .39453126 .3659617 .39453126 .3460846V0H.515625V.332901C.515625 .3537445 .5199382 .37231446 .52856448 .38861085 .53719076 .40490724 .5493164 .41778056 .5649414 .42723084 .5805664 .43668113 .5989583 .44140626 .6201172 .44140626 .64160159 .44140626 .6595052 .4375763 .6738281 .42991639 .68815109 .42226664 .69889327 .41070048 .7060547 .3952179 .7132161 .37973533 .7167969 .36042787 .7167969 .33729554V0H.8378906V.3670349C.8378906 .40384928 .8310547 .43545024 .8173828 .46183778 .80371096 .4882253 .7840983 .5085042 .7585449 .52267459 .7329915 .53685507 .7023112 .5439453 .6665039 .5439453 .64176437 .5439453 .6187337 .5399577 .5974121 .5319824 .5760905 .52400717 .5574544 .5126953 .5415039 .49804688 .5255534 .48339845 .5133464 .4663086 .5048828 .44677735H.49658204C.48909507 .46695964 .47835288 .4842936 .46435548 .4987793 .45035807 .51326498 .43367515 .52441409 .41430665 .53222659 .39493815 .54003909 .37320964 .5439453 .3491211 .5439453 .31396485 .5439453 .28361003 .5358073 .25805665 .51953127 .23250325 .5032552 .21402996 .480306 .20263672 .4506836H.19433594V.5332031H.07324219V0Z"/>
<clipPath id="clip_3">
<path transform="matrix(1,0,0,-1,0,439.3008)" d="M102.0937 219.3569H228.7735V271.9565H102.0937Z"/>
</clipPath>
<path id="font_4_3" d="M.08886719 0H.5253906V.07910156H.17675781V.32128907H.5073242V.39941407H.17675781V.62597659H.5253906V.7050781H.08886719V0Z"/>
<path id="font_4_14" d="M.078125 0H.16308594V.32598878C.16308594 .35075889 .16838582 .37332154 .1789856 .39367677 .18958538 .41404215 .20402019 .43017069 .22229004 .44206239 .24055989 .45395408 .2611135 .4598999 .2839508 .4598999 .30612693 .4598999 .32544963 .45566307 .34191896 .44718934 .35839845 .4387258 .37112428 .42675273 .38009645 .41127015 .3890686 .39579774 .3935547 .37763468 .3935547 .356781V0H.47851563V.33821107C.47851563 .36069236 .48355104 .38113914 .49362184 .3995514 .5036926 .41796366 .5177409 .43262229 .5357666 .44352723 .5537923 .45444236 .57498678 .4598999 .59935 .4598999 .6240387 .4598999 .64450076 .45558167 .6607361 .4469452 .6769816 .43831889 .68908187 .42545066 .69703677 .40834046 .70500186 .39124046 .7089844 .36982218 .7089844 .3440857V0H.7939453V.36361695C.7939453 .4001058 .78744509 .43113709 .7744446 .45671083 .7614441 .4822947 .74250796 .50176498 .7176361 .51512148 .6927745 .52847799 .6624654 .53515627 .626709 .53515627 .60266116 .53515627 .5801544 .5313263 .55918887 .5236664 .53822329 .51601669 .5197754 .50526937 .5038452 .49142457 .4879252 .47757975 .47525025 .46136985 .4658203 .4427948H.45848084C.45033265 .4610443 .43941245 .47709147 .4257202 .49093629 .41202799 .50478109 .39572654 .51560977 .3768158 .52342227 .35790507 .53124496 .33654786 .53515627 .31274415 .53515627 .2781779 .53515627 .24874878 .52733358 .22445679 .51168826 .20017497 .49605308 .1821645 .4742279 .17042542 .44621278H.16308594V.5253906H.078125V0Z"/>
<path id="font_4_6" d="M.22241211-.009765625C.24621582-.009765625 .26805625-.0064086916 .28793336 .00030517579 .30782066 .007019043 .32566834 .01691691 .34147645 .02999878 .3572947 .04309082 .3707428 .058965047 .38182069 .07762146H.38964845V-.0004272461H.47460938V.35943605C.47460938 .39589439 .4667867 .42713929 .45114137 .45317079 .435496 .47921244 .4128418 .49923197 .3831787 .51322939 .3535258 .52723696 .31718955 .5342407 .27416993 .5342407 .23669434 .5342407 .20328777 .5284627 .1739502 .51690676 .1446228 .50535079 .12075297 .4891561 .1023407 .46832276 .08392843 .4474894 .07260132 .4232432 .068359378 .3955841L.067871097 .39265443H.15237427L.15286255 .39411927C.15970867 .41459657 .17324321 .43052674 .19346619 .4419098 .21368917 .45329286 .23961894 .45898438 .2712555 .45898438 .31072489 .45898438 .34032188 .45044963 .3600464 .43338014 .3797811 .41631065 .38964845 .39152528 .38964845 .35902406V.19613648C.38964845 .17109172 .38320414 .14865113 .37031556 .1288147 .35743714 .10898844 .3397471 .09330241 .31724549 .08175659 .29474388 .07022095 .26897685 .064453128 .23994446 .064453128 .20929463 .064453128 .18393962 .07184855 .1638794 .086639408 .14381917 .10144043 .13378906 .12200419 .13378906 .14833069V.14930725C.13378906 .17530823 .14300029 .19546 .16142273 .20976258 .17984517 .22407532 .20894368 .23237102 .24871826 .23464966L.4321289 .24635315V.31414796L.23852539 .30241395C.19778443 .30013529 .16315206 .29264323 .1346283 .27993775 .10611471 .26724244 .084360759 .2497406 .069366458 .22743225 .05437215 .2051239 .046875 .17849732 .046875 .14755249V.14657593C.046875 .11465454 .054534913 .08697001 .06985474 .06352234 .08517456 .040074666 .10611979 .021998087 .13269043 .009292603 .15926107-.0034128826 .18916829-.009765625 .22241211-.009765625Z"/>
<path id="font_4_12" d="M.080078128 0H.16503906V.5253906H.080078128V0M.122802738 .6269531C.13914998 .6269531 .15304058 .6326752 .16447449 .64411929 .17591858 .65556338 .18164063 .6692912 .18164063 .68530276 .18164063 .70164999 .17591858 .7155406 .16447449 .7269745 .15304058 .7384186 .13914998 .7441406 .122802738 .7441406 .106781009 .7441406 .093048099 .7384186 .081604007 .7269745 .07017008 .7155406 .064453128 .70164999 .064453128 .68530276 .064453128 .6692912 .07017008 .65556338 .081604007 .64411929 .093048099 .6326752 .106781009 .6269531 .122802738 .6269531Z"/>
<path id="font_4_13" d="M.08300781 0H.16796875V.734375H.08300781V0Z"/>
<path id="font_4_1" d="M0 0Z"/>
<path id="font_4_18" d="M.078125 0H.16308594V.32603456C.16308594 .35178123 .16894531 .37426759 .18066406 .39349366 .19238281 .41271974 .20857747 .42762757 .22924805 .43821717 .24991863 .44880677 .27360026 .45410157 .30029298 .45410157 .30973307 .45410157 .31860353 .45369468 .3269043 .45288087 .33520509 .45206706 .34358726 .45084635 .35205079 .44921876V.5315552C.347819 .53223678 .34179688 .53300479 .33398438 .53385928 .32617188 .53472396 .31819663 .53515627 .3100586 .53515627 .27490235 .53515627 .24536133 .52750656 .22143555 .51220706 .19750977 .49690757 .1805013 .4754232 .17041016 .4477539H.16308594V.5253906H.078125V0Z"/>
<path id="font_4_16" d="M.2939453-.009765625C.34407554-.009765625 .38712565 .0012207031 .4230957 .02319336 .45906578 .04517619 .4868978 .076431278 .5065918 .11695862 .5262858 .15749614 .5361328 .20576477 .5361328 .26176454V.2627411C.5361328 .31905619 .5262858 .36747743 .5065918 .40800477 .4868978 .44854228 .45906578 .47971598 .4230957 .5015259 .38712565 .52333578 .34407554 .5342407 .2939453 .5342407 .24446614 .5342407 .20157878 .52333578 .1652832 .5015259 .12898763 .47971598 .100992839 .44854228 .08129883 .40800477 .061604818 .36747743 .051757814 .31905619 .051757814 .2627411V.26176454C.051757814 .20576477 .061604818 .15749614 .08129883 .11695862 .100992839 .076431278 .12898763 .04517619 .1652832 .02319336 .20157878 .0012207031 .24446614-.009765625 .2939453-.009765625M.2939453 .06549072C.26106773 .06549072 .23307292 .07330322 .20996094 .08892822 .18684896 .10455322 .16918946 .12692769 .15698242 .15605164 .14477539 .18518575 .13867188 .22041829 .13867188 .26174928V.26272584C.13867188 .30438233 .14477539 .33977763 .15698242 .36891175 .16918946 .39804588 .18684896 .42033897 .20996094 .43579103 .23307292 .45125328 .26106773 .45898438 .2939453 .45898438 .32714845 .45898438 .3552246 .45133464 .37817384 .43603517 .40112306 .42074586 .41870118 .39845277 .4309082 .36915589 .44311524 .339859 .44921876 .30438233 .44921876 .26272584V.26174928C.44921876 .22041829 .44311524 .18518575 .4309082 .15605164 .41870118 .12692769 .40112306 .10455322 .37817384 .08892822 .3552246 .07330322 .32714845 .06549072 .2939453 .06549072Z"/>
<path id="font_4_21" d="M.25390626-.009765625C.2796224-.009765625 .30265299-.00634257 .32299806 .00050354006 .3433431 .00734965 .36083985 .017364502 .37548829 .030548096 .39013673 .043741865 .40169273 .0594635 .41015626 .07771301H.41796876V0H.5029297V.5253906H.41796876V.21406555C.41796876 .19125875 .41495768 .17064922 .40893556 .15223694 .40291343 .13382466 .39388023 .11818441 .38183595 .10531616 .36979167 .092447917 .35489909 .08259074 .3371582 .07574463 .31941734 .06890869 .29915367 .06549072 .2763672 .06549072 .234375 .06549072 .20418294 .077056888 .18579102 .10018921 .1673991 .12332153 .15820313 .15834554 .15820313 .20526123V.5253906H.07324219V.18475342C.07324219 .1436971 .07999674 .10858663 .09350586 .079422 .10701498 .050267538 .12727864 .028111777 .15429688 .012954712 .18131511-.0021921795 .21451824-.009765625 .25390626-.009765625Z"/>
<path id="font_4_20" d="M.26464845-.00390625C.27311198-.00390625 .28141276-.0034179688 .28955079-.0024414063 .2976888-.0014750162 .30566407-.00034586589 .31347657 .0009460449V.07281494C.3059896 .07183838 .29956056 .0713501 .29418946 .0713501 .28881837 .0713501 .2823893 .0713501 .27490235 .0713501 .24788411 .0713501 .22851563 .07803345 .21679688 .09140015 .20507813 .104766849 .19921875 .12675984 .19921875 .15737915V.4560547H.31347657V.5263672H.19921875V.66259768H.111328128V.5263672H.028320313V.4560547H.111328128V.13687134C.111328128 .087015789 .12345377 .051086427 .14770508 .029083252 .17195638 .0070902507 .2109375-.00390625 .26464845-.00390625Z"/>
<path id="font_4_15" d="M.078125 0H.16308594V.31134034C.16308594 .34228517 .16870117 .36875407 .17993164 .39074708 .19116211 .41274009 .20694988 .4297638 .22729492 .44181825 .24763997 .45387269 .2718099 .4598999 .2998047 .4598999 .34179688 .4598999 .37280274 .4484965 .39282228 .4256897 .4128418 .4028829 .42285157 .36769615 .42285157 .3201294V0H.5078125V.3406372C.5078125 .4028727 .49194337 .45085145 .46020509 .48457337 .4284668 .5182953 .38297526 .53515627 .32373048 .53515627 .285319 .53515627 .25349937 .527415 .22827149 .5119324 .20304363 .49645997 .18375652 .47487895 .17041016 .44718934H.16308594V.5253906H.078125V0Z"/>
<path id="font_4_11" d="M.29515077-.18554688C.34272767-.18554688 .3841146-.17756145 .41931153-.16159058 .45450846-.14562989 .48163859-.12315369 .5007019-.09416199 .5197652-.06517029 .5292969-.031133017 .5292969 .007949829V.5259247H.44384767V.43896485H.43798829C.4272461 .4588318 .41381837 .4759318 .39770509 .4902649 .3815918 .50459799 .3631185 .5156708 .34228517 .5234833 .3214518 .53130599 .29866538 .5352173 .27392579 .5352173 .22835286 .5352173 .18896485 .5242259 .15576172 .50224307 .122558597 .4802704 .09692383 .45015464 .07885742 .41189576 .060791017 .37363688 .051757814 .32992555 .051757814 .28076173V.27978517C.051757814 .23028565 .060709638 .18648784 .07861328 .14839173 .09651693 .110295619 .12198893 .08042399 .1550293 .058776857 .18806966 .03712972 .22705078 .026306153 .27197267 .026306153 .2960612 .026306153 .31852214 .029805502 .33935548 .0368042 .3601888 .04381307 .37890626 .054153444 .3955078 .06782532 .41210938 .08150736 .425944 .097961429 .43701173 .1171875H.44482423V.01260376C.44482423-.026245118 .43155924-.056437177 .4050293-.07797241 .37849937-.09951782 .34163413-.11029053 .2944336-.11029053 .2569987-.11029053 .22688802-.10384115 .20410156-.09094238 .18131511-.07804362 .16748047-.061645509 .16259766-.041748048H.16210938 .07421875L.07373047-.042251588C.07828776-.07083639 .0899353-.09593201 .108673099-.11753845 .12741089-.13915508 .15258281-.15589397 .18418885-.16775513 .21580506-.17961629 .25279237-.18554688 .29515077-.18554688M.29052735 .1015625C.25830079 .1015625 .23087566 .10913086 .20825196 .12426758 .18562825 .1394043 .16837566 .16031902 .15649414 .18701172 .14461263 .2137146 .13867188 .24463909 .13867188 .27978517V.28076173C.13867188 .31559245 .14461263 .34651695 .15649414 .37353517 .16837566 .40056358 .18562825 .4217224 .20825196 .43701173 .23087566 .4523112 .25830079 .45996095 .29052735 .45996095 .32307945 .45996095 .35091148 .4523112 .37402345 .43701173 .3971354 .4217224 .41495768 .40056358 .42749024 .37353517 .4400228 .34651695 .44628907 .31559245 .44628907 .28076173V.27978517C.44628907 .24463909 .4400228 .2137146 .42749024 .18701172 .41495768 .16031902 .3971354 .1394043 .37402345 .12426758 .35091148 .10913086 .32307945 .1015625 .29052735 .1015625Z"/>
<path id="font_4_7" d="M.33935548-.009765625C.3839518-.009765625 .42277018 .0014648438 .45581056 .023925782 .48885093 .04638672 .5144043 .07796732 .5324707 .1186676 .5505371 .15936788 .5595703 .20706685 .5595703 .26176454V.2627411C.5595703 .31775413 .55045577 .36560569 .53222659 .40629579 .5139974 .44699607 .488444 .47849528 .4555664 .50079348 .4226888 .5230916 .3839518 .5342407 .33935548 .5342407 .31526695 .5342407 .29256187 .53041079 .27124024 .52275088 .24991863 .51510116 .2310384 .50443527 .21459961 .49075318 .19816081 .47707115 .1850586 .4607849 .17529297 .44189454H.16796875V.734375H.08300781V0H.16796875V.08355713H.17529297C.18603516 .06401571 .19954427 .04732259 .21582031 .033477785 .23209636 .019643149 .25065104 .008977254 .27148438 .0014801025 .29231773-.0060170495 .3149414-.009765625 .33935548-.009765625M.31982423 .06549072C.2882487 .06549072 .26090495 .07346598 .23779297 .089416507 .21468099 .10536703 .19694011 .12806702 .18457031 .15751648 .17220052 .18697612 .16601563 .22172039 .16601563 .26174928V.26272584C.16601563 .30340577 .17220052 .33831278 .18457031 .3674469 .19694011 .39658103 .21468099 .41911827 .23779297 .4350586 .26090495 .45100913 .2882487 .45898438 .31982423 .45898438 .35205079 .45898438 .37955729 .45109049 .40234376 .43530274 .42513023 .41952516 .44254557 .3970693 .45458985 .36793519 .46663413 .33880107 .47265626 .3037313 .47265626 .26272584V.26174928C.47265626 .22106934 .46663413 .18608094 .45458985 .15678406 .44254557 .12749736 .42513023 .10496012 .40234376 .08917236 .37955729 .073384609 .35205079 .06549072 .31982423 .06549072Z"/>
<path id="font_4_23" d="M.123046878-.18359375C.15429688-.18359375 .18058269-.17903646 .2019043-.16992188 .2232259-.1608073 .24186199-.14526367 .2578125-.123291019 .27376304-.10131836 .28873698-.07080078 .30273438-.03173828L.5083008 .5258789H.4189453L.2578125 .041381837 .29101563 .09326172H.25146485L.28466798 .041381837 .123046878 .5258789H.032226564L.2265625-.00021362305 .21679688-.031402589C.20735677-.061625165 .1949056-.08282471 .17944336-.09500122 .16398113-.107187908 .14420574-.11328125 .12011719-.11328125 .11425781-.11328125 .10823568-.11328125 .10205078-.11328125 .09586588-.11328125 .09016927-.11279297 .08496094-.111816409V-.18115235C.09082031-.18277996 .09724935-.18359375 .10424805-.18359375 .11124674-.18359375 .11751302-.18359375 .123046878-.18359375Z"/>
<path id="font_4_2" d="M.37330628-.016601563C.42347718-.016601563 .46851603-.0077056887 .50842288 .01008606 .54832968 .027877808 .5813141 .0526886 .6073761 .08451843 .6334483 .11634827 .6503906 .1538086 .6582031 .19689942H.56933596L.5683594 .19544983C.56119796 .16859436 .5485026 .14538574 .53027346 .12582398 .51204428 .10626221 .48958335 .09114075 .46289063 .080459598 .4361979 .06978861 .40641276 .064453128 .37353517 .064453128 .32828776 .064453128 .2890625 .076182048 .25585938 .09963989 .22265625 .12309774 .19710286 .1563263 .17919922 .19932556 .16129558 .242335 .15234375 .29316203 .15234375 .35180665V.3527832C.15234375 .41175334 .16129558 .46273805 .17919922 .5057373 .19710286 .54874679 .22265625 .5819804 .25585938 .60543826 .2890625 .62889608 .328125 .640625 .37304688 .640625 .40559898 .640625 .43513999 .63455709 .46166993 .62242129 .48819987 .61028549 .5107422 .59314987 .5292969 .5710144 .54785159 .54887899 .56103518 .5227254 .56884768 .4925537H.56933596 .65771487L.6582031 .49353028C.6513672 .5383911 .63475039 .5779622 .60835269 .61224368 .58196517 .6465352 .54849246 .6733449 .5079346 .6926727 .4673767 .7120107 .42233787 .7216797 .372818 .7216797 .30896507 .7216797 .2537435 .70669558 .20715332 .6767273 .16056316 .6467692 .12464396 .6042633 .09939575 .5492096 .074147548 .49415589 .061523439 .42868043 .061523439 .3527832V.35180665C.061523439 .27623496 .074147548 .21092224 .09939575 .15586853 .12464396 .10082499 .16064453 .05831909 .20739746 .02835083 .2541504-.0016174316 .30945335-.016601563 .37330628-.016601563Z"/>
<path id="font_4_9" d="M.2722473-.009765625C.2966919-.009765625 .31934104-.0060170495 .3401947 .0014801025 .36105857 .008977254 .37963868 .019643149 .39593507 .033477785 .41223146 .04732259 .42575584 .06401571 .43650819 .08355713H.44433595V0H.5292969V.734375H.44433595V.44189454H.43652345C.427063 .4607849 .41402183 .47707115 .3973999 .49075318 .38077799 .50443527 .36179099 .51510116 .34043885 .52275088 .3190969 .53041079 .29636637 .5342407 .2722473 .5342407 .22792562 .5342407 .18921916 .5230916 .15612793 .50079348 .123046878 .47849528 .09738159 .44699607 .07913208 .40629579 .06088257 .36560569 .051757814 .31775413 .051757814 .2627411V.26176454C.051757814 .20706685 .06088257 .15936788 .07913208 .1186676 .09738159 .07796732 .12312826 .04638672 .15637207 .023925782 .18961589 .0014648438 .22824097-.009765625 .2722473-.009765625M.29174806 .06549072C.25979615 .06549072 .23240662 .073384609 .20957947 .08917236 .1867625 .10496012 .16924031 .12749736 .15701294 .15678406 .14478557 .18608094 .13867188 .22106934 .13867188 .26174928V.26272584C.13867188 .3037313 .14478557 .33880107 .15701294 .36793519 .16924031 .3970693 .1867625 .41952516 .20957947 .43530274 .23240662 .45109049 .25979615 .45898438 .29174806 .45898438 .32369996 .45898438 .35116578 .45100913 .3741455 .4350586 .3971354 .41911827 .41482545 .39658103 .42721559 .3674469 .4396057 .33831278 .44580079 .30340577 .44580079 .26272584V.26174928C.44580079 .22172039 .4396057 .18697612 .42721559 .15751648 .41482545 .12806702 .3971354 .10536703 .3741455 .089416507 .35116578 .07346598 .32369996 .06549072 .29174806 .06549072Z"/>
<path id="font_4_4" d="M.08886719 0H.17675781V.30566407H.48876954V.38378907H.17675781V.62597659H.51660159V.7050781H.08886719V0Z"/>
<path id="font_4_10" d="M.29270936-.009765625C.32366435-.009765625 .35152183-.0057779948 .37628175 .0021972657 .40105186 .010172526 .42263795 .020909628 .44104005 .03440857 .4594523 .047907514 .47444154 .06303406 .4860077 .07978821 .49757386 .09654236 .5056407 .11402893 .51020815 .13224793L.5111847 .13618469H.42578126L.42382813 .1317749C.41927085 .12097168 .41129557 .11049398 .39990235 .1003418 .38850913 .09019979 .37402345 .08185323 .3564453 .075302127 .3388672 .06876119 .31819663 .06549072 .2944336 .06549072 .26253257 .06549072 .23494466 .07258606 .21166992 .08677673 .18839519 .10097758 .17041016 .121287029 .15771485 .14770508 .14501953 .1741333 .13867188 .20611573 .13867188 .24365235V.27742005C.13867188 .31688944 .1451823 .3501638 .15820313 .37724305 .17122396 .4043325 .18880208 .4247284 .2109375 .4384308 .23307292 .45213319 .25830079 .45898438 .2866211 .45898438 .3149414 .45898438 .3400065 .45247398 .3618164 .43945313 .3836263 .42644248 .40071617 .4065908 .41308595 .37989808 .42545573 .35320536 .43164063 .3191986 .43164063 .2778778V.2441864L.47387696 .30664063H.095703128V.23828125H.5175781V.2714386C.5175781 .32377626 .508372 .36968995 .48995973 .4091797 .47154746 .44866944 .44514976 .47938539 .4107666 .5013275 .37639366 .52326968 .33525596 .5342407 .28735353 .5342407 .23977661 .5342407 .1983083 .5227661 .16294861 .4998169 .12759908 .47686769 .1002299 .44488017 .080841068 .40385438 .06145223 .36283876 .051757814 .31514994 .051757814 .26078797V.26029969C.051757814 .20527649 .06145223 .15757752 .080841068 .11720276 .1002299 .076828 .12784322 .045572919 .16368103 .0234375 .19951885 .0013020834 .24252828-.009765625 .29270936-.009765625Z"/>
<clipPath id="clip_5">
<path transform="matrix(1,0,0,-1,0,439.3008)" d="M240.6703 308.1163V145.1971H225.4703V308.1163Z"/>
</clipPath>
<clipPath id="clip_6">
<path transform="matrix(1,0,0,-1,0,439.3008)" d="M0 0H466.1406V439.3008H0Z"/>
</clipPath>
<clipPath id="clip_7">
<path transform="matrix(1,0,0,-1,0,439.3008)" d="M145.0156 78.08118H321.125V145.71399H145.0156Z"/>
</clipPath>
<clipPath id="clip_8">
<path transform="matrix(1,0,0,-1,0,439.3008)" d="M146.0156 79.08118H320.125V144.71399H146.0156Z"/>
</clipPath>
<path id="font_2_3" d="M.0859375 0H.349823C.42019654 0 .48006187 .013926188 .52941897 .041778566 .57877609 .06963094 .6164856 .11002096 .6425476 .16294861 .6686096 .21588643 .6816406 .27997843 .6816406 .3552246V.35620118C.6816406 .42981974 .66852828 .49269105 .64230349 .54481509 .6160787 .5969391 .5782878 .63667806 .52893069 .664032 .47957359 .69139608 .419871 .7050781 .349823 .7050781H.0859375V0M.21191406 .10644531V.5986328H.3334961C.37972007 .5986328 .41927085 .5890401 .45214845 .56985476 .48502604 .5506694 .51017257 .52286276 .5275879 .48643495 .54500326 .4500173 .55371096 .405955 .55371096 .35424806V.35327149C.55371096 .30058799 .54508468 .25587464 .52783206 .21913147 .5105794 .1823883 .4855957 .15441895 .45288087 .13522339 .42016603 .116038 .3803711 .10644531 .3334961 .10644531H.21191406Z"/>
<path id="font_2_12" d="M.28245545-.0029296876C.29422508-.0029296876 .30558268-.0023600262 .31652833-.0012207031 .32748414-.00008138021 .33720909 .0011393229 .34570313 .0024414063V.096191409C.33851115 .09554037 .3320516 .0949707 .32632447 .09448242 .3206075 .09399414 .31349693 .09375 .30499269 .09375 .27982585 .09375 .26160179 .09977722 .25032044 .111831668 .23903911 .12389628 .23339844 .14313253 .23339844 .1695404V.43945313H.34570313V.5332031H.23339844V.6645508H.109375V.5332031H.02734375V.43945313H.109375V.14175415C.109375 .090270999 .12294006 .05328369 .15007019 .030792237 .17720032 .008310954 .22132874-.0029296876 .28245545-.0029296876Z"/>
<path id="font_2_9" d="M.07324219 0H.19433594V.31088258C.19433594 .33761598 .19913738 .3606771 .20874024 .38006593 .2183431 .39945475 .23185222 .41452537 .24926758 .4252777 .26668296 .43603007 .28759767 .44140626 .31201173 .44140626 .34847007 .44140626 .3754069 .4310557 .39282228 .4103546 .41023765 .3896637 .4189453 .35862733 .4189453 .31724549V0H.5410156V.34503175C.5410156 .40856935 .5252838 .457606 .4938202 .49214173 .46236674 .5266774 .41681419 .5439453 .35716249 .5439453 .31836448 .5439453 .28608705 .5357259 .2603302 .5192871 .23458354 .5028483 .21535237 .480306 .20263672 .45166017H.19433594V.5332031H.07324219V0Z"/>
<path id="font_2_10" d="M.30297853-.0107421879C.35631309-.0107421879 .40208436 .00041707359 .44029237 .022735596 .47851054 .04505412 .50794479 .0769043 .528595 .11828613 .5492452 .15966797 .5595703 .20902507 .5595703 .26635743V.26733399C.5595703 .3246765 .5491638 .3740336 .52835085 .41540528 .50753787 .4567871 .47802226 .4885559 .43980409 .51071169 .40159608 .53286746 .35598756 .5439453 .30297853 .5439453 .250295 .5439453 .20484416 .5327861 .16662598 .5104675 .12841797 .48814903 .09890747 .45629884 .07809448 .414917 .057281496 .37354533 .046875 .32435099 .046875 .26733399V.26635743C.046875 .20902507 .057200117 .15966797 .07785034 .11828613 .09850057 .0769043 .12792969 .04505412 .1661377 .022735596 .20435588 .00041707359 .24996948-.0107421879 .30297853-.0107421879M.30322267 .08798218C.27522788 .08798218 .25138346 .09498596 .23168946 .10899353 .21199544 .12301127 .19694011 .14329529 .18652344 .16984558 .17610677 .19639588 .17089844 .22856649 .17089844 .26635743V.26733399C.17089844 .3047994 .17618816 .33680726 .18676758 .36335755 .197347 .389918 .21240235 .41020204 .2319336 .4242096 .25146485 .43821717 .27522788 .44522096 .30322267 .44522096 .33121745 .44522096 .35506187 .43821717 .37475587 .4242096 .39444987 .41020204 .40950523 .389918 .41992188 .36335755 .43033854 .33680726 .43554688 .3047994 .43554688 .26733399V.26635743C.43554688 .22889202 .43033854 .19688416 .41992188 .17033386 .40950523 .14378357 .39453126 .123418178 .375 .10923767 .35546876 .095067348 .33154298 .08798218 .30322267 .08798218Z"/>
<clipPath id="clip_9">
<path transform="matrix(1,0,0,-1,0,439.3008)" d="M36 36H430.1406V403.3008H36Z"/>
</clipPath>
<clipPath id="clip_10">
<path transform="matrix(1,0,0,-1,0,439.3008)" d="M147.924 359.8569H318.2166V391.4565H147.924Z"/>
</clipPath>
<path id="font_4_19" d="M.25878907-.009765625C.2985026-.009765625 .33422853-.0030873616 .3659668 .010269165 .39770509 .023635865 .42277018 .042210897 .4411621 .06599426 .45955406 .0897878 .46875 .11732483 .46875 .14860535V.14958191C.46875 .17466736 .4634603 .19633484 .45288087 .21458435 .44230143 .23283386 .42618815 .24831136 .40454103 .26101686 .3828939 .2737325 .35546876 .28399659 .32226563 .29180909L.24121094 .31137086C.22070313 .3165792 .20402019 .32260133 .19116211 .32943727 .17830403 .33628337 .16878255 .3442688 .16259766 .35339356 .15641277 .3625183 .15332031 .37294517 .15332031 .38467408V.38565064C.15332031 .401296 .15804036 .41490174 .16748047 .4264679 .17692058 .43804423 .18969727 .44716899 .20581055 .45384217 .22192383 .4605255 .24039714 .4638672 .26123048 .4638672 .2931315 .4638672 .3190104 .45735169 .3388672 .44432069 .35872398 .43129985 .3712565 .4142151 .37646485 .3930664H.45996095C.4560547 .4218038 .44547526 .4468689 .42822267 .46826173 .41097007 .4896647 .3881022 .50616458 .35961915 .51776126 .33113609 .5293579 .2985026 .53515627 .26171876 .53515627 .22460938 .53515627 .19132488 .5284729 .16186524 .5151062 .1324056 .5017497 .10913086 .48358155 .092041019 .4606018 .07495117 .43763224 .06640625 .41148887 .06640625 .38217164V.38168336C.06640625 .35658775 .07145182 .33483378 .08154297 .3164215 .09163412 .29800926 .10725912 .28253175 .12841797 .269989 .14957683 .2574463 .17659505 .2472585 .20947266 .23942566L.29101563 .21987915C.3232422 .21205648 .34643556 .20187378 .3605957 .18933106 .37475587 .17678833 .38183595 .16156006 .38183595 .14364624V.14266968C.38183595 .12668865 .37670899 .1126709 .36645509 .100616458 .35620118 .08856201 .34204103 .07903036 .3239746 .072021488 .3059082 .06502279 .2849935 .061523439 .26123048 .061523439 .22770183 .061523439 .20060222 .06819662 .17993164 .08154297 .15926107 .09488932 .14534505 .11263021 .1381836 .13476563H.05126953C.05452474 .10569254 .06518555 .08029684 .08325195 .05857849 .10131836 .03687032 .12532552 .020050049 .15527344 .008117676 .18522136-.0038045247 .21972656-.009765625 .25878907-.009765625Z"/>
<path id="font_4_24" d="M.4803009-.11425781C.5112457-.11425781 .54096987-.11212667 .56947329-.10786438 .5979767-.10360209 .6231435-.09769694 .64497378-.090148929V-.028411866C.6348826-.03294881 .62121078-.037002565 .60395815-.04057312 .5867055-.044143678 .5675812-.046900434 .5465851-.048843385 .5255992-.050786336 .50387576-.051757814 .4814148-.051757814 .41208903-.051757814 .35171-.03768921 .3002777-.009552002 .24884542 .018585206 .20888774 .05826823 .18040467 .10949707 .15193177 .16073609 .13769531 .22099813 .13769531 .2902832V.29125978C.13769531 .34200035 .1457367 .3885142 .16181946 .4308014 .1779124 .47309876 .20066834 .5098572 .23008728 .54107668 .25950624 .57230636 .29412333 .5963796 .3339386 .6132965 .37375389 .63021346 .41755168 .6386719 .46533204 .6386719 .53034469 .6386719 .58754989 .6262207 .63694766 .60131838 .6863556 .576416 .72487387 .5416667 .75250247 .4970703 .78013107 .45247398 .7939453 .40071107 .7939453 .34178163V.34129334C.7939453 .30158998 .7898204 .2669271 .78157046 .23730469 .7733205 .2076823 .761673 .18481446 .7466278 .16870117 .73159286 .15258789 .7140452 .14453125 .693985 .14453125 .67651876 .14453125 .66293337 .14950054 .65322878 .15943909 .64352419 .16937764 .6386719 .18331401 .6386719 .20124817V.48583985H.5644531V.42626954H.5566406C.5472005 .44742839 .53222659 .46419273 .51171877 .4765625 .49121095 .48893229 .46809898 .4951172 .4423828 .4951172 .4091797 .4951172 .37980143 .4865519 .35424806 .4694214 .32869468 .45229087 .30867515 .4285482 .29418946 .39819337 .27970378 .36784873 .27246095 .33294169 .27246095 .2934723V.29249574C.27246095 .25105287 .27954103 .21482849 .29370118 .18382263 .30786134 .15282695 .3277181 .12860108 .35327149 .11114502 .37882487 .093688968 .40852867 .08496094 .4423828 .08496094 .47102867 .08496094 .49601237 .09176127 .517334 .10536194 .5386556 .11896261 .5545247 .13837178 .5649414 .16358948H.5727539L.5732422 .16065979C.57747396 .1368866 .5894368 .11767578 .60913088 .103027347 .6288249 .088378909 .65266928 .08105469 .68066409 .08105469 .71777346 .08105469 .75 .0916392 .77734377 .11280823 .8046875 .13398743 .8258464 .16396077 .8408203 .20272827 .85579428 .24150594 .86328127 .28743998 .86328127 .3405304V.34150697C.86328127 .41220603 .8466797 .47459413 .81347659 .52867129 .78027346 .5827484 .73429366 .62501528 .6755371 .6554718 .6167806 .68593856 .5488281 .7011719 .4716797 .7011719 .41178385 .7011719 .35717774 .69139608 .30786134 .6718445 .25854493 .65230306 .21598308 .62445577 .18017578 .5883026 .14436849 .5521495 .1167806 .5091553 .09741211 .45932008 .07804362 .40949504 .068359378 .3544515 .068359378 .29418946V.2932129C.068359378 .2306722 .07796732 .17432149 .09718323 .12416077 .1164093 .074010219 .14401753 .031183878 .18000794-.0043182375 .2160085-.039820356 .25933839-.0670166 .30999757-.08590698 .36065675-.10480753 .41742454-.11425781 .4803009-.11425781M.45361329 .15429688C.43245445 .15429688 .4141439 .15975952 .39868165 .17068482 .3832194 .1816101 .3713379 .19734192 .3630371 .21788025 .35473634 .23842876 .35058595 .26272074 .35058595 .29075624V.29174806C.35058595 .32011924 .35473634 .34449259 .3630371 .36486817 .3713379 .3852539 .3832194 .40082804 .39868165 .41159059 .4141439 .42235313 .43277995 .42773438 .45458985 .42773438 .48779298 .42773438 .5142415 .41550193 .53393557 .391037 .5536296 .36658225 .56347659 .33348594 .56347659 .29174806V.29075624C.56347659 .24935405 .55354818 .21625774 .5336914 .19146729 .51383468 .16668701 .48714195 .15429688 .45361329 .15429688Z"/>
<path id="font_4_22" d="M.036132814 0H.13134766L.25634767 .19824219H.26367188L.3881836 0H.4873047L.30664063 .26611329 .48535157 .5253906H.39013673L.26660157 .33007813H.25927735L.13427735 .5253906H.034179689L.21582031 .2626953 .036132814 0Z"/>
<path id="font_4_17" d="M.078125-.17578125H.16308594V.083496097H.17041016C.18017578 .06460571 .193278 .0483195 .2097168 .03463745 .2261556 .020955405 .24503581 .010284424 .26635743 .0026245118 .28767906-.005025228 .31038413-.008850098 .33447267-.008850098 .379069-.008850098 .41788737 .002380371 .45092774 .024841309 .4839681 .04731242 .5095215 .078816737 .5275879 .11935425 .5456543 .15989177 .5546875 .20767212 .5546875 .2626953V.26367188C.5546875 .31837974 .5456543 .3660787 .5275879 .4067688 .5095215 .4474691 .4839681 .47904969 .45092774 .5015106 .41788737 .52398177 .379069 .5352173 .33447267 .5352173 .3100586 .5352173 .2874349 .5314738 .26660157 .5239868 .24576824 .5164998 .22721355 .50582888 .2109375 .49197389 .19466146 .47812907 .18115235 .46143595 .17041016 .44189454H.16308594V.5263672H.078125V-.17578125M.3149414 .06640625C.28336589 .06640625 .25602214 .07438151 .23291016 .09033203 .20979817 .106282558 .1920573 .12890625 .1796875 .15820313 .1673177 .1875 .16113281 .22233582 .16113281 .26271058V.26368714C.16113281 .30436708 .1673177 .33927409 .1796875 .3684082 .1920573 .3975525 .20979817 .42009483 .23291016 .43603517 .25602214 .4519857 .28336589 .45996095 .3149414 .45996095 .34716798 .45996095 .37467448 .45206706 .39746095 .4362793 .4202474 .4205017 .43766276 .39804078 .44970704 .36889649 .4617513 .33976237 .46777345 .3046926 .46777345 .26368714V.26271058C.46777345 .2220103 .4617513 .18701172 .44970704 .15771485 .43766276 .12841797 .4202474 .10587565 .39746095 .09008789 .37467448 .07430013 .34716798 .06640625 .3149414 .06640625Z"/>
<path id="font_4_26" d="M.1459961-.0048828127C.16357422-.0048828127 .1784668 .0013020834 .19067383 .013671875 .20288086 .026041666 .20898438 .04084778 .20898438 .05809021 .20898438 .075678508 .20288086 .09057617 .19067383 .1027832 .1784668 .114990238 .16357422 .12109375 .1459961 .12109375 .12874349 .12109375 .11393229 .114990238 .1015625 .1027832 .08919271 .09057617 .08300781 .075678508 .08300781 .05809021 .08300781 .04084778 .08919271 .026041666 .1015625 .013671875 .11393229 .0013020834 .12874349-.0048828127 .1459961-.0048828127Z"/>
<path id="font_4_8" d="M.29296876-.009765625C.33528648-.009765625 .37141929-.002766927 .4013672 .011230469 .4313151 .025238038 .45540367 .044611616 .4736328 .0693512 .49186198 .09410095 .5045573 .12226868 .51171877 .15385437L.5126953 .15922547 .42871095 .15873719 .42773438 .15579224C.41796876 .1265157 .40185548 .104146327 .37939454 .08868408 .3569336 .07322184 .32796226 .06549072 .29248048 .06549072 .261556 .06549072 .23453777 .073628749 .21142578 .089904788 .1883138 .106180828 .17041016 .12912496 .15771485 .15873719 .14501953 .18834941 .13867188 .22333782 .13867188 .2637024V.26467896C.13867188 .30438233 .14493816 .3387197 .1574707 .36769105 .17000325 .39666239 .18782552 .41911827 .2109375 .4350586 .23404949 .45100913 .26123048 .45898438 .29248048 .45898438 .33024089 .45898438 .3606771 .44977317 .38378907 .4313507 .40690104 .41293846 .42171226 .39057923 .42822267 .36427308H.42871095 .5126953L.51220706 .3671875C.5073242 .3983663 .49560548 .42653404 .47705079 .45169068 .4584961 .47684733 .4337565 .4968923 .40283204 .51182559 .37190757 .526769 .3351237 .5342407 .29248048 .5342407 .24365235 .5342407 .20117188 .52317306 .16503906 .5010376 .12890625 .4789022 .100992839 .4476471 .08129883 .40727235 .061604818 .36690776 .051757814 .31937663 .051757814 .26467896V.2637024C.051757814 .20803833 .0616862 .15977478 .08154297 .11891174 .10139974 .078048709 .12931316 .04638672 .1652832 .023925782 .20125325 .0014648438 .24381511-.009765625 .29296876-.009765625Z"/>
<clipPath id="clip_11">
<path transform="matrix(1,0,0,-1,0,439.3008)" d="M149.9916 44.85687H344.9851V76.45648H149.9916Z"/>
</clipPath>
<path id="font_4_5" d="M.08886719 0H.17675781V.27929688H.34498597C.34596253 .27929688 .3468577 .27929688 .3476715 .27929688 .34848533 .27929688 .3493856 .27929688 .3503723 .27929688L.50146487 0H.6044922L.44132997 .29296876C.48529563 .30696617 .51989749 .3318685 .5451355 .36767579 .5703837 .40348307 .5830078 .44580079 .5830078 .4946289V.49560548C.5830078 .53792318 .5737203 .57470706 .55514529 .60595706 .53657028 .63720706 .51042178 .66153976 .47669984 .6789551 .4429779 .6963704 .4034678 .7050781 .35816957 .7050781H.08886719V0M.17675781 .35742188V.6269531H.3464508C.3917694 .6269531 .42738853 .6150716 .4533081 .5913086 .4792277 .5675456 .4921875 .53466799 .4921875 .49267579V.49169923C.4921875 .44874064 .47987876 .4156189 .45526124 .39233399 .4306539 .36905924 .39569093 .35742188 .3503723 .35742188H.17675781Z"/>
<path id="font_4_25" d="M.07128906 .24414063H.3984375V.3232422H.07128906V.24414063Z"/>
</defs>
<g clip-path="url(#clip_0)">
<path transform="matrix(1,0,0,-1,0,439.3008)" d="M180.2546 359.6736H285.8861C292.9694 359.6736 297.2194 359.6736 300.0528 358.4907 304.1373 357.0041 307.3548 353.7866 308.8414 349.7021 310.0243 346.8687 310.0243 342.6187 310.0243 335.5354V332.7376C310.0243 325.6543 310.0243 321.4043 308.8414 318.5709 307.3548 314.4864 304.1373 311.2689 300.0528 309.7823 297.2194 308.5994 292.9694 308.5994 285.8861 308.5994H180.2546C173.1712 308.5994 168.9212 308.5994 166.0879 309.7823 162.0034 311.2689 158.7859 314.4864 157.2992 318.5709 156.1163 321.4043 156.1163 325.6543 156.1163 332.7376V335.5354C156.1163 342.6187 156.1163 346.8687 157.2992 349.7021 158.7859 353.7866 162.0034 357.0041 166.0879 358.4907 168.9212 359.6736 173.1712 359.6736 180.2546 359.6736ZM180.2546 359.6736" fill="#5ac4f6"/>
</g>
<g clip-path="url(#clip_1)">
<use data-text="A" xlink:href="#font_2_2" transform="matrix(18,0,0,-18,188.1721,111.6741)"/>
<use data-text="l" xlink:href="#font_2_7" transform="matrix(18,0,0,-18,200.4967,111.6741)"/>
<use data-text="i" xlink:href="#font_2_6" transform="matrix(18,0,0,-18,205.0453,111.6741)"/>
<use data-text="a" xlink:href="#font_2_4" transform="matrix(18,0,0,-18,209.46791,111.6741)"/>
<use data-text="s" xlink:href="#font_2_11" transform="matrix(18,0,0,-18,219.3625,111.6741)"/>
<use data-text=" " xlink:href="#font_2_1" transform="matrix(18,0,0,-18,228.78911,111.6741)"/>
<use data-text="e" xlink:href="#font_2_5" transform="matrix(18,0,0,-18,233.08571,111.6741)"/>
<use data-text="m" xlink:href="#font_2_8" transform="matrix(18,0,0,-18,243.2323,111.6741)"/>
<use data-text="a" xlink:href="#font_2_4" transform="matrix(18,0,0,-18,259.1029,111.6741)"/>
<use data-text="i" xlink:href="#font_2_6" transform="matrix(18,0,0,-18,268.9975,111.6741)"/>
<use data-text="l" xlink:href="#font_2_7" transform="matrix(18,0,0,-18,273.4201,111.6741)"/>
</g>
<g clip-path="url(#clip_3)">
<use data-text="E" xlink:href="#font_4_3" transform="matrix(18,0,0,-18,113.312,189.84722)"/>
<use data-text="m" xlink:href="#font_4_14" transform="matrix(18,0,0,-18,123.559398,189.84722)"/>
<use data-text="a" xlink:href="#font_4_6" transform="matrix(18,0,0,-18,138.7208,189.84722)"/>
<use data-text="i" xlink:href="#font_4_12" transform="matrix(18,0,0,-18,148.17621,189.84722)"/>
<use data-text="l" xlink:href="#font_4_13" transform="matrix(18,0,0,-18,152.1596,189.84722)"/>
<use data-text=" " xlink:href="#font_4_1" transform="matrix(18,0,0,-18,156.233,189.84722)"/>
<use data-text="r" xlink:href="#font_4_18" transform="matrix(18,0,0,-18,160.7924,189.84722)"/>
<use data-text="o" xlink:href="#font_4_16" transform="matrix(18,0,0,-18,166.8818,189.84722)"/>
<use data-text="u" xlink:href="#font_4_21" transform="matrix(18,0,0,-18,177.02121,189.84722)"/>
<use data-text="t" xlink:href="#font_4_20" transform="matrix(18,0,0,-18,187.0346,189.84722)"/>
<use data-text="i" xlink:href="#font_4_12" transform="matrix(18,0,0,-18,193.08802,189.84722)"/>
<use data-text="n" xlink:href="#font_4_15" transform="matrix(18,0,0,-18,197.07141,189.84722)"/>
<use data-text="g" xlink:href="#font_4_11" transform="matrix(18,0,0,-18,207.08481,189.84722)"/>
<use data-text=" " xlink:href="#font_4_1" transform="matrix(18,0,0,-18,217.56621,189.84722)"/>
<use data-text=" " xlink:href="#font_4_1" transform="matrix(18,0,0,-18,222.12561,189.84722)"/>
<use data-text="b" xlink:href="#font_4_7" transform="matrix(18,0,0,-18,110.1739,210.84722)"/>
<use data-text="y" xlink:href="#font_4_23" transform="matrix(18,0,0,-18,120.3907,210.84722)"/>
<use data-text=" " xlink:href="#font_4_1" transform="matrix(18,0,0,-18,129.6715,210.84722)"/>
<use data-text="C" xlink:href="#font_4_2" transform="matrix(18,0,0,-18,134.2363,210.84722)"/>
<use data-text="l" xlink:href="#font_4_13" transform="matrix(18,0,0,-18,146.6671,210.84722)"/>
<use data-text="o" xlink:href="#font_4_16" transform="matrix(18,0,0,-18,150.7459,210.84722)"/>
<use data-text="u" xlink:href="#font_4_21" transform="matrix(18,0,0,-18,160.8907,210.84722)"/>
<use data-text="d" xlink:href="#font_4_9" transform="matrix(18,0,0,-18,170.9095,210.84722)"/>
<use data-text="F" xlink:href="#font_4_4" transform="matrix(18,0,0,-18,181.4863,210.84722)"/>
<use data-text="l" xlink:href="#font_4_13" transform="matrix(18,0,0,-18,191.3071,210.84722)"/>
<use data-text="a" xlink:href="#font_4_6" transform="matrix(18,0,0,-18,195.3859,210.84722)"/>
<use data-text="r" xlink:href="#font_4_18" transform="matrix(18,0,0,-18,204.84671,210.84722)"/>
<use data-text="e" xlink:href="#font_4_10" transform="matrix(18,0,0,-18,210.9235,210.84722)"/>
<use data-text=" " xlink:href="#font_4_1" transform="matrix(18,0,0,-18,220.7263,210.84722)"/>
</g>
<g clip-path="url(#clip_5)">
<g clip-path="url(#clip_6)">
<path transform="matrix(0,1,-1,-0,233.0703,132.18451)" stroke-width="3" stroke-linecap="butt" stroke-miterlimit="4" stroke-linejoin="miter" fill="none" stroke="#000000" d="M0 0H147.7192 149.2192"/>
<path transform="matrix(1,0,0,-1,0,439.3008)" d="M226.4703 159.3971 233.0703 146.1971 239.6703 159.3971ZM226.4703 159.3971"/>
</g>
</g>
<g clip-path="url(#clip_7)">
<path transform="matrix(1,0,0,-1,0,439.3008)" d="M173.1059 144.714H293.0347C300.9844 144.714 305.7541 144.714 308.934 143.3864 313.518 141.718 317.129 138.107 318.7975 133.523 320.125 130.3431 320.125 125.5733 320.125 117.6237V106.1714C320.125 98.22182 320.125 93.45205 318.7975 90.2722 317.129 85.68818 313.518 82.07717 308.934 80.40872 305.7541 79.08118 300.9844 79.08118 293.0347 79.08118H173.1059C165.1563 79.08118 160.3865 79.08118 157.2067 80.40872 152.6226 82.07717 149.0116 85.68818 147.3432 90.2722 146.0156 93.45205 146.0156 98.22182 146.0156 106.1714V117.6237C146.0156 125.5733 146.0156 130.3431 147.3432 133.523 149.0116 138.107 152.6226 141.718 157.2067 143.3864 160.3865 144.714 165.1563 144.714 173.1059 144.714ZM173.1059 144.714" fill="#5ac4f6"/>
</g>
<g clip-path="url(#clip_8)">
<use data-text="D" xlink:href="#font_2_3" transform="matrix(18,0,0,-18,160.5644,334.72743)"/>
<use data-text="e" xlink:href="#font_2_5" transform="matrix(18,0,0,-18,173.4002,334.72743)"/>
<use data-text="s" xlink:href="#font_2_11" transform="matrix(18,0,0,-18,183.53601,334.72743)"/>
<use data-text="t" xlink:href="#font_2_12" transform="matrix(18,0,0,-18,192.89781,334.72743)"/>
<use data-text="i" xlink:href="#font_2_6" transform="matrix(18,0,0,-18,199.50562,334.72743)"/>
<use data-text="n" xlink:href="#font_2_9" transform="matrix(18,0,0,-18,203.93541,334.72743)"/>
<use data-text="a" xlink:href="#font_2_4" transform="matrix(18,0,0,-18,214.4492,334.72743)"/>
<use data-text="t" xlink:href="#font_2_12" transform="matrix(18,0,0,-18,224.33301,334.72743)"/>
<use data-text="i" xlink:href="#font_2_6" transform="matrix(18,0,0,-18,230.9408,334.72743)"/>
<use data-text="o" xlink:href="#font_2_10" transform="matrix(18,0,0,-18,235.3706,334.72743)"/>
<use data-text="n" xlink:href="#font_2_9" transform="matrix(18,0,0,-18,245.84842,334.72743)"/>
<use data-text=" " xlink:href="#font_2_1" transform="matrix(18,0,0,-18,256.3622,334.72743)"/>
<use data-text="e" xlink:href="#font_2_5" transform="matrix(18,0,0,-18,260.66603,334.72743)"/>
<use data-text="m" xlink:href="#font_2_8" transform="matrix(18,0,0,-18,270.80183,334.72743)"/>
<use data-text="a" xlink:href="#font_2_4" transform="matrix(18,0,0,-18,286.67964,334.72743)"/>
<use data-text="i" xlink:href="#font_2_6" transform="matrix(18,0,0,-18,296.56343,334.72743)"/>
<use data-text="l" xlink:href="#font_2_7" transform="matrix(18,0,0,-18,300.99324,334.72743)"/>
</g>
<g clip-path="url(#clip_9)">
<path transform="matrix(1,0,0,-1,0,439.3008)" d="M38.71476 316.3766C38.67605 319.3053 38.66058 331.9114 38.74187 332.0387 38.72638 327.3274 38.78056 317.2679 38.71476 316.3766ZM38.67602 291.0369C38.62183 295.621 38.65668 305.6804 38.70701 308.8638 38.68765 303.5157 38.74183 292.6923 38.67602 291.0369ZM38.90832 329.8741C38.91316 331.5612 38.9134 333.6066 38.91207 335.7732 38.91141 336.8566 38.91035 337.9703 38.90928 339.0847 38.90821 340.1991 38.90709 340.9843 38.9064 342.5842 38.90364 348.984 38.94751 353.6205 39.0144 355.3952 38.97203 353.435 38.94812 350.9256 38.94104 348.0143 38.93396 345.1031 38.93978 341.8037 38.94123 339.6311 38.94413 335.2858 38.94122 331.4021 38.90832 329.8741ZM122.5916 37.54959C119.6629 37.51089 107.0568 37.49542 107.0568 37.57671 111.6408 37.56122 121.7003 37.6154 122.5916 37.54959ZM52.54131 46.46117C50.62499 47.94072 47.8027 50.61593 45.62631 53.59393 43.44993 56.57193 41.93167 59.79319 41.29869 61.38114 42.39099 58.72536 44.50962 54.95323 46.90992 52.03633 49.31022 49.11942 51.87623 47.02947 52.54131 46.46117ZM37.84226 81.31429C37.76412 83.95101 37.73229 86.87742 37.72072 89.85171 37.70915 92.826 37.71534 96.342 37.72067 98.09285 37.73132 101.5946 37.75067 103.6638 37.78938 102.7087 37.77293 101.9447 37.76519 100.5122 37.76137 98.77728 37.75756 97.04234 37.7555 93.92281 37.76248 91.26821 37.77644 85.95902 37.8716 81.87818 37.84226 81.31429ZM42.15605 321.7246C42.12507 311.5378 42.187 304.1524 42.18312 297.2763 42.16761 262.7686 42.02056 314.9759 42.15605 321.7246ZM37.95976 156.9534C37.95975 150.0773 37.94426 144.6019 37.90168 141.2912 37.90555 147.6579 37.8746 156.5714 37.95976 156.9534ZM38.04111 216.1641C37.99466 217.6921 38.01792 252.8365 38.07987 272.3187 38.09147 255.7652 38.08756 214.636 38.04111 216.1641ZM42.18694 239.339C42.12498 216.5461 42.13268 180.1283 42.09783 163.5748 42.06297 147.1486 42.02431 192.8618 42.03984 234.8823 42.05923 277.0301 42.21017 242.2677 42.24115 259.4579 42.27601 276.5208 42.31468 243.0317 42.27208 225.9688 42.22949 209.0333 42.245 237.3016 42.18694 239.339ZM42.47339 240.3577C42.46953 248.6344 42.48502 255.7652 42.5276 260.4766 42.55469 251.9451 42.57791 243.7957 42.47339 240.3577ZM102.2492 398.871C105.0505 399.6762 124.9148 400.3342 146.689 400.8065 152.1097 400.9125 157.5303 401.0185 163.1152 401.1278 202.971 401.48 243.0815 401.6619 283.1919 401.7509 291.1338 401.7649 299.0757 401.7789 307.2582 401.7934 319.546 401.8224 331.8657 401.8427 344.2172 401.8577 350.3929 401.8652 356.5766 401.8714 362.7682 401.8766 364.3162 401.878 365.8646 401.8792 367.4135 401.8804 368.9624 401.8816 371.3087 401.8839 373.4463 401.8815 377.7213 401.8769 381.531 401.8524 384.9549 401.7482 389.4976 401.6094 393.3603 401.3355 396.7654 400.7498 400.1705 400.1641 402.7715 399.4408 406.8914 397.4471 414.1347 393.9673 419.982 388.2872 423.6878 381.3281 427.3936 374.3689 427.9743 369.9297 428.4272 362.733 428.6536 359.1347 428.729 355.0669 428.7537 350.3923 428.7661 348.0549 428.7655 345.5661 428.7637 342.9092 428.7619 340.2523 428.7599 338.9951 428.7582 337.1806 428.7513 329.9225 428.7467 322.6485 428.7496 315.3267 428.7534 300.6832 428.7883 285.7851 428.8966 270.5049 428.9547 262.8648 428.9353 230.1397 428.8656 218.5523 429.0359 229.7577 428.9662 176.0225 428.9623 178.4418 428.9004 172.4571 428.8617 166.2177 428.8462 159.9783 428.8268 153.7389 428.7997 161.6336 428.7804 169.5284 428.7455 162.525 428.7301 155.5215 428.7262 148.3908 428.7313 140.9111 428.7364 133.4315 428.7416 125.7252 428.7591 119.454 428.7687 113.0633 428.7722 106.6409 428.773 105.0353 428.7735 103.4277 428.7736 101.8195 428.7737 100.2112 428.7735 99.22945 428.7728 96.85551 428.7716 92.10764 428.767 87.89503 428.6948 84.13634 428.5504 76.61896 428.1449 70.91273 426.9204 66.26605 426.3081 63.94271 425.4525 61.6073 423.9808 58.71265 422.509 55.81799 420.6987 53.19254 418.6462 50.8749 415.8534 47.69893 412.2073 44.64446 407.6475 42.30179 403.0877 39.95911 399.7837 39.00329 395.153 38.35859 390.5224 37.7139 384.7838 37.52484 377.1913 37.47967 373.395 37.45708 368.9337 37.46493 365.9005 37.46547 362.8673 37.46602 359.7935 37.46662 356.6887 37.46728 331.8505 37.47257 305.0306 37.48143 281.1871 37.49186 233.5002 37.51271 197.7192 37.53984 213.5087 37.55725 249.1624 37.60366 230.8262 37.66949 221.2761 37.68111 215.6734 37.68499 208.1606 37.69274 199.7565 37.70049 200.0112 37.66952 200.6479 37.64242 201.9212 37.62693 186.0044 37.60372 163.5934 37.50697 141.6918 37.59603 145.7666 37.61151 150.9873 37.6115 152.8973 37.65408 141.8192 37.65022 150.6053 37.73924 143.3472 37.76635 123.101 37.78959 113.4235 37.81283 136.8531 37.80506 125.966 37.84379 117.0526 37.89508 108.171 37.95074 103.7302 37.97857 99.97842 38.00173 93.45971 38.0378 86.94099 38.07387 81.15532 38.12475 75.95052 38.51899 68.06227 39.05833 72.46741 38.79463 74.73336 38.5621 71.38786 38.83067 67.48071 39.33609 64.00894 40.57974 62.27305 41.20157 59.43619 42.35921 57.00695 43.77625 54.57771 45.19328 52.32735 46.88753 50.35447 48.73969 46.4087 52.44401 43.64698 56.78653 42.01094 60.38779 40.3749 63.98906 40.07494 65.42085 39.91164 65.97258 39.82905 66.24818 40.00965 65.41503 40.54221 63.93403 41.07477 62.45303 42.34165 59.04065 44.60312 55.54144 46.86459 52.04224 50.14375 48.35309 54.39264 45.37013 56.51708 43.87865 58.87405 42.56285 61.40225 41.50936 63.93046 40.45587 65.26637 40.01553 67.20393 39.56177 74.95419 37.74674 86.18006 37.96372 95.16769 37.95484 99.6615 37.9504 101.1954 37.94784 102.1365 37.94303 103.0776 37.93822 102.7274 37.93236 100.69 37.9251 99.03468 37.9193 96.67766 37.91376 93.46235 37.91496 90.24704 37.91615 87.03238 37.92799 84.14845 37.97903 78.38058 38.08111 73.9933 38.41597 71.72863 38.68779 76.75003 38.04462 83.58262 37.9037 91.6159 37.8784 99.64918 37.8531 104.6374 37.86123 108.3301 37.8438 104.3191 37.83606 100.2714 37.82739 93.78831 37.82838 87.30526 37.82937 82.27677 37.89553 79.01012 38.02839 87.14213 37.66871 95.85131 37.79349 98.14334 37.76252 96.72674 37.76204 94.45005 37.76079 92.59966 37.76312 90.74926 37.76545 89.02565 37.77147 87.39501 37.78529 84.13372 37.81295 81.23841 37.87024 78.52709 37.99778 73.10446 38.25287 68.36146 38.66102 63.75875 40.35489 61.72201 41.11705 62.62055 40.83762 62.90948 40.7337 63.19841 40.62979 62.75719 40.1684 56.92357 43.56974 55.88425 44.20037 57.77712 43.02376 59.99741 41.9968 62.21769 40.96984 64.05407 40.35781 63.80144 40.47117 62.05318 41.11918 58.57073 42.53506 55.51111 44.5163 52.4515 46.49754 49.52347 49.08431 47.15489 51.93441 44.78631 54.78451 42.98318 57.88111 41.77544 60.61442 40.5677 63.34774 40.19095 64.66302 39.93008 65.58031 39.6777 66.47524 39.71636 66.36377 39.91258 65.68392 40.1088 65.00406 40.31174 64.38803 41.03222 62.48834 42.47318 58.68894 45.07147 54.7453 45.19696 54.58757 43.70711 56.74607 42.42779 59.09222 41.40606 61.59079 40.38433 64.08935 39.97512 65.33953 39.53023 67.26581 38.64045 71.11838 38.26809 75.6806 38.09974 81.22338 38.01556 83.99477 37.98384 87.00997 37.97186 90.28701 37.95989 93.56406 37.96563 97.23173 37.96695 99.65594 37.96959 104.5044 37.97217 109.2227 37.97471 113.7391 37.98489 131.8047 37.99459 146.6393 38.00621 153.6427 38.02557 167.7768 38.02556 154.534 38.04491 148.5493 38.07589 164.9755 38.07591 177.3269 38.08754 196.8092 38.09916 209.288 38.11077 204.3219 38.13012 199.6105 38.13787 202.9212 38.14561 205.8499 38.15336 207.76 38.1611 209.1606 38.16885 212.726 38.18433 215.1454 38.19981 207.5053 38.18431 193.2438 38.2114 187.0044 38.26561 198.4645 38.21144 225.7142 38.27726 235.6463 38.31982 219.8568 38.30819 202.9212 38.33527 185.2217 38.37401 219.7294 38.19598 255.1285 38.34698 282.8875 38.35859 277.9214 38.40891 275.7568 38.436 271.682 38.39343 282.2508 38.33538 297.913 38.43604 307.3358 38.44766 312.5565 38.4825 322.8706 38.498 333.1848 38.52121 315.1032 38.53668 303.0064 38.5057 290.4003 38.52118 290.6549 38.53667 291.8009 38.54828 293.9656 38.66825 265.6973 38.44372 249.5258 38.40499 229.4069 38.4101 227.8521 38.41521 226.2974 38.42047 224.6955 38.49788 218.2014 38.47081 241.1217 38.52501 243.4137 38.55207 213.6174 38.49785 181.147 38.57912 166.5035 38.60625 201.9026 38.57145 233.0996 38.64889 259.7126 38.73405 252.8365 38.67596 226.0962 38.72627 213.3627 38.80761 271.3 38.81149 277.1574 38.82698 281.8688 38.83464 277.4147 38.8423 272.9605 38.85019 268.3713 38.86552 269.5059 38.88085 270.6404 38.89665 271.8094 38.90441 297.2763 38.90057 327.2 38.92767 325.672 38.94702 324.526 38.96248 301.2237 38.96246 276.6481 38.99823 279.2113 39.034 281.7746 39.07085 284.4155 39.07861 298.8044 39.11927 314.1482 39.15074 329.492 39.1586 333.328 39.1659 337.164 39.17196 340.985 39.17499 342.8955 39.1761 346.0818 39.18744 348.6083 39.19877 351.1347 39.2207 353.4786 39.26607 355.6576 39.44754 364.3737 40.01421 370.459 41.7039 375.0827 41.1825 373.557 41.12235 373.117 41.2908 373.632 41.45926 374.1471 41.7626 375.2853 43.02606 378.0888 41.17077 373.8302 40.48048 370.9915 39.97338 366.1004 39.46629 361.2093 39.3835 355.0113 39.38015 348.5793 39.41891 352.98 39.56834 359.6573 39.7073 361.5652 39.46659 356.7257 39.43147 346.9594 39.48517 343.4455 39.50012 353.3399 39.52519 361.1554 40.28901 367.22 40.67093 370.2523 41.24084 372.8587 42.10017 375.1219 42.95951 377.385 44.85232 381.5254 46.9811 384.4527 48.77375 386.7929 43.75955 379.0426 44.15564 379.7098 47.29958 385.856 53.13192 391.9986 60.1767 395.4192 63.69908 397.1295 65.98434 397.801 68.52206 398.3137 71.05978 398.8264 73.72104 399.0841 76.08938 399.2315 70.62884 398.8219 65.2137 398.2559 58.27588 394.333 51.33806 390.4101 46.85056 384.3048 45.11168 381.2391 47.40912 385.187 50.43393 388.6472 54.14172 391.4815 57.81527 394.3144 61.07691 395.6631 61.98788 396.037 62.89884 396.411 61.28966 396.1356 56.8819 393.3329 52.15308 390.3229 52.5079 390.0729 53.59705 390.9427 54.83709 391.9282 56.92269 393.4459 59.57164 394.8019 60.89612 395.4798 62.83005 396.2436 63.79241 396.6319 64.75478 397.0201 65.7987 397.3554 66.88032 397.633 71.20676 398.7432 76.41257 398.9553 76.11399 398.8801 74.78357 398.7869 72.5565 398.6093 70.23814 398.2312 69.07896 398.0421 67.89426 397.8015 66.75191 397.4958 65.60956 397.19 65.01801 396.9637 63.3745 396.3461 56.80047 393.8756 51.63882 389.1354 49.8084 387.0596 51.23178 388.5706 54.05707 391.185 56.99342 393.0382 59.92977 394.8914 62.88111 396.0182 63.4344 396.1861 57.63714 394.0246 54.07518 391.1335 51.60599 388.7734 49.13679 386.4133 47.75056 384.4882 46.75582 383.0032 44.76634 380.033 44.20861 378.8334 43.09603 375.96 44.03648 378.4867 47.70528 384.3944 47.51907 384.2183 45.31094 381.1959 43.41015 377.0084 42.55769 374.6647 41.70522 372.321 41.14858 369.5764 40.78717 366.2904 40.42575 363.0043 40.2598 359.1775 40.18493 354.6571 40.11006 350.1367 40.12349 343.8299 40.12381 339.9335 40.18188 341.3342 40.25155 340.8248 40.29026 339.4242 40.2922 342.7349 40.27837 348.0747 40.34122 353.0477 40.40406 358.0208 40.49253 363.1632 41.20228 368.1424 41.06605 366.8 40.72971 363.7941 40.5601 358.9647 40.4753 356.55 40.42519 353.6718 40.40037 350.3575 40.37555 347.0432 40.37252 342.7985 40.36381 340.1882 40.38042 340.2722 40.39702 340.3563 40.41413 340.4428 40.41365 342.5598 40.4101 346.1322 40.42434 349.229 40.43858 352.3258 40.4718 355.285 40.55922 358.0392 40.73408 363.5477 41.13275 368.2035 42.05657 371.9128 42.51848 373.7674 43.0572 375.3204 44.13713 377.7309 45.21706 380.1414 46.55167 382.3708 48.06273 384.3739 51.08483 388.3801 54.81215 391.4503 58.51835 393.5541 55.15151 391.6143 47.36382 386.0529 43.51423 376.0398 42.55183 373.5366 42.22561 372.4892 41.81203 370.4225 41.39845 368.3557 41.1122 365.9962 40.91977 363.3412 40.53492 358.0311 40.51496 351.465 40.50734 344.3629 40.52813 345.2643 40.54932 346.1456 40.57211 347.0322 40.54965 338.5134 40.56485 332.7868 40.56993 326.0938 40.575 319.4008 40.58346 312.5247 40.5912 305.5531 40.60667 291.6099 40.61923 277.2848 40.59599 263.2779 40.73149 276.7754 40.62312 292.5649 40.6541 310.0098 40.6696 318.0319 40.71218 325.4173 40.75477 333.1848 40.75308 334.5695 40.75143 336.1249 40.74985 337.826 40.74826 339.5271 40.74615 341.1212 40.74544 343.9542 40.74401 349.6202 40.74416 355.1434 40.95041 359.9889 41.15667 364.8345 41.5814 369.0037 42.48467 372.3869 42.93631 374.0786 43.51444 375.7093 44.56535 377.9928 45.61625 380.2762 46.90865 382.4165 48.39033 384.3673 51.35369 388.2689 55.07791 391.3903 59.02715 393.5794 61.00177 394.674 63.38365 395.622 64.64937 396.0955 65.9151 396.569 67.24934 396.9306 68.61277 397.2141 74.0665 398.3482 80.0805 398.3802 82.16014 398.4229 84.45126 398.4704 81.19835 398.4688 76.36665 398.1323 73.95081 397.964 71.2294 397.6882 68.6988 397.1617 67.4335 396.8985 66.21185 396.5719 65.06539 396.1653 63.91892 395.7587 62.09181 395.054 60.37323 394.1945 53.49891 390.7565 48.09848 384.7071 45.32996 379.3347 42.56145 373.9623 42.38316 371.5429 42.37516 371.4751 42.36717 371.4072 42.65411 372.7347 43.22802 374.3128 43.80194 375.8909 45.23918 379.2973 46.75905 381.7191 48.27892 384.1408 49.8857 385.9535 50.43763 386.5571 50.98956 387.1607 50.32745 386.7043 48.22638 383.854 47.12943 382.3674 45.82468 380.3399 44.6721 377.8204 43.51951 375.3009 42.86262 373.4507 42.33924 371.1212 41.29249 366.4622 40.98297 359.6416 40.90464 352.1634 40.96347 351.6433 41.02314 351.1151 41.08537 350.562 41.13091 357.3081 41.35898 363.0596 41.80248 366.8044 42.24599 370.5493 42.84621 372.5402 42.83347 372.7222 43.07729 373.5674 43.29869 374.1849 43.92562 375.8271 44.55255 377.4693 45.35443 379.1569 46.22635 380.6692 47.97019 383.6939 50.0026 385.9748 50.56217 386.5422 49.41195 385.27 47.87688 383.196 47.90221 383.1782 49.31809 385.1848 51.76467 387.7645 52.05231 387.9948 47.66654 383.7356 43.90856 376.8469 42.65142 371.5827 41.39428 366.3184 41.16738 358.7447 41.11935 349.7425 41.14092 348.2161 41.16741 346.6235 41.19664 344.9063 41.20256 345.0867 41.19553 349.1092 41.27035 353.7646 41.34517 358.4201 41.54599 363.5148 42.04341 367.2926 42.56959 371.2773 42.17934 369.5095 41.74981 364.1714 41.53505 361.5024 41.38227 357.7289 41.32893 352.8184 41.30226 350.3631 41.29581 347.628 41.29447 344.6612 41.29312 341.6945 41.29381 339.6629 41.29284 337.6415 41.32477 335.0782 41.35671 332.515 41.38961 329.874 41.38768 332.6754 41.38671 335.6996 41.3872 338.9785 41.38768 342.2574 41.3737 347.6134 41.42488 352.3154 41.49943 357.8009 41.62864 359.8555 41.77825 361.9508 41.92785 364.0462 42.05291 366.1308 42.65787 369.4239 42.12371 366.3854 41.82404 362.5748 41.68398 357.778 41.61396 355.3796 41.58151 352.7359 41.56725 349.8297 41.55299 346.9236 41.55619 343.1407 41.55655 340.8885 41.558 331.8796 41.55412 322.9343 41.54443 314.9759 41.60319 309.177 41.66194 303.3782 41.72248 297.4037 41.74959 310.6465 41.79992 322.8706 41.84251 330.1287 41.83478 335.9861 41.8255 342.2189 41.87044 345.2654 41.88101 341.4124 41.88816 344.6144 41.91458 348.1043 41.941 351.5941 42.01516 355.1358 42.03563 353.8487 41.98454 351.5408 41.95794 348.4675 41.94696 344.7224 41.93598 340.9773 41.93131 338.3975 41.92429 335.62 41.91025 330.0651 41.89283 324.7807 41.8425 321.9793 41.84249 309.7551 41.84635 296.385 41.84247 284.5429 41.85268 283.0301 41.8629 281.5174 41.87343 279.9588 41.88118 290.0183 41.89667 299.5684 41.93152 310.2645 42.03991 305.4258 42.04375 275.8841 41.98179 254.4918 42.05917 210.9433 41.66428 166.8855 41.60618 123.337 41.60617 121.5543 41.61778 119.0076 41.63327 116.2062 41.66264 113.0547 41.69202 109.9032 41.72229 106.6561 41.73004 117.0976 41.74553 126.393 41.76877 134.0331 41.85003 103.2181 41.83075 178.0909 41.91204 182.9297 41.94493 170.4509 41.96355 155.2503 41.97436 138.5674 41.97976 130.226 41.98322 121.514 41.98553 112.5864 41.98668 108.1226 41.98755 103.6049 41.98824 99.05262 41.98858 96.77649 41.98557 93.18384 41.99855 90.18003 42.01154 87.17622 42.04173 84.42601 42.11231 81.91127 42.39464 71.85235 42.68631 66.9875 46.92492 59.45901 49.04423 55.69476 51.86751 52.41973 55.18198 49.79775 58.49645 47.17577 63.11527 45.05281 65.68184 44.17884 70.81497 42.43091 78.39932 42.08668 88.83558 42.02703 91.44465 42.01212 94.22727 42.01379 97.17997 42.01559 98.65632 42.01649 99.19706 42.01743 100.1781 42.01841 101.1592 42.01938 102.1331 42.0204 103.0994 42.02145 106.9648 42.02566 110.7097 42.03049 114.3149 42.03605 100.4354 42.04381 95.97865 42.05543 110.8768 42.08251 114.9108 42.09017 118.9448 42.09783 123.101 42.10572 115.7633 42.11492 108.3898 42.12031 101.0129 42.12302 99.16861 42.1237 97.28464 42.12334 94.6612 42.12499 92.03777 42.12664 89.59227 42.13212 87.31217 42.15345 82.75197 42.19613 78.85288 42.30335 75.51926 42.56368 72.18565 42.82402 69.42056 43.23922 67.12025 43.86746 65.9701 44.18158 65.17773 44.47463 63.56716 45.10921 61.95659 45.7438 60.41301 46.49914 58.94677 47.36281 53.08178 50.8175 48.46491 56.00294 45.70173 62.12921 44.32014 65.19234 43.7934 66.94722 43.3128 69.43717 42.83221 71.92711 42.53821 74.84935 42.36271 78.25349 42.0117 85.06176 42.09876 95.44071 42.10279 102.0442 42.11084 115.2512 42.1307 127.8255 42.17135 139.5085 42.17522 132.5688 42.17448 124.7297 42.17278 116.6937 42.17108 108.6577 42.14039 101.0932 42.17532 90.83544 42.21024 80.57764 42.53255 74.02986 43.34171 69.71104 43.74629 67.55164 44.24679 65.94287 44.75785 64.701 45.01338 64.08006 45.51816 62.77186 45.89697 61.95908 46.27577 61.1463 46.64406 60.44541 46.97625 59.85452 46.05808 61.5258 45.06914 63.93659 44.59643 65.20246 44.12372 66.46834 43.73959 67.91504 43.45282 69.39302 42.87927 72.34897 42.67873 75.45505 42.64395 76.22334 42.89625 72.92102 43.38215 68.33999 44.83263 64.75123 45.19525 63.85404 46.01292 61.78609 46.79761 60.30812 47.5823 58.83015 48.49838 57.38081 49.54117 55.99436 51.62674 53.22148 54.22705 50.70648 57.19343 48.67674 60.15981 46.647 63.88588 45.05939 66.0684 44.34881 68.25091 43.63823 70.83017 43.18218 73.65331 42.89117 79.2996 42.30914 85.99969 42.31904 90.62886 42.32243 79.30865 42.37108 71.24807 42.67105 65.93459 44.44567 63.27784 45.33299 58.56357 47.50896 55.17236 50.24294 51.78116 52.97692 48.92188 56.40723 46.83114 60.35537 45.78578 62.32944 44.93488 64.50669 44.47033 65.89193 44.00579 67.27718 43.63368 68.85355 43.34271 70.65635 42.76077 74.26197 42.50993 78.7699 42.41155 84.37492 42.36237 87.17743 42.34979 90.25414 42.34684 93.62953 42.34389 97.00492 42.34647 99.57775 42.3469 101.9864 42.34776 106.8038 42.34872 111.6023 42.34988 116.3654 42.35911 154.4703 42.38044 190.3151 42.45788 215.5274 42.44335 196.459 42.43776 175.7273 42.43574 154.335 42.43473 143.6389 42.43462 132.7777 42.43472 121.8766 42.43477 116.4261 42.43488 110.9656 42.43495 105.5108 42.43499 102.7835 42.43502 100.0575 42.43504 97.33497 42.43504 95.97369 42.43499 93.40996 42.43973 91.58055 42.44447 89.75115 42.45401 88.01714 42.47307 86.37335 42.54933 79.79821 42.78797 74.66441 43.43473 70.66433 43.75811 68.6643 44.18082 66.94979 44.71632 65.46745 45.25182 63.98511 46.37974 61.2419 47.62257 59.12985 52.5939 50.68166 61.8831 45.29531 68.62695 43.80918 71.99887 43.06611 76.23676 42.71385 81.42892 42.55209 84.025 42.47122 86.85829 42.43649 89.93496 42.42048 93.01163 42.40448 96.70336 42.40599 99.00683 42.40376 108.2207 42.39485 116.973 42.38347 125.1383 42.36895 113.8055 42.35347 113.6782 42.32638 119.6629 42.28379 139.9168 42.26333 160.1707 42.24287 181.0383 42.22179 185.2404 42.24115 183.8397 42.25276 173.7802 42.27987 165.5035 42.3031 160.6647 42.29536 157.9907 42.33795 163.5934 42.3573 228.1522 42.34949 176.8363 42.37664 164.0391 42.38342 148.9022 42.39167 134.205 42.40063 126.8563 42.40511 119.6177 42.40978 112.8363 42.41453 106.055 42.41929 100.4937 42.41501 92.88553 42.43106 77.66926 42.46314 72.46735 43.17271 71.08704 43.39158 70.39688 43.50101 70.76812 43.41182 72.7527 43.18011 74.73729 42.94839 78.19605 42.61942 85.97417 42.52415 87.91869 42.50034 89.95236 42.49102 92.06788 42.48742 94.18341 42.48382 96.69875 42.48573 98.1938 42.4867 101.1839 42.48865 104.0474 42.49071 106.78 42.49288 112.2452 42.49722 117.1869 42.50196 121.571 42.50697 130.3392 42.51701 136.877 42.52813 140.9119 42.53925 148.9818 42.5615 147.0399 42.58376 132.9057 42.59733 125.8068 42.60411 114.8799 42.61573 102.9522 42.62953 101.4613 42.63126 99.95466 42.63302 98.43795 42.63481 96.92123 42.63659 94.49945 42.63743 92.40705 42.64312 88.22226 42.65451 84.49813 42.68738 81.23021 42.79457 74.69435 43.00894 70.01597 43.56521 66.71702 44.55891 63.41808 45.55261 58.60099 47.96362 55.53843 50.41226 52.47587 52.8609 50.47509 55.37074 49.26282 57.10741 46.83829 60.58074 46.5083 60.26752 50.9072 54.99976 53.09734 52.37704 56.01977 49.73711 59.75322 47.62568 61.61994 46.56997 64.14876 45.534 65.52183 45.03504 66.89489 44.53608 68.51777 44.11974 70.47043 43.7939 74.37573 43.14222 79.59677 42.87712 86.64419 42.80421 88.40605 42.78598 90.28196 42.77822 92.27964 42.77534 94.27733 42.77247 96.70919 42.77427 98.18976 42.77528 101.1509 42.7773 104.138 42.77929 107.1364 42.78122 131.1231 42.79668 155.826 42.80827 173.6529 42.79858 209.434 42.77919 149.4593 42.51989 202.0486 42.5121 254.6378 42.5043 210.8347 42.60112 220.8941 42.59724 236.811 42.59335 266.098 42.59719 293.857 42.60104 313.3392 42.6165 338.4241 42.6126 351.0303 42.65517 350.1389 42.70163 290.8009 42.66685 314.2305 42.71327 328.6512 42.71326 343.4937 42.71445 357.2319 42.71456 360.6664 42.71459 364.032 42.71455 367.3047 42.7144 370.5774 42.71426 375.8713 42.70854 379.5932 42.74972 387.0371 42.83209 392.1124 43.14305 395.7581 43.7602 397.5809 44.06877 399.0432 44.44423 400.2504 44.85576 401.4576 45.26729 403.2295 45.96611 404.6844 46.67509 407.5942 48.09306 409.5475 49.55754 410.7003 50.47399 413.0059 52.30689 412.6586 51.35376 407.4775 48.12762 410.9736 50.28477 413.9012 53.00916 416.2199 56.0572 418.5387 59.10525 420.4631 63.38288 421.2413 65.53843 422.7977 69.84953 423.2772 75.93456 423.4343 83.81194 423.5129 87.75062 423.5136 92.12845 423.5148 96.93307 423.5154 99.33538 423.5161 100.2751 423.5168 101.8554 423.5175 103.4358 423.5183 104.994 423.5191 106.5315 423.5224 112.6813 423.5265 118.499 423.5313 124.0699 423.423 158.7049 423.4424 198.9427 423.4153 203.3994 423.3804 208.6202 423.6012 303.1026 423.2954 338.629 423.2959 338.7961 423.2966 339.2015 423.2977 339.8161 423.2987 340.4306 423.3 340.8911 423.3015 342.374 423.3045 345.3399 423.3154 349.1464 423.2741 353.0283 423.1916 360.7922 422.8403 368.4417 421.2569 373.2336 420.4651 375.6296 418.5487 379.8651 416.3531 382.8409 414.1574 385.8168 411.5692 388.2213 409.0343 390.0151 406.4993 391.809 404.0259 392.9992 402.0495 393.767 400.0732 394.5348 399.6335 394.674 399.2243 394.804 394.6566 396.1131 388.732 396.4039 382.2293 396.5188 378.9779 396.5762 375.5815 396.5799 372.1075 396.5772 368.6335 396.5746 366.3351 396.5676 364.1709 396.5626 355.5141 396.5426 349.032 396.5255 342.5777 396.5124 329.6691 396.4863 316.872 396.4766 287.012 396.4941 237.0967 396.5212 221.8166 396.5754 213.4125 396.5832 160.8232 396.6374 161.2052 396.5329 135.4836 396.9433 127.7161 397.0633 115.7467 397.0672 111.6719 397.2723 103.5225 397.6827 99.70247 398.2091 102.2492 398.871ZM39.98445 333.0574C39.97671 335.3813 39.97236 338.1747 39.96958 341.2108 39.96819 342.7289 39.96617 345.3731 39.97063 347.5535 39.97508 349.7339 39.98636 351.8279 40.01315 353.8012 40.12031 361.6941 40.59555 367.454 41.34518 371.0402 40.42709 366.9549 40.02786 361.3878 39.92601 353.3616 39.87508 349.3486 39.88648 343.7257 39.89228 340.2618 39.89808 336.7979 39.90606 333.2803 39.91477 329.7467 39.93776 330.8392 39.96076 331.9318 39.98445 333.0574ZM41.24631 261.2406C41.25019 267.48 41.18052 274.9927 41.19988 281.9962 41.20376 288.6176 41.18828 295.4936 41.23087 305.5531 41.27345 304.6618 41.31602 288.1082 41.30439 275.2474 41.32739 275.2474 41.35038 275.2474 41.37407 275.2474 41.40891 281.4868 41.43215 288.8722 41.43216 297.6583 41.42705 300.6418 41.42194 303.6252 41.41668 306.6991 41.3741 306.9538 41.34313 302.2424 41.35474 300.4597 41.28894 302.7517 41.25798 310.5192 41.23863 320.5786 41.22586 321.7972 41.21309 323.0158 41.19992 324.2713 41.13799 325.672 41.10702 318.0319 41.11477 326.5633 41.04508 320.5786 41.10313 305.0438 41.08377 295.3663 41.23087 306.1898 41.13793 265.3153 41.19986 255.2558 41.21519 257.2308 41.23052 259.2058 41.24631 261.2406ZM38.35075 183.057C38.3533 177.5523 38.35585 172.0476 38.35848 166.3761 38.36236 174.5256 38.3701 180.765 38.37785 186.495 38.36891 185.3605 38.35997 184.2259 38.35075 183.057ZM372.3532 37.69359C366.4958 37.71204 362.3631 37.73431 357.2463 37.74791 352.1295 37.76151 346.6392 37.77068 340.9748 37.77667 329.646 37.78866 317.6208 37.78795 306.4949 37.78457 284.2432 37.77782 265.5886 37.76042 263.2966 37.81268 256.1531 37.80119 249.0096 37.7897 241.6497 37.77786 264.8883 37.7701 288.9546 37.75943 311.3814 37.74537 322.5948 37.73835 333.3984 37.73047 343.4837 37.72169 348.5264 37.7173 353.3895 37.71269 358.0344 37.70783 362.6794 37.70298 366.4958 37.69365 372.3532 37.69359ZM253.4918 42.28366C250.6905 42.27592 251.8365 42.2643 258.5852 42.25268 294.4936 42.20233 315.7585 42.14037 293.0929 42.14039 273.7381 42.14041 231.5902 42.1211 243.9417 42.09399 260.3717 42.0812 276.8017 42.06841 293.7296 42.05523 306.7178 42.08231 319.3239 42.15585 332.1847 42.24874 304.4257 42.26038 277.8128 42.26815 253.4918 42.28366ZM347.7196 42.36872C337.7875 42.36486 325.9453 42.35326 313.9759 42.34553 324.3549 42.34041 334.734 42.33529 345.4276 42.33002 346.1839 42.34279 346.9403 42.35556 347.7196 42.36872ZM360.4531 42.46162C340.2068 42.46938 319.9606 42.45391 340.3342 42.4268 344.9144 42.42168 349.4946 42.41657 354.2137 42.4113 356.2727 42.4279 358.3317 42.44451 360.4531 42.46162ZM374.6207 42.5129C374.4496 42.4989 373.2425 42.4827 370.7435 42.4724 368.2446 42.46211 365.8648 42.4558 362.4904 42.45387 364.2094 42.4529 366.1433 42.45169 368.209 42.45043 370.2748 42.44918 374.0838 42.44573 376.969 42.46114 382.7394 42.49197 387.6726 42.61969 391.3805 42.94693 398.7962 43.60139 401.7001 45.13915 401.3518 45.03122 396.4999 43.07457 388.4846 42.54583 374.6207 42.5129ZM396.4732 38.67941C392.8039 38.06201 388.6064 37.85819 387.2584 37.79019 385.9103 37.7222 388.1305 37.5617 394.3175 38.32065 399.0262 38.89944 402.3781 39.64939 407.6692 42.36732 403.3286 40.15621 400.3278 39.29777 396.4732 38.67941ZM42.26429 169.6869C42.25654 165.8668 42.2604 151.3506 42.23329 142.9465 42.02039 142.0552 42.17526 175.0349 42.26429 169.6869ZM42.35337 224.0588C42.34563 220.3661 42.34948 205.8499 42.32625 197.3185 42.10947 196.4272 42.26435 229.4069 42.35337 224.0588ZM423.2915 338.7564C423.2915 338.7143 423.2915 338.6723 423.2915 338.629 423.2915 338.671 423.2915 338.7131 423.2915 338.7564ZM423.2915 338.7564"/>
</g>
<g clip-path="url(#clip_10)">
<use data-text="a" xlink:href="#font_4_6" transform="matrix(18,0,0,-18,153.7238,70.3472)"/>
<use data-text="l" xlink:href="#font_4_13" transform="matrix(18,0,0,-18,163.1756,70.3472)"/>
<use data-text="i" xlink:href="#font_4_12" transform="matrix(18,0,0,-18,167.2454,70.3472)"/>
<use data-text="a" xlink:href="#font_4_6" transform="matrix(18,0,0,-18,171.2252,70.3472)"/>
<use data-text="s" xlink:href="#font_4_19" transform="matrix(18,0,0,-18,180.677,70.3472)"/>
<use data-text="@" xlink:href="#font_4_24" transform="matrix(18,0,0,-18,189.6068,70.3472)"/>
<use data-text="e" xlink:href="#font_4_10" transform="matrix(18,0,0,-18,205.6466,70.3472)"/>
<use data-text="x" xlink:href="#font_4_22" transform="matrix(18,0,0,-18,215.0984,70.3472)"/>
<use data-text="a" xlink:href="#font_4_6" transform="matrix(18,0,0,-18,224.0462,70.3472)"/>
<use data-text="m" xlink:href="#font_4_14" transform="matrix(18,0,0,-18,233.498,70.3472)"/>
<use data-text="p" xlink:href="#font_4_17" transform="matrix(18,0,0,-18,248.6738,70.3472)"/>
<use data-text="l" xlink:href="#font_4_13" transform="matrix(18,0,0,-18,259.16963,70.3472)"/>
<use data-text="e" xlink:href="#font_4_10" transform="matrix(18,0,0,-18,263.2394,70.3472)"/>
<use data-text="." xlink:href="#font_4_26" transform="matrix(18,0,0,-18,273.0332,70.3472)"/>
<use data-text="c" xlink:href="#font_4_8" transform="matrix(18,0,0,-18,277.51704,70.3472)"/>
<use data-text="o" xlink:href="#font_4_16" transform="matrix(18,0,0,-18,287.0948,70.3472)"/>
<use data-text="m" xlink:href="#font_4_14" transform="matrix(18,0,0,-18,297.2486,70.3472)"/>
</g>
<g clip-path="url(#clip_11)">
<use data-text="R" xlink:href="#font_4_5" transform="matrix(18,0,0,-18,155.7914,385.34727)"/>
<use data-text="e" xlink:href="#font_4_10" transform="matrix(18,0,0,-18,166.81639,385.34727)"/>
<use data-text="a" xlink:href="#font_4_6" transform="matrix(18,0,0,-18,176.6174,385.34727)"/>
<use data-text="l" xlink:href="#font_4_13" transform="matrix(18,0,0,-18,186.0764,385.34727)"/>
<use data-text="-" xlink:href="#font_4_25" transform="matrix(18,0,0,-18,190.1534,385.34727)"/>
<use data-text="e" xlink:href="#font_4_10" transform="matrix(18,0,0,-18,198.1724,385.34727)"/>
<use data-text="m" xlink:href="#font_4_14" transform="matrix(18,0,0,-18,207.97339,385.34727)"/>
<use data-text="a" xlink:href="#font_4_6" transform="matrix(18,0,0,-18,223.1384,385.34727)"/>
<use data-text="i" xlink:href="#font_4_12" transform="matrix(18,0,0,-18,232.59738,385.34727)"/>
<use data-text="l" xlink:href="#font_4_13" transform="matrix(18,0,0,-18,236.56639,385.34727)"/>
<use data-text="@" xlink:href="#font_4_24" transform="matrix(18,0,0,-18,240.64339,385.34727)"/>
<use data-text="g" xlink:href="#font_4_11" transform="matrix(18,0,0,-18,256.69038,385.34727)"/>
<use data-text="m" xlink:href="#font_4_14" transform="matrix(18,0,0,-18,267.17539,385.34727)"/>
<use data-text="a" xlink:href="#font_4_6" transform="matrix(18,0,0,-18,282.3404,385.34727)"/>
<use data-text="i" xlink:href="#font_4_12" transform="matrix(18,0,0,-18,291.79939,385.34727)"/>
<use data-text="l" xlink:href="#font_4_13" transform="matrix(18,0,0,-18,295.76838,385.34727)"/>
<use data-text="." xlink:href="#font_4_26" transform="matrix(18,0,0,-18,299.8454,385.34727)"/>
<use data-text="c" xlink:href="#font_4_8" transform="matrix(18,0,0,-18,304.31837,385.34727)"/>
<use data-text="o" xlink:href="#font_4_16" transform="matrix(18,0,0,-18,313.90339,385.34727)"/>
<use data-text="m" xlink:href="#font_4_14" transform="matrix(18,0,0,-18,324.0464,385.34727)"/>
</g>
</svg>