<svg xmlns="http://www.w3.org/2000/svg" xmlns:xlink="http://www.w3.org/1999/xlink" version="1.1" width="566.9291" height="566.9291" viewBox="0 0 566.9291 566.9291">
<defs>
<clipPath id="clip_0">
<path transform="matrix(1,0,0,-1,0,566.9291)" d="M80.21349 90.82026H486.7156V476.10887H80.21349Z"/>
</clipPath>
<clipPath id="clip_1">
<path transform="matrix(1,0,0,-1,0,566.9291)" d="M98.00521 167.1786H239.1189V346.3779H98.00521Z"/>
</clipPath>
<clipPath id="clip_2">
<path transform="matrix(1,0,0,-1,0,566.9291)" d="M92.39099 409.0654H474.5381V441.58915H92.39099Z"/>
</clipPath>
<clipPath id="clip_3">
<path transform="matrix(1,0,0,-1,0,566.9291)" d="M92.98099 409.6554H473.9481V440.99916H92.98099Z"/>
</clipPath>
<path id="font_4_16" d="M.061523439 .70996096H.33442689C.4157257 .70996096 .47519938 .6896159 .5128479 .6489258 .5505066 .60823568 .56933596 .5538788 .56933596 .4858551 .56933596 .41781108 .54999288 .363444 .51130679 .3227539 .47262065 .2820638 .41359965 .26171876 .33424378 .26171876H.15917969V-.00048828127H.061523439V.70996096M.33444215 .6220703H.15917969V.34960938H.33444215C.3818461 .34960938 .41689555 .36263023 .43959046 .38867188 .46228538 .41472373 .4736328 .44711305 .4736328 .48583985 .4736328 .527242 .46228538 .56029769 .43959046 .5850067 .41689555 .60971578 .3818461 .6220703 .33444215 .6220703Z"/>
<path id="font_4_30" d="M.06738281 .087890628H.1796875V.48417665L.08843994 .50027468V.55859377H.26438905L.27435304 .48518373C.29833985 .5072174 .32383219 .5264079 .35083009 .5427551 .37782798 .55910238 .40665183 .5669403 .43730165 .5662689 .46595765 .5656077 .49261476 .55910238 .51727297 .5467529 .54194137 .53441366 .5606079 .51657107 .5732727 .4932251L.50328066 .4340973C.49260966 .44743348 .47927348 .45743815 .4632721 .46411134 .44728089 .47078453 .43062339 .4741211 .41329957 .4741211 .39131675 .4741211 .36932374 .46645103 .34732057 .45111085 .32532756 .43577067 .30200196 .41609193 .27734376 .39207459V.38806153 .087890628H.48828126V0H.06738281V.087890628Z"/>
<path id="font_4_21" d="M.32748414-.015625C.2748413-.015625 .22819519-.004460653 .18754578 .017868042 .14690654 .04020691 .11509196 .07287598 .09210205 .115875247 .069112148 .15888469 .057617189 .21139018 .057617189 .27339173 .057617189 .36739604 .08060201 .43973289 .12657166 .49040223 .17255147 .5410716 .23452759 .56640627 .3125 .56640627 .36113487 .56640627 .40210978 .5560811 .4354248 .5354309 .46873985 .51479086 .49472557 .48731996 .51338198 .4530182 .5320485 .41871644 .54338076 .38108317 .54737856 .3401184 .55137637 .29916383 .54770919 .25870768 .53637698 .21875H.15538025C.16003926 .1826477 .17103577 .15372722 .18836975 .13198853 .20570374 .11026001 .22737122 .094548549 .2533722 .084854129 .27937318 .075159709 .30737306 .0703125 .33737184 .0703125 .3527018 .0703125 .3743693 .07265218 .40237428 .07733154 .43037925 .0820109 .4610443 .09170532 .4943695 .106414798L.52737429 .030334473C.48272706 .009674072 .44474284-.0031483968 .41342164-.008132935 .3821106-.013127645 .35346476-.015625 .32748414-.015625M.15136719 .30371095H.46138C.4640452 .33500163 .45987449 .36380006 .4488678 .3901062 .4378713 .41641236 .42053733 .4377238 .39686585 .45404054 .37320457 .47035728 .34403993 .47851563 .30937196 .47851563 .2760366 .47851563 .24753316 .47035728 .2238617 .45404054 .2002004 .4377238 .18220012 .41641236 .16986084 .3901062 .15753174 .36380006 .15136719 .33500163 .15136719 .30371095Z"/>
<path id="font_4_22" d="M.064453128 .4892578H.25195313V.6044159C.25195313 .64379379 .258433 .67449447 .27139283 .69651797 .2843628 .71855166 .30049134 .73457339 .31977845 .74458315 .3390757 .7545929 .35853068 .7607625 .3781433 .76309207 .3977661 .7654317 .41423036 .76660159 .427536 .76660159 .45879618 .76660159 .49021913 .76194259 .5218048 .7526245 .5534007 .74330648 .5828349 .7303212 .6101074 .7136688L.56710818 .6396179C.54715988 .65164187 .5260518 .66116335 .5037842 .6681824 .4815165 .6752014 .46174113 .67871096 .444458 .67871096 .41652427 .67871096 .39541117 .6741994 .38111878 .6651764 .3668264 .6561534 .3571879 .6429545 .35220338 .62557986 .34721885 .60821536 .34472657 .5868327 .34472657 .5614319V.4892578H.5371094V.4013672H.34472657V-.023025513C.34472657-.05305481 .34188844-.081578578 .33621217-.1085968 .33054606-.1356252 .31887309-.15764873 .30119325-.17466736 .2835134-.19168599 .25631715-.20019531 .21960449-.20019531H.06846619V-.11035156H.16873169C.1934611-.11035156 .211675-.10601298 .22337342-.097335819 .23507183-.08865865 .24275716-.07747396 .24642945-.06378174 .2501119-.05009969 .25195313-.036580404 .25195313-.023223877V.4013672H.064453128V.4892578Z"/>
<path id="font_4_24" d="M.3095703 .6064453C.28821818 .6064453 .26953126 .6141205 .25350953 .6294708 .23749797 .64482119 .22949219 .6638387 .22949219 .68652346 .22949219 .70854696 .23749797 .72739669 .25350953 .7430725 .26953126 .75875857 .28821818 .76660159 .3095703 .76660159 .33225505 .76660159 .35127259 .75875857 .36662293 .7430725 .38197328 .72739669 .38964845 .70854696 .38964845 .68652346 .38964845 .6638387 .38197328 .64482119 .36662293 .6294708 .35127259 .6141205 .33225505 .6064453 .3095703 .6064453M.08496094 .08805847H.27441407V.421875H.13879395V.5097656H.3720703V.08805847H.5332031V0H.08496094V.08805847Z"/>
<path id="font_4_34" d="M.08105469 0V.010009766L.24803162 .2794037 .0859375 .5407715V.55078127H.18899536L.3090515 .3524933 .43112184 .55078127H.5341797V.5407715L.37008668 .2794037 .5390625 .010009766V0H.4361267L.3090515 .20629883 .18399048 0H.08105469Z"/>
<path id="font_4_1" d="M0 0Z"/>
<path id="font_4_2" d="M.515625 .35058595V.26464845H.10546875V.35058595H.515625Z"/>
<path id="font_4_23" d="M.022460938 .75097659H.20925904V.47517396C.23723348 .49416606 .2677053 .510376 .30067445 .5238037 .3336436 .53723147 .36644493 .5439453 .39907838 .5439453 .42638145 .5439453 .45085655 .53827926 .47250367 .526947 .4941508 .5156148 .51146957 .49694825 .52445986 .47094728 .53745016 .4449463 .5439453 .4096171 .5439453 .36495973V0H.4453125V.33920289C.4453125 .377889 .43881227 .40556846 .42581178 .4222412 .41281129 .43892417 .39296977 .44726563 .36628724 .44726563 .34428407 .44726563 .32044474 .44226075 .2947693 .43225099 .269104 .4222412 .24060059 .40556846 .20925904 .38223268V0H.11425781V.6766052L.022460938 .692688V.75097659Z"/>
<path id="font_4_32" d="M.07128906 .55078127H.22558594V.6796875H.3232422V.55078127H.5292969V.46289063H.3232422V.17707825C.3232422 .16371155 .3249054 .150177 .3282318 .13647461 .3315684 .12277222 .33907066 .111572269 .35073854 .102874759 .3624166 .094187419 .3802592 .08984375 .40426637 .08984375H.5262909V0H.3534546C.31748454 0 .29034425 .008514404 .2720337 .025543213 .25372315 .042582197 .24140422 .06462606 .2350769 .091674808 .22874959 .11872355 .22558594 .14727783 .22558594 .17733765V.46289063H.07128906V.55078127Z"/>
<path id="font_4_29" d="M.022460938 .55859377H.19900513L.20898438 .5024109C.22765096 .52174887 .2494812 .5372467 .2744751 .5489044 .29947917 .5605723 .32731629 .56640627 .35798646 .56640627 .4013214 .56640627 .4393209 .5549062 .47198487 .5319061 .50464889 .50890609 .52948 .47606913 .5464783 .4333954 .56348678 .39072166 .569987 .33971659 .565979 .28038026 .5619812 .22371929 .54764816 .17305501 .52297976 .12838745 .49831138 .08371989 .46731059 .04854838 .42997743 .022872925 .39264427-.0027923585 .35298158-.015625 .31098939-.015625 .2896576-.015625 .27048747-.012791951 .253479-.0071258547 .23648072-.00146993 .22164917 .0063527429 .20898438 .016342164V-.19726563H.115234378V.48435975L.022460938 .500412V.55859377M.34799195 .4793396C.31531779 .4793396 .287145 .47050477 .2634735 .45283509 .23981221 .4351654 .22164917 .4126587 .20898438 .38531495V.14328003C.21765137 .12260946 .2298177 .10560608 .2454834 .0922699 .26114909 .078933719 .28131614 .072265628 .3059845 .072265628 .35198466 .072265628 .38931785 .09110006 .417984 .12876892 .44665019 .16644795 .46331788 .21695455 .46798707 .2802887 .47265626 .338974 .4658203 .38682048 .44747926 .42382813 .42914836 .46083579 .39598594 .4793396 .34799195 .4793396Z"/>
<path id="font_4_31" d="M.083465579 .0703125 .14447022 .13728333C.17114258 .119267787 .19964092 .10409037 .22996521 .0917511 .26029969 .07941183 .2901357 .07324219 .31947328 .07324219 .35881043 .07324219 .3884786 .079574588 .40847779 .09223938 .42847697 .104914348 .43847657 .12125651 .43847657 .14126587 .43847657 .16060384 .43047587 .17694092 .4144745 .1902771 .3984731 .20362346 .37780253 .21546428 .35246278 .22579956 .32713319 .23613484 .30030314 .24630229 .27197267 .25630189 .24364217 .26631166 .21680705 .27781678 .19146729 .29081727 .1661377 .3038279 .14547222 .31983439 .12947083 .33883668 .113469447 .35784913 .10546875 .38136292 .10546875 .40937806 .10546875 .4347178 .11213175 .45705668 .12545777 .47639466 .13878377 .49573265 .1561025 .5120697 .17741394 .5254059 .19873555 .53875228 .22188823 .5487569 .24687195 .5554199 .27185569 .5620931 .29634095 .5654297 .32032777 .5654297 .3616282 .5654297 .3977661 .55860397 .42874146 .5449524 .45972697 .53130087 .49020896 .51182559 .5201874 .4865265L.46040345 .4225006C.43772889 .43984477 .41555787 .45335389 .39389039 .46302796 .3722229 .47270204 .34772746 .47753907 .32040406 .47753907 .2910665 .47753907 .26456199 .47136943 .2408905 .45903016 .2172292 .44670106 .20473226 .43086753 .20339966 .41152955 .20272827 .3968506 .21022542 .38400779 .22589112 .3730011 .24155681 .3620046 .26205445 .3513387 .28738404 .34100343 .3127238 .33066813 .33972679 .31982932 .36839295 .30848695 .3970591 .29714457 .42404176 .2841339 .44934083 .26945497 .47465007 .25478617 .49544273 .2371165 .51171877 .21644593 .5279948 .19577535 .5361328 .17110189 .5361328 .14242554 .5361328 .095062259 .51731368 .05704244 .4796753 .028366089 .44204713-.00031026206 .38859559-.0146484379 .31932069-.0146484379 .27469383-.0146484379 .23139446-.0064849855 .1894226 .009841919 .14746094 .026168824 .11214193 .046325685 .083465579 .0703125Z"/>
<path id="font_4_9" d="M.31054688 .39746095C.2898356 .39746095 .27212525 .40481059 .25741578 .4195099 .2427063 .43421937 .23535156 .4519399 .23535156 .4726715 .23535156 .49338279 .2427063 .5110881 .25741578 .52578738 .27212525 .5404968 .2898356 .54785159 .31054688 .54785159 .3312683 .54785159 .34897868 .5404968 .36367799 .52578738 .37838746 .5110881 .3857422 .49338279 .3857422 .4726715 .3857422 .4519399 .37838746 .43421937 .36367799 .4195099 .34897868 .40481059 .3312683 .39746095 .31054688 .39746095M.31054688 0C.2898356 0 .27212525 .00734965 .25741578 .02204895 .2427063 .036758424 .23535156 .054473878 .23535156 .07519531 .23535156 .09591675 .2427063 .11362711 .25741578 .12832642 .27212525 .14303589 .2898356 .15039063 .31054688 .15039063 .3312683 .15039063 .34897868 .14303589 .36367799 .12832642 .37838746 .11362711 .3857422 .09591675 .3857422 .07519531 .3857422 .054473878 .37838746 .036758424 .36367799 .02204895 .34897868 .00734965 .3312683 0 .31054688 0Z"/>
<path id="font_5_2" d="M0 0Z"/>
<path id="font_5_1" d="M-.14300537 .75H-.042007448V.7400055L-.30700685-.11999512H-.40800477V-.11000061L-.14300537 .75M.28900147 .75H.3899994V.7400055L.125-.11999512H.024002076V-.11000061L.28900147 .75Z"/>
<path id="font_4_28" d="M.31054688-.015625C.25785319-.015625 .21316529-.003458659 .17648316 .020874024 .13980103 .045206708 .11212158 .079208377 .093444827 .12287903 .07476807 .16654969 .06542969 .21738689 .06542969 .27539063 .06542969 .33406578 .07476807 .3850708 .093444827 .42840577 .11212158 .47174073 .13980103 .5055745 .17648316 .5299072 .21316529 .5542399 .25785319 .56640627 .31054688 .56640627 .36391197 .56640627 .4087677 .5542399 .44511415 .5299072 .48146058 .5055745 .50897219 .47174073 .5276489 .42840577 .5463257 .3850708 .55566409 .33406578 .55566409 .27539063 .55566409 .21738689 .5463257 .16654969 .5276489 .12287903 .50897219 .079208377 .48146058 .045206708 .44511415 .020874024 .4087677-.003458659 .36391197-.015625 .31054688-.015625M.31053163 .07144165C.3472341 .07144165 .37642417 .08027649 .3981018 .09794617 .41977946 .115615848 .43562318 .13995362 .44563294 .17095948 .45565287 .20197551 .46066285 .2368164 .46066285 .27548219 .46066285 .31481935 .45565287 .34965516 .44563294 .37998963 .43562318 .41033427 .41977946 .43434144 .3981018 .4520111 .37642417 .4696808 .3472341 .47851563 .31053163 .47851563 .2745107 .47851563 .24548848 .4696808 .22346497 .4520111 .20145162 .43434144 .18544007 .41033427 .1754303 .37998963 .16543071 .34965516 .16043091 .31481935 .16043091 .27548219 .16043091 .2368164 .16543071 .20197551 .1754303 .17095948 .18544007 .13995362 .20145162 .115615848 .22346497 .09794617 .24548848 .08027649 .2745107 .07144165 .31053163 .07144165Z"/>
<path id="font_4_19" d="M.5078125 .13124085C.5078125 .11323547 .5116933 .09939575 .51945498 .08972168 .5272166 .08005778 .54189047 .07455953 .56347659 .07322693V-.0076446535C.5246989-.008977254 .4951121-.0048217775 .4747162 .0048217775 .45433045 .014475505 .43912254 .029286704 .4290924 .04925537 .41243998 .03129069 .39045207 .015986124 .36312867 .0033416749 .33581544-.009302775 .2998403-.015625 .25520326-.015625 .22720845-.015625 .19888814-.009460449 .17024231 .0028686524 .14159648 .015207927 .117777507 .034047445 .0987854 .059387208 .07980347 .08472697 .0703125 .11706543 .0703125 .15640259 .0703125 .19307454 .07814026 .22340901 .09379578 .247406 .109461467 .27141319 .13011678 .29042054 .15576172 .3044281 .18141683 .31843568 .20940654 .32860313 .23973084 .33493043 .27005515 .3412679 .30003868 .34527079 .3296814 .3469391 .35933433 .3486074 .38615928 .34877525 .41015626 .34744264V.3614502C.41015626 .38680015 .4076538 .4081472 .40264894 .42549134 .3976542 .44284568 .3869883 .45585633 .37065126 .46452333 .35432435 .47320048 .32850138 .47753907 .29318238 .47753907 .27252198 .47753907 .24819438 .47403465 .22019959 .46702577 .19220479 .46001689 .16354878 .45017497 .13423157 .4375L.08729553 .5124817C.12192281 .52979537 .1588796 .54311117 .1981659 .5524292 .2374522 .56174728 .2747396 .56640627 .31002809 .56640627 .32802329 .56640627 .3483378 .5649058 .37097169 .5619049 .39360557 .558904 .41541038 .5525665 .4363861 .54289248 .45737205 .5332286 .47452293 .5180562 .48783876 .4973755 .5011546 .47670494 .5078125 .44869996 .5078125 .4133606V.13124085M.15820313 .1612854C.15820313 .13393148 .16903179 .112579349 .19068909 .097229007 .21235657 .08188883 .2368571 .07421875 .26419068 .07421875 .30551148 .07421875 .3373362 .082722987 .35966493 .099731449 .38199363 .116750087 .39882408 .13559978 .41015626 .15628052V.26837159C.3834839 .27037559 .355484 .27087403 .32615663 .26986695 .2968394 .26887004 .2695109 .265035 .24417115 .25836183 .21884156 .25169883 .19818115 .24069214 .18218994 .2253418 .16619873 .21000164 .15820313 .18864949 .15820313 .1612854Z"/>
<path id="font_4_3" d="M.30955506-.018554688C.28689067-.018554688 .26738993-.010386149 .25105287 .0059509279 .23472595 .022288004 .2265625 .04178874 .2265625 .064453128 .2265625 .0877889 .23472595 .10745748 .25105287 .12345886 .26738993 .13946025 .28689067 .14746094 .30955506 .14746094 .332901 .14746094 .35257469 .13946025 .36857606 .12345886 .38457743 .10745748 .39257813 .0877889 .39257813 .064453128 .39257813 .04178874 .38457743 .022288004 .36857606 .0059509279 .35257469-.010386149 .332901-.018554688 .30955506-.018554688Z"/>
<path id="font_4_7" d="M.0836792 .6306305C.11501058 .6592865 .1506551 .68211367 .1906128 .69911196 .23057048 .7161102 .27452088 .7246094 .322464 .7246094 .3637441 .7246094 .40019737 .71542868 .43182374 .69706729 .4634603 .678716 .48810325 .6540222 .50575259 .62298586 .5234019 .59194949 .53222659 .55707809 .53222659 .5183716 .53222659 .47632853 .52556869 .44062297 .5122528 .41125489 .49893699 .3818868 .48212687 .35585533 .4618225 .3331604 .44151817 .31047569 .42104594 .28811646 .40040589 .26608277L.23164368 .087890628H.55371096V0H.095703128V.087890628L.27163697 .26615907C.29629518 .29086814 .32111613 .31540428 .34609986 .33976747 .37109376 .36414085 .39208476 .3901825 .40907289 .41789247 .42607118 .44561259 .4345703 .47583009 .4345703 .5085449 .4345703 .543925 .42307536 .57396957 .40008546 .5986786 .37709556 .62338766 .34527079 .6357422 .3046112 .6357422 .2766266 .6357422 .24813843 .6295624 .21914673 .61720278 .19015503 .60485336 .16299947 .58799746 .13768006 .56663516L.0836792 .6306305Z"/>
<path id="font_4_5" d="M.31181336-.015625C.26246644-.015625 .22128296-.0062917077 .18826294 .012374878 .1552531 .031041464 .12890625 .057047529 .10922241 .09039307 .089548747 .12373861 .075541179 .16308086 .06719971 .2084198 .058858236 .25376893 .0546875 .30278016 .0546875 .3554535 .0546875 .40880839 .058858236 .45799256 .06719971 .503006 .075541179 .5480194 .089548747 .5871938 .10922241 .6205292 .12890625 .6538747 .1552531 .6798808 .18826294 .69854739 .22128296 .7172241 .26246644 .7265625 .31181336 .7265625 .36117045 .7265625 .40218608 .7172241 .43486024 .69854739 .46754457 .6798808 .49339295 .6538747 .5124054 .6205292 .53141787 .5871938 .54492697 .5480194 .55293276 .503006 .56093856 .45799256 .5649414 .40880839 .5649414 .3554535 .5649414 .30278016 .56093856 .25376893 .55293276 .2084198 .54492697 .16308086 .53141787 .12373861 .5124054 .09039307 .49339295 .057047529 .46754457 .031041464 .43486024 .012374878 .40218608-.0062917077 .36117045-.015625 .31181336-.015625M.15234375 .35647584C.15234375 .32244874 .1535085 .29058839 .15583802 .26089479 .15817769 .23120117 .16301982 .2043457 .17036438 .18032837L.4137268 .60066226C.40237428 .61267599 .38835145 .6218516 .37165834 .6281891 .35497538 .63452658 .33494569 .6376953 .3115692 .6376953 .27685038 .6376953 .24880982 .63068649 .22744751 .6166687 .2060852 .60266116 .19006348 .58280947 .17938233 .55711367 .16870117 .53142806 .16152446 .50157168 .15785218 .46754457 .15417989 .43352763 .15234375 .39650474 .15234375 .35647584M.3115692 .07324219C.34695945 .07324219 .375 .08041382 .39569093 .09475708 .416392 .10910034 .43174745 .12911479 .4417572 .15480042 .45177714 .18049622 .45845033 .21052552 .46177674 .2448883 .4651133 .2792511 .46678163 .31644694 .46678163 .35647584 .46678163 .38916017 .46577964 .42018128 .46377564 .44953919 .46178184 .47890727 .45778404 .5052643 .45178224 .5286102L.20942688 .10926819C.22077942 .09792582 .23496501 .0890859 .25198365 .08274841 .26901246 .07641093 .2888743 .07324219 .3115692 .07324219Z"/>
<path id="font_4_8" d="M.5341797 .19532776C.5341797 .15400696 .525177 .11751302 .50717166 .08584595 .48917643 .054189046 .46367393 .029362997 .43066407 .011367798 .3976644-.006627401 .3584951-.015625 .31315614-.015625 .261144-.015625 .21746826-.009302775 .1821289 .0033416749 .14678955 .015996298 .111455287 .034642538 .0761261 .059280397L.12612915 .13328552C.14882405 .116612758 .17385356 .102274578 .20121765 .090270999 .22859192 .07826742 .2596334 .072265628 .29434205 .072265628 .34173585 .072265628 .37727867 .084599819 .40097047 .10926819 .42467246 .13394673 .43652345 .16262818 .43652345 .1953125 .43652345 .23065186 .4224955 .26015727 .3944397 .28382875 .36639405 .3075002 .32765708 .31933595 .27822877 .31933595H.2241211V.40527345H.2800598C.32800294 .40527345 .36345927 .41696168 .38642884 .44033814 .40940858 .4637146 .42089845 .4937744 .42089845 .5305176 .42089845 .56591799 .40890504 .59246829 .3849182 .61016848 .36094157 .62786868 .3323008 .63671877 .29899598 .63671877 .27434794 .63671877 .24886577 .6307068 .22254944 .61868289 .19624329 .60665896 .1724345 .58996078 .15112305 .56858828L.086120609 .6307068C.14736939 .69330856 .22227478 .7246094 .3108368 .7246094 .3507843 .7246094 .3864034 .7169342 .4176941 .70158389 .44898478 .6862437 .47361756 .664561 .4915924 .63653567 .50956729 .6085103 .5185547 .57547506 .5185547 .5374298 .5185547 .50208029 .51042178 .46922303 .49415589 .43885804 .47790019 .40849305 .45417787 .38397218 .4229889 .3652954 .45437113 .351298 .4807485 .32913719 .502121 .29881288 .52349349 .26848857 .5341797 .23399353 .5341797 .19532776Z"/>
<path id="font_4_35" d="M.44140626-.022903443V.058151246C.42140708 .040807088 .3997396 .026626587 .3764038 .015609741 .35306803 .004603068 .32539878-.0005645752 .293396 .00010681152 .26339723 .00077819827 .23572795 .008448283 .21038819 .023117066 .18504842 .03779602 .16504415 .061325075 .15037537 .09370422 .13571675 .12609355 .12838745 .16899617 .12838745 .22241211L.13038635 .46577455 .04736328 .47779847V.54589846H.2263794V.27346803C.2263794 .23942058 .2280426 .20904033 .23136902 .18232727 .23470561 .15562439 .24253845 .1345927 .25486756 .11923218 .26720683 .103871669 .28605143 .096191409 .31140138 .096191409 .33472697 .096191409 .3562266 .10153198 .37590028 .112213138 .39557395 .12290446 .41740928 .13792928 .44140626 .1572876V.55078127H.5390625V-.02268982C.5390625-.08740743 .5217438-.13560994 .48710633-.16729737 .45246888-.19899495 .40751139-.21484375 .3522339-.21484375H.17138672V-.125H.3013916C.32605998-.125 .3488973-.12183126 .36990357-.115493778 .39090983-.10915629 .40807597-.098480228 .42140199-.083465579 .43473817-.0684611 .44140626-.048273725 .44140626-.022903443Z"/>
<path id="font_4_36" d="M.08496094 .087890628 .39263917 .46289063H.09082031V.55078127H.5185547V.46289063L.21073914 .087890628H.53515627V0H.08496094V.087890628Z"/>
<path id="font_4_4" d="M.37257386 .7504883H.4736328V.7404785L.20848084-.12011719H.107421878V-.11010742L.37257386 .7504883Z"/>
<path id="font_4_33" d="M.057006837 .55029299H.16000366C.17799886 .47624717 .19499715 .41137696 .21099854 .35568238 .22699993 .29999797 .2430013 .25047303 .2590027 .20710755 .27500407 .16375225 .29200236 .12373352 .30999757 .08705139 .32800294 .12373352 .34500123 .16375225 .36099244 .20710755 .3769938 .25047303 .3929952 .29999797 .40899659 .35568238 .42499797 .41137696 .44200135 .47624717 .4600067 .55029299H.56300356C.54566958 .47958375 .52916976 .41721598 .513504 .3631897 .49783836 .30916343 .48216758 .26097108 .4664917 .21861267 .45082603 .17625427 .43482463 .13756307 .41848756 .10253906 .40216065 .06752523 .38433329 .03334554 .3650055 0H.25500489C.2363383 .03334554 .21866863 .06752523 .20199585 .10253906 .18533325 .13756307 .16916912 .17625427 .15350342 .21861267 .13783773 .26097108 .122166957 .30916343 .10649109 .3631897 .0908254 .41721598 .07433065 .47958375 .057006837 .55029299Z"/>
<path id="font_4_6" d="M.5439453 .08805847V0H.09082031V.08805847H.27539063V.5513458C.2319336 .5193329 .18177796 .49665324 .124923709 .48330689L.08381653 .57437136C.123906459 .5830485 .16382854 .5993907 .20358277 .6233978 .24333699 .64741519 .27490745 .6764323 .29829408 .7104492H.375V.08805847H.5439453Z"/>
<clipPath id="clip_6">
<path transform="matrix(1,0,0,-1,0,566.9291)" d="M101.1765 356.5877H233.0185V398.85569H101.1765Z"/>
</clipPath>
<clipPath id="clip_7">
<path transform="matrix(1,0,0,-1,0,566.9291)" d="M101.7665 357.1777H232.4285V398.2657H101.7665Z"/>
</clipPath>
<path id="font_8_6" d="M.0859375 0H.19921875V.50097659H.2607422L.13574219 .6850586 .4033203 0H.4892578L.7573242 .6850586 .63183596 .50097659H.6933594V0H.8066406V.70458987H.6621094L.4506836 .16259766H.4423828L.23046875 .70458987H.0859375V0Z"/>
<path id="font_8_2" d="M.033203126 .00048828127H.16503906L.35009767 .57421877H.3876953V.7050781H.28320313L.033203126 .00048828127M.15917969 .18261719H.54833987L.5151367 .27978517H.19238281L.15917969 .18261719M.54345706 .00048828127H.67529299L.42529298 .7050781H.35839845V.57421877L.54345706 .00048828127Z"/>
<path id="font_8_4" d="M.0859375 0H.21142578V.70458987H.0859375V0Z"/>
<path id="font_8_5" d="M.0859375 0H.53466799V.10595703H.21142578V.70458987H.0859375V0Z"/>
<path id="font_8_1" d="M0 0Z"/>
<path id="font_8_10" d="M.076171878 .22949219H.4013672V.33984376H.076171878V.22949219Z"/>
<path id="font_4_26" d="M.043670656 .5546875H.12567139L.13265991 .50234988C.15064495 .521698 .16996257 .5372111 .1906128 .54888918 .21126302 .5605672 .23191326 .56640627 .25256349 .56640627 .27654014 .56640627 .29651896 .56039938 .3125 .5483856 .3284912 .5363719 .34014894 .5206909 .34747315 .5013428 .36413575 .5200297 .3826345 .5355428 .40296937 .5478821 .42330424 .5602315 .44380189 .56640627 .46446229 .56640627 .49712626 .56640627 .5234578 .55606588 .54345706 .53538516 .56345626 .5147044 .5744527 .48635356 .57644656 .45033265 .58044436 .37760926 .5822754 .3033854 .5819397 .22766114 .5816142 .15194702 .5791168 .076059978 .57444766 0H.4814453C.4841105 .048024496 .48594157 .09688314 .48693849 .14657593 .48794557 .19626872 .4884491 .2446289 .4884491 .2916565 .4884491 .33868409 .4874471 .38087464 .48544313 .41822816 .4847819 .4395803 .48111473 .4567566 .47444154 .46975709 .46777854 .48275758 .4547831 .4892578 .43545533 .4892578 .42144776 .4892578 .40760804 .48392234 .39393617 .47325135 .38027445 .46259056 .3677775 .45025126 .3564453 .43623353V0H.26367188V.42222596C.26367188 .46691386 .24746196 .4892578 .21504212 .4892578 .18792217 .4892578 .16079712 .47024537 .13366699 .43222047 .1303304 .3648478 .12965901 .29430644 .13165283 .22059632 .13365682 .14689636 .1363271 .07336426 .1396637 0H.046661378C.041992189 .082102458 .039159139 .17071025 .03816223 .26582337 .037165326 .36094667 .039001466 .4572347 .043670656 .5546875Z"/>
<path id="font_4_25" d="M.09277344 .7504883H.3095703V.1769104C.3095703 .16357422 .31123863 .15006511 .3145752 .13638306 .31792198 .12270101 .3254293 .1115214 .33709718 .10284424 .34877525 .094177249 .3666331 .08984375 .39067079 .08984375H.50878909V0H.34184266C.3052012 0 .2775472 .008504231 .25888063 .025512696 .2402242 .04253133 .22773235 .06454468 .22140503 .091552738 .21507772 .11857096 .21191406 .14708965 .21191406 .17710877V.67240908L.09277344 .69343569V.7504883Z"/>
<path id="font_4_20" d="M.50390627 .13150025C.50390627 .094807948 .5250651 .07546488 .5673828 .07347107V-.007598877C.54085287-.008931478 .5181325-.007425944 .4992218-.0030822755 .48031108 .0012512207 .46455384 .008422852 .45195008 .018432618 .43326316 .008422852 .4125773 .00008138021 .38989259-.006591797 .36720786-.013264974 .34318543-.016601563 .31782533-.016601563 .2717743-.016601563 .22906494-.0044301354 .18969727 .01991272 .15032959 .044255575 .11879984 .07826742 .09510803 .12194824 .07141622 .16562908 .059570314 .21614075 .059570314 .27348329 .059570314 .33484397 .070246379 .3866984 .09159851 .42904664 .112960819 .47139488 .14133199 .50357058 .17671204 .52557376 .21209209 .5475871 .25047813 .55859377 .29187013 .55859377 .31521607 .55859377 .33673606 .5547638 .35643006 .5471039 .37612406 .53944399 .39364625 .5289561 .40899659 .51564028V.75097659H.50390627V.13150025M.15457154 .2735901C.15457154 .23289998 .16174825 .19720967 .17610169 .16651917 .19046529 .13583882 .21000164 .11215719 .2347107 .09547424 .25941978 .078801479 .28712974 .07046509 .31784059 .07046509 .35324098 .07046509 .3836263 .075800579 .40899659 .08647156V.42868043C.39764405 .44135539 .38328553 .45152793 .36592103 .459198 .34855653 .46686808 .33052574 .47070313 .3118286 .47070313 .2577413 .47070313 .2180074 .45319114 .19262696 .4181671 .16725667 .3831533 .15457154 .33496095 .15457154 .2735901Z"/>
<path id="font_4_27" d="M.08691406 .5546875H.1726532L.18162537 .48770143C.21092224 .5099996 .2438863 .5286916 .28051759 .54377749 .31714884 .55886337 .3524424 .56640627 .38639833 .56640627 .41171775 .56640627 .43536378 .56023666 .45733644 .54789736 .47931925 .53555807 .4969686 .51554366 .5102844 .487854 .5236104 .4601644 .53027346 .42330424 .53027346 .37727357V0H.43164063V.36154176C.43164063 .40026856 .42514039 .42814128 .4121399 .4451599 .3991394 .46218873 .37930299 .47070313 .35263063 .47070313 .32929484 .47070313 .30379234 .464859 .27612306 .45317079 .24845378 .4414927 .21728516 .42196656 .18261719 .3945923V0H.08691406V.5546875Z"/>
<clipPath id="clip_9">
<path transform="matrix(1,0,0,-1,0,566.9291)" d="M111.2664 305.1079H216.7635V337.63166H111.2664Z"/>
</clipPath>
<clipPath id="clip_10">
<path transform="matrix(1,0,0,-1,0,566.9291)" d="M112.7414 306.5829H215.2885V336.15666H112.7414Z"/>
</clipPath>
<path id="font_4_15" d="M.3100586-.015625C.26072184-.015625 .21888225-.006123861 .1845398 .012878418 .15020752 .031880697 .12237549 .058385213 .1010437 .09239197 .079711917 .12639873 .064208988 .16574097 .054534913 .2104187 .044871015 .2551066 .040039064 .30345155 .040039064 .3554535 .040039064 .4074758 .044871015 .4558258 .054534913 .50050356 .064208988 .5451813 .079711917 .5845235 .1010437 .6185303 .12237549 .65253707 .15020752 .67904159 .1845398 .6980438 .21888225 .7170563 .26072184 .7265625 .3100586 .7265625 .36005656 .7265625 .40222679 .7170563 .4365692 .6980438 .47091166 .67904159 .49858094 .65253707 .519577 .6185303 .5405731 .5845235 .55590316 .5451813 .565567 .50050356 .5752411 .4558258 .5800781 .4074758 .5800781 .3554535 .5800781 .30345155 .5752411 .2551066 .565567 .2104187 .55590316 .16574097 .5405731 .12639873 .519577 .09239197 .49858094 .058385213 .47091166 .031880697 .4365692 .012878418 .40222679-.006123861 .36005656-.015625 .3100586-.015625M.31004334 .07324219C.3447927 .07324219 .37335716 .08074442 .3957367 .0957489 .41812644 .11076355 .4355011 .13144939 .44786073 .1578064 .4602305 .1841634 .46891786 .21435547 .47392274 .24838257 .47893778 .28240968 .4814453 .31809999 .4814453 .3554535 .4814453 .39282737 .47893778 .42836 .47392274 .4620514 .46891786 .4957428 .4602305 .525767 .44786073 .552124 .4355011 .578481 .41812644 .59932968 .3957367 .6146698 .37335716 .63002017 .3447927 .6376953 .31004334 .6376953 .27530418 .6376953 .24690755 .63002017 .22485352 .6146698 .20280965 .59932968 .18544007 .578481 .17274475 .552124 .16004944 .525767 .15119426 .4957428 .1461792 .4620514 .14117432 .42836 .13867188 .39282737 .13867188 .3554535 .13867188 .31809999 .14117432 .28240968 .1461792 .24838257 .15119426 .21435547 .16004944 .1841634 .17274475 .1578064 .18544007 .13144939 .20280965 .11076355 .22485352 .0957489 .24690755 .08074442 .27530418 .07324219 .31004334 .07324219Z"/>
<path id="font_4_17" d="M.05001831 .092315677 .11302185 .16027832C.14172872 .13358562 .17460124 .11273193 .2116394 .097717288 .24868775 .08270264 .28623963 .07519531 .32429505 .07519531 .37168885 .07519531 .40940348 .08469645 .43743897 .10369873 .46547447 .12271118 .4794922 .14856465 .4794922 .18125916 .4794922 .20192974 .4721527 .21959941 .45747376 .23426819 .4427948 .24894715 .4236094 .26212565 .3999176 .2738037 .37623597 .28548179 .35004679 .29665629 .3213501 .30732728 .29266358 .31799827 .26397196 .32967124 .23527527 .3423462 .20658875 .35502116 .18039958 .36969505 .15670777 .3863678 .13302613 .40304057 .113845828 .42288209 .09916687 .44589234 .084487918 .46891276 .07714844 .49676515 .07714844 .52944949 .07714844 .5614624 .08464559 .58980819 .09963989 .6144867 .11464437 .6391754 .13431804 .65985617 .15866089 .67652896 .18300374 .6932017 .20950826 .7057088 .23817444 .7140503 .2668406 .7223918 .2945048 .7265625 .321167 .7265625 .3665161 .7265625 .40985618 .7177429 .45118714 .70010378 .4925283 .6824646 .5278676 .65733847 .5572052 .62472537L.49145509 .5636749C.46406047 .5903676 .4371694 .6090495 .41078187 .61972048 .3844045 .6304016 .35451255 .6357422 .32110597 .6357422 .2990519 .6357422 .2768351 .6315715 .25445558 .62323 .232076 .6148885 .21320598 .6028798 .19784546 .587204 .18248494 .57153829 .17480469 .55302938 .17480469 .53167727 .17480469 .51032516 .18213909 .49197898 .19680786 .4766388 .21148682 .4612986 .23083496 .44762168 .2548523 .4356079 .2788798 .42360435 .30523683 .41193644 .33392335 .40060426 .36262004 .38927207 .3911438 .3772634 .41949464 .36457826 .44785563 .3519033 .4740448 .33739726 .49806214 .32106019 .52207949 .3047231 .5414276 .2852122 .55610659 .26252748 .5707855 .23984273 .578125 .21282959 .578125 .18148804 .578125 .12212118 .5562846 .074427288 .51260378 .038406373 .4689331 .0023854573 .40608726-.015625 .32406617-.015625 .27072145-.015625 .22004192-.005299886 .17202759 .015350342 .12402344 .036010744 .083353679 .06166585 .05001831 .092315677Z"/>
<path id="font_4_18" d="M.2607422-.00048828127V.6220703H.049804689V.70996096H.56933596V.6220703H.35839845V-.00048828127H.2607422Z"/>
<clipPath id="clip_11">
<path transform="matrix(1,0,0,-1,0,566.9291)" d="M111.2664 267.2027H216.7635V299.72645H111.2664Z"/>
</clipPath>
<clipPath id="clip_12">
<path transform="matrix(1,0,0,-1,0,566.9291)" d="M112.7414 268.6777H215.2885V298.25148H112.7414Z"/>
</clipPath>
<path id="font_4_13" d="M.31913758 .3408203H.5751953V.0642395C.54051718 .035614015 .5055084 .015146892 .47016908 .0028381348 .4348297-.009470622 .3934835-.015625 .34613038-.015625 .28211466-.015625 .2272644-.0009460449 .18157959 .028411866 .13590496 .057769777 .1008962 .0999705 .076553348 .15501404 .05221049 .21006775 .040039064 .2759603 .040039064 .35269166 .040039064 .47014366 .06588236 .56189987 .11756897 .6279602 .16926575 .69402059 .24546814 .7270508 .34617616 .7270508 .38953147 .7270508 .42871604 .7215474 .46372987 .7105408 .49875389 .69954428 .52826949 .68536886 .5522766 .6680145L.50743106 .5969696C.48337303 .6143138 .45664979 .6258189 .42726136 .631485 .39787293 .63716128 .37149049 .6396637 .348114 .6389923 .27463786 .6376597 .22119649 .61162826 .18778992 .5608978 .15439351 .5101776 .13769531 .44075013 .13769531 .35261537 .13769531 .26583354 .15623982 .19773865 .19332886 .14833069 .23041789 .09892273 .28137718 .07421875 .34620667 .07421875 .3956655 .07421875 .43944297 .08493042 .47753907 .10635376V.2529297H.31913758V.3408203Z"/>
<path id="font_4_12" d="M.54541018 .087890628V0H.09046936L.09246826 .70996096H.53759768V.6220703H.18946839V.4140625H.5136719V.32617188H.18847656V.087890628H.54541018Z"/>
<clipPath id="clip_13">
<path transform="matrix(1,0,0,-1,0,566.9291)" d="M111.2664 229.6616H215.4234V261.82124H111.2664Z"/>
</clipPath>
<clipPath id="clip_14">
<path transform="matrix(1,0,0,-1,0,566.9291)" d="M112.7414 231.1366H213.9484V260.3462H112.7414Z"/>
</clipPath>
<clipPath id="clip_15">
<path transform="matrix(1,0,0,-1,0,566.9291)" d="M214.6532 317.3367H371.22059V326.3047H214.6532Z"/>
</clipPath>
<clipPath id="clip_16">
<path transform="matrix(1,0,0,-1,0,566.9291)" d="M111.9364 189.5202H216.0934V222.04395H111.9364Z"/>
</clipPath>
<clipPath id="clip_17">
<path transform="matrix(1,0,0,-1,0,566.9291)" d="M113.4114 190.9952H214.61841V220.56894H113.4114Z"/>
</clipPath>
<path id="font_4_11" d="M.06347656 .70996096H.26635743C.30698649 .70996096 .34578959 .704127 .38276673 .6924591 .41975404 .6808014 .4529012 .66197207 .48220826 .63597109 .51152548 .6099701 .53467819 .5758006 .55166628 .5334625 .56865438 .49113465 .57714846 .438975 .57714846 .37698365 .57714846 .2983195 .56465658 .2308197 .53967288 .17448426 .51468917 .118158977 .47854615 .07499695 .4312439 .04499817 .38394166 .01499939 .3269755 0 .26034547 0H.06347656V.70996096M.26626588 .6220703H.16113281V.087890628H.26023866C.30362449 .087890628 .3394979 .09639486 .3678589 .11340332 .39623008 .13041179 .41858927 .15308635 .43493653 .181427 .45128379 .20976766 .46279399 .24094136 .46946717 .27494813 .4761505 .30896507 .4794922 .3429769 .4794922 .37698365 .4794922 .4563497 .46013896 .517039 .4214325 .5590515 .38272605 .601064 .33100382 .6220703 .26626588 .6220703Z"/>
<path id="font_4_14" d="M.5385742 .087890628V0H.10058594V.7104492H.19824219V.087890628H.5385742Z"/>
<clipPath id="clip_18">
<path transform="matrix(1,0,0,-1,0,566.9291)" d="M86.56474 125.34H480.36433V157.86374H86.56474Z"/>
</clipPath>
<clipPath id="clip_19">
<path transform="matrix(1,0,0,-1,0,566.9291)" d="M87.15474 125.93H479.77436V157.27375H87.15474Z"/>
</clipPath>
<clipPath id="clip_20">
<path transform="matrix(1,0,0,-1,0,566.9291)" d="M246.4637 323.3207H339.40995V347.566H246.4637Z"/>
</clipPath>
<clipPath id="clip_21">
<path transform="matrix(1,0,0,-1,0,566.9291)" d="M247.0537 323.9107H338.81996V346.976H247.0537Z"/>
</clipPath>
<path id="font_4_10" d="M.34095765-.015625C.2769928-.015625 .2221934-.00095621749 .17655945 .028381348 .13092549 .057718915 .095947269 .0998942 .071624759 .15490723 .04731242 .20992024 .03515625 .2757721 .03515625 .35246278 .03515625 .4698232 .060302736 .56151327 .1105957 .62753298 .16089885 .6935527 .23101807 .7265625 .32095338 .7265625 .38291423 .7265625 .43354798 .7135671 .4728546 .6875763 .51216128 .66159567 .5441386 .6209564 .5687866 .56565859L.48779298 .5256195C.46912638 .56232199 .4467926 .5900116 .42079164 .60868838 .39479066 .6273753 .36212159 .63671877 .32278443 .63671877 .2634481 .63671877 .21711223 .6116994 .18377686 .56166079 .15045166 .51162216 .13378906 .44188944 .13378906 .35246278 .13378906 .26506043 .15211995 .1968333 .18878174 .14778137 .22545369 .098739627 .27612306 .07421875 .3407898 .07421875 .37679038 .07421875 .40912376 .07955424 .43778993 .09022522 .4664561 .10090637 .49512229 .11859131 .52378848 .14328003L.58078 .07022095C.5447998 .039601644 .5083211 .01763916 .471344 .004333496 .43437705-.008972168 .39091493-.015625 .34095765-.015625Z"/>
<clipPath id="clip_22">
<path transform="matrix(1,0,0,-1,0,566.9291)" d="M375.8329 271.3649H451.87617V371.3747H375.8329Z"/>
</clipPath>
<clipPath id="clip_23">
<path transform="matrix(1,0,0,-1,0,566.9291)" d="M376.4229 271.9549H451.2862V370.78468H376.4229Z"/>
</clipPath>
<path id="font_8_8" d="M.3305664-.016601563C.3868815-.016601563 .43562828-.007563273 .47680665 .010513306 .51798507 .028600058 .5497233 .05425517 .5720215 .08747864 .59431967 .12071228 .60546877 .16013082 .60546877 .20573426V.20622254C.60546877 .24206035 .5982259 .2727661 .58374026 .29833985 .5692546 .32391358 .5465495 .34533183 .515625 .3625946 .48470054 .37986756 .4444987 .39371238 .39501954 .40412904L.31933595 .42025758C.29003907 .42645265 .26627604 .43410746 .24804688 .44322206 .2298177 .4523468 .21647136 .46326194 .20800781 .4759674 .19954427 .48867289 .1953125 .50316879 .1953125 .51945498V.51994326C.1953125 .5401459 .2010905 .5574951 .21264649 .57199099 .22420247 .5864868 .23999024 .597641 .26000978 .6054535 .2800293 .6132762 .3030599 .6171875 .32910157 .6171875 .35611979 .6171875 .37972007 .6131337 .39990235 .60502627 .42008464 .5969289 .4362793 .585907 .44848634 .57196047 .46069337 .5580241 .46826173 .5418193 .4711914 .52334597L.47216798 .5174866H.59228518L.5917969 .5238342C.5891927 .5619405 .57698568 .5959727 .5551758 .6259308 .5333659 .65588888 .50341799 .6794993 .46533204 .6967621 .4272461 .71402487 .38216148 .72265627 .33007813 .72265627 .27929688 .72265627 .23429363 .7138621 .19506836 .6962738 .1558431 .6786855 .12508138 .6540883 .1027832 .6224823 .08048502 .5908864 .06933594 .55407717 .06933594 .51205447V.51156619C.06933594 .47670494 .07657877 .44591777 .09106445 .4192047 .10555013 .39249168 .12801107 .369929 .15844727 .35151673 .18888347 .33311463 .22802735 .31886292 .2758789 .3087616L.3515625 .29312135C.3971354 .2833557 .42985026 .2704061 .44970704 .25427247 .4695638 .238149 .4794922 .21738179 .4794922 .19197083V.19148255C.4794922 .17129009 .47330729 .15345256 .4609375 .13796997 .44856773 .12249756 .43147788 .110443118 .40966798 .10180664 .38785807 .093180339 .36279298 .08886719 .33447267 .08886719 .30485026 .08886719 .27848307 .092936199 .2553711 .10107422 .23225911 .10922241 .21386719 .12062582 .20019531 .13528443 .18652344 .1499532 .17854817 .16722615 .17626953 .18710327L.17578125 .19198609H.053222658L.053710939 .18515015C.056966146 .14476522 .07014974 .109425868 .09326172 .07913208 .116373699 .04884847 .1480306 .025319418 .18823242 .008544922 .22843425-.008219401 .2758789-.016601563 .3305664-.016601563Z"/>
<path id="font_8_3" d="M.0859375 0H.5415039V.10595703H.21142578V.3076172H.5234375V.40771485H.21142578V.5986328H.5415039V.70458987H.0859375V0Z"/>
<path id="font_8_7" d="M.0859375 .00048828127H.21142578V.265625H.34521485C.3461914 .265625 .34724937 .265625 .34838868 .265625 .34952799 .265625 .35058595 .265625 .3515625 .265625L.4897461 .00048828127H.6333008L.4794922 .28466798C.5211589 .29996745 .55371096 .3256022 .57714846 .36157228 .60058596 .39754234 .6123047 .4388021 .6123047 .48535157V.48632813C.6123047 .53125 .6026204 .569987 .58325198 .60253909 .5638835 .6350911 .5361328 .66031906 .5 .67822268 .4638672 .6961263 .4205729 .7050781 .3701172 .7050781H.0859375V.00048828127M.21142578 .36279298V.6035156H.3544922C.39453126 .6035156 .4260254 .59277346 .4489746 .57128909 .47192384 .5498047 .48339845 .5205078 .48339845 .48339845V.48242188C.48339845 .44466148 .47233073 .4152832 .4501953 .3942871 .4280599 .37329103 .3971354 .36279298 .35742188 .36279298H.21142578Z"/>
<path id="font_8_9" d="M.27734376 0H.4243164L.66845706 .70458987H.52978518L.35498048 .14501953H.3466797L.17236328 .70458987H.033691408L.27734376 0Z"/>
<clipPath id="clip_24">
<path transform="matrix(1,0,0,-1,0,566.9291)" d="M237.9166 255.333H419.0385V272.561H237.9166Z"/>
</clipPath>
<clipPath id="clip_25">
<path transform="matrix(1,0,0,-1,0,566.9291)" d="M435.3191 221.699H241.6207V230.667H435.3191Z"/>
</clipPath>
<clipPath id="clip_26">
<path transform="matrix(1,0,0,-1,0,566.9291)" d="M80.21349 90.82026H486.7156V476.10887H80.21349Z"/>
</clipPath>
<clipPath id="clip_27">
<path transform="matrix(1,0,0,-1,0,566.9291)" d="M432.4235 225.0579V274.6406H435.3735V225.0579Z"/>
</clipPath>
<clipPath id="clip_28">
<path transform="matrix(1,0,0,-1,0,566.9291)" d="M80.21349 90.82026H486.7156V476.10887H80.21349Z"/>
</clipPath>
</defs>
<g clip-path="url(#clip_0)">
<path transform="matrix(1,0,0,-1,0,566.9291)" d="M146.8451 474.6339H420.084C439.2042 474.6339 450.6763 474.6339 458.3244 471.4409 469.3497 467.428 478.0348 458.7429 482.0477 447.7176 485.2406 440.0695 485.2406 428.5974 485.2406 409.4773V157.4519C485.2406 138.3317 485.2406 126.8596 482.0477 119.2115 478.0348 108.1862 469.3497 99.50112 458.3244 95.48822 450.6763 92.29526 439.2042 92.29526 420.084 92.29526H146.8451C127.7249 92.29526 116.2528 92.29526 108.6048 95.48822 97.57944 99.50112 88.89435 108.1862 84.88146 119.2115 81.68849 126.8596 81.68849 138.3317 81.68849 157.4519V409.4773C81.68849 428.5974 81.68849 440.0695 84.88146 447.7176 88.89435 458.7429 97.57944 467.428 108.6048 471.4409 116.2528 474.6339 127.7249 474.6339 146.8451 474.6339ZM146.8451 474.6339" fill="#bfbfbf"/>
<path transform="matrix(1,0,0,-1,0,566.9291)" d="M81.30929 391.0972C81.29787 394.1738 81.29332 407.4164 81.3173 407.5502 81.31273 402.6009 81.3287 392.0336 81.30929 391.0972ZM81.29784 364.4783C81.28186 369.2938 81.29215 379.8611 81.307 383.2052 81.30128 377.5871 81.31726 366.2172 81.29784 364.4783ZM81.3664 405.2762C81.36783 407.0485 81.36683 409.138 81.36795 412.3826 81.36908 415.6273 81.37567 418.8043 81.40577 421.6048 81.46598 427.2058 81.66104 431.273 81.76963 432.8303 81.54838 429.39 81.41538 423.8872 81.38841 417.9185 81.38166 416.4263 81.37891 414.9175 81.37747 413.445 81.37604 411.9724 81.37588 410.1868 81.37522 409.2912 81.3739 407.5 81.37125 406.0788 81.3664 405.2762ZM161.3851 91.57234C159.8468 91.56663 155.767 91.56263 152.0718 91.56307 150.2242 91.56328 148.4727 91.5646 147.1831 91.56737 145.8936 91.57014 144.2494 91.57466 144.2494 91.58066 147.6978 91.5771 151.3193 91.58091 154.6802 91.58191 158.041 91.5829 160.9169 91.58204 161.3851 91.57234ZM91.27465 106.8303C89.70724 108.6831 87.44944 111.8706 85.82645 115.239 85.01496 116.9232 84.33485 118.7253 83.96973 119.6934 83.60461 120.6614 83.34654 121.5295 83.18793 122.1055 83.32339 121.6222 83.48535 121.0899 83.67472 120.5363 83.86409 119.9827 83.99594 119.702 84.33267 118.7921 85.00612 116.9724 85.85861 115.1069 86.77646 113.4291 88.61217 110.0737 90.71844 107.5076 91.27465 106.8303ZM81.05921 144.6143C81.02172 147.6552 81.01426 151.0138 81.01319 154.4037 81.01266 156.0986 81.01343 157.6967 81.01394 158.7783 81.01446 159.8599 81.01508 160.8735 81.01587 161.7932 81.01901 165.4717 81.02472 167.6453 81.03614 166.6421 81.03129 165.8395 81.029 164.3347 81.02788 162.5121 81.02675 160.6896 81.02651 159.0358 81.02662 156.0163 81.02684 149.9773 81.06479 145.2632 81.05921 144.6143ZM82.32447 396.7153C82.31533 386.0142 82.33359 378.2559 82.33244 371.0327 82.32784 334.7828 82.2845 389.6258 82.32447 396.7153ZM81.08644 223.6253C81.08644 216.4021 81.08186 210.6503 81.0693 207.1724 81.07045 213.8606 81.06132 223.2241 81.08644 223.6253ZM81.11049 285.8254C81.09678 287.4305 81.10367 324.3493 81.12196 344.8151 81.12537 327.4258 81.12419 284.2202 81.11049 285.8254ZM82.33352 310.1703C82.31523 286.2267 82.31747 247.9703 82.30718 230.581 82.29688 213.3256 82.28551 261.3466 82.29013 305.4886 82.29588 349.7643 82.34038 313.2469 82.34953 331.305 82.35983 349.2293 82.37121 314.0495 82.35863 296.1252 82.34605 278.3346 82.35065 308.0301 82.33352 310.1703ZM82.41803 311.2404C82.41689 319.9351 82.42147 327.4258 82.43404 332.3751 82.44202 323.4129 82.44886 314.852 82.41803 311.2404ZM152.0619 474.5071C155.0047 474.7446 175.8718 474.9387 198.7453 475.078 204.4396 475.1092 210.134 475.1405 216.0008 475.1727 257.8688 475.2766 300.0043 475.3302 342.1398 475.3565 350.4826 475.3606 358.8255 475.3647 367.4211 475.369 380.3293 475.3776 393.2709 475.3835 406.246 475.3879 409.4897 475.389 412.7356 475.3901 415.9835 475.391 417.6075 475.3914 418.847 475.392 421.2236 475.3923 423.6002 475.3925 425.8575 475.3918 428.0032 475.3835 436.586 475.3504 443.3812 475.2003 448.9024 474.5043 452.5651 474.0423 455.6695 473.3417 458.3718 472.2488 459.0474 471.9756 460.304 471.5073 461.3281 471.0475 462.3523 470.5877 463.3557 470.0859 464.3365 469.5434 466.2982 468.4584 468.1696 467.2105 469.9331 465.8081 473.0315 463.3487 475.7402 460.4573 477.9831 457.2333 479.1045 455.6212 480.1095 453.9259 480.9886 452.159 481.8676 450.3921 482.6448 448.3911 483.1032 447.1705 484.9366 442.2885 485.5989 436.0976 485.8572 427.7811 485.9863 423.6229 486.0108 418.9311 486.0149 413.5989 486.0159 412.2659 486.0156 410.8928 486.0153 409.4779 486.0151 408.7705 486.015 408.5255 486.0148 408.0494 486.0147 407.5733 486.0145 407.0972 486.0144 406.6211 486.0138 404.7165 486.0133 402.8114 486.0128 400.9053 486.0107 393.2808 486.0094 385.6395 486.0102 377.9481 486.0113 362.5653 486.0216 346.915 486.0536 330.8634 486.0707 322.8376 486.0649 288.4604 486.0444 276.2879 486.0946 288.0591 486.074 231.6109 486.0729 234.1524 486.0546 227.8655 486.0432 221.3111 486.0386 214.7567 486.0329 208.2023 486.0249 216.4956 486.0192 224.7889 486.0089 217.4319 486.0043 210.0749 486.0032 202.5842 486.0047 194.7269 486.0062 186.8697 486.0077 178.7743 486.0129 172.1864 486.0157 165.4732 486.0167 158.7265 486.017 157.0398 486.0181 154.3552 486.0141 152.0358 486.0101 149.7163 486.0006 147.5204 485.9783 145.4411 485.9337 141.2823 485.8379 137.5902 485.634 134.2979 485.4301 131.0056 485.118 128.1127 484.6434 125.5455 484.4061 124.2619 484.1283 123.0597 483.8034 121.93 483.641 121.3652 483.4668 120.8184 483.2802 120.2889 483.0935 119.7593 482.9619 119.4743 482.6683 118.6864 480.3198 112.3834 476.5225 107.0093 471.9476 102.8594 468.8256 100.0215 464.8989 97.34635 460.1328 95.38608 457.7498 94.40594 456.4397 93.94227 454.5301 93.46238 452.6205 92.9825 450.4681 92.61088 448.0053 92.33247 443.0795 91.77564 436.9151 91.60173 428.8742 91.56089 426.8639 91.55068 424.7361 91.54798 422.4802 91.54735 420.2244 91.54672 418.5709 91.54725 416.9777 91.54734 413.7914 91.5475 410.5624 91.54768 407.3009 91.54788 381.2086 91.54946 353.0347 91.55209 327.9875 91.55518 277.8931 91.56137 240.3055 91.5694 256.8922 91.57452 294.346 91.58819 275.084 91.60762 265.0518 91.61106 259.1662 91.61221 251.2741 91.6145 242.4457 91.61679 242.7133 91.60765 243.3821 91.59966 244.7197 91.59509 227.9993 91.58826 204.4569 91.55973 181.4496 91.58602 185.73 91.59058 191.2143 91.59058 193.2208 91.60314 181.5833 91.60201 190.813 91.62826 183.1885 91.63626 161.9201 91.64313 151.7541 91.65 176.3666 91.64769 170.6482 91.6534 165.4481 91.66005 160.5114 91.66731 158.0431 91.67095 155.6405 91.67474 153.272 91.67864 152.0877 91.6806 150.9119 91.68258 149.7406 91.68459 148.5694 91.6866 147.6577 91.68857 145.9463 91.6907 132.2547 91.7077 122.1944 91.53869 113.8163 93.33465 110.6417 94.00641 110.1599 94.31106 110.4349 94.22073 110.7099 94.13041 111.9259 93.7649 112.8369 93.54037 111.4918 93.8606 110.0244 94.29045 108.564 94.88502 107.8338 95.1823 106.36 95.73515 105.1767 96.28575 103.9933 96.83634 102.8062 97.45924 101.6351 98.1535 96.95058 100.9306 92.58735 104.9296 89.40342 109.3874 87.81146 111.6163 86.50067 113.9431 85.47716 116.2081 84.96541 117.3406 84.48325 118.6341 84.2088 119.319 83.93436 120.0039 83.69925 120.68 83.49644 121.3315 82.6852 123.9373 82.36101 126.1458 82.25597 126.787 82.20317 127.1075 82.32407 126.1421 82.6835 124.4387 82.86321 123.587 83.10728 122.5595 83.44823 121.4446 83.78918 120.3296 84.16923 119.263 84.98687 117.2983 88.25746 109.4395 95.82028 100.3864 105.8877 95.93537 107.1461 95.37899 108.3874 94.91141 109.2235 94.59792 110.0596 94.28442 110.9282 94.00846 111.8257 93.76521 113.6207 93.27872 115.5334 92.92294 117.5089 92.65611 121.46 92.12247 125.6958 91.9326 129.3355 91.83071 132.9751 91.72883 135.9693 91.71642 137.2375 91.70705 138.5058 91.69767 137.9763 91.69341 135.32 91.71686 131.0037 91.75502 125.0806 91.87372 120.4235 92.31022 115.7664 92.74672 112.2393 93.57596 110.426 94.15509 114.4471 92.85843 119.9587 92.18296 126.4593 91.90646 132.9598 91.62996 140.4798 91.66441 146.1921 91.65914 139.9873 91.657 133.4668 91.656 128.2173 91.82697 122.9678 91.99793 118.9096 92.37945 116.2776 92.78867 122.8294 91.76138 129.278 91.77111 132.0949 91.71208 125.1305 91.83485 120.2554 92.11848 115.888 92.83547 113.7042 93.19396 111.6747 93.66407 109.7267 94.34741 107.7787 95.03074 104.471 96.34538 101.3902 98.19775 98.66001 99.84342 99.84805 99.18069 100.2336 98.93564 100.6192 98.6906 99.88498 98.50548 94.92237 103.0554 94.03334 103.879 95.63311 102.332 97.556 100.8505 99.4789 99.36901 101.7546 98.01472 101.409 98.22907 96.70628 101.0597 90.56875 106.6605 86.92318 113.2384 86.01179 114.8829 85.23453 116.5619 84.59791 118.2035 83.9613 119.8452 83.69985 120.5321 83.40052 121.5211 82.80186 123.499 82.47473 125.3011 82.29938 126.3576 81.95863 128.4181 82.30825 125.6944 83.02721 122.8866 83.38669 121.4827 83.86114 120.0762 84.29014 119.0414 84.50463 118.524 84.84662 117.5934 85.05817 117.0944 85.26973 116.5953 85.41049 116.2887 85.43244 116.2424 84.8839 117.4616 84.38241 118.7915 84.06512 119.6163 83.74782 120.4412 83.46379 121.3088 83.20995 122.223 82.70226 124.0512 82.31541 126.0656 82.02144 128.297 81.43351 132.7599 81.21676 138.1008 81.13574 144.5013 81.09523 147.7016 81.08855 151.1648 81.08763 154.8985 81.0867 158.6322 81.08813 160.8886 81.08852 163.4352 81.08931 168.5284 81.09007 173.4849 81.09082 178.2294 81.09384 197.207 81.09671 212.7905 81.10014 220.1475 81.10587 234.9952 81.10585 221.0838 81.11156 214.7969 81.12071 232.0524 81.12072 245.0275 81.12417 265.4933 81.12761 278.6021 81.13103 273.3854 81.13673 268.4361 81.13902 271.914 81.14131 274.9905 81.14359 276.997 81.14588 278.4684 81.14817 282.2138 81.15274 284.7553 81.1573 276.7295 81.15271 261.7479 81.1607 255.1935 81.1767 267.2322 81.16074 295.8576 81.18016 306.2912 81.19271 289.7045 81.18927 271.914 81.19724 253.3208 81.2087 289.5707 81.1562 326.757 81.20077 355.9174 81.20419 350.7007 81.21903 348.4267 81.22702 344.1463 81.21447 355.2486 81.19736 371.7015 81.22706 381.6 81.23049 387.0843 81.24078 397.9192 81.24536 408.754 81.25219 389.7596 81.25675 377.0521 81.2476 363.8095 81.25216 364.077 81.25673 365.2809 81.26016 367.5549 81.29553 337.8594 81.22928 320.8714 81.21784 299.7368 81.21935 298.1035 81.22085 296.4703 81.2224 294.7875 81.24524 287.9656 81.23727 312.043 81.25326 314.4508 81.26122 283.1501 81.2452 249.0404 81.26916 233.6576 81.27719 270.8439 81.26695 303.6159 81.28982 331.5725 81.31493 324.3493 81.29777 296.2589 81.31261 282.8826 81.33665 343.745 81.3378 349.8981 81.34237 354.8473 81.34462 350.1683 81.34688 345.4892 81.34921 340.6684 81.35373 341.8602 81.35825 343.0521 81.36291 344.28 81.36522 371.0327 81.36411 402.4671 81.3721 400.862 81.37781 399.6581 81.38236 375.1794 81.38233 349.363 81.39288 352.0557 81.40344 354.7484 81.41431 357.5226 81.41661 372.6379 81.42862 388.7564 81.43791 404.8749 81.43907 406.8897 81.43966 408.6827 81.44141 411.5856 81.44316 414.4886 81.44778 417.2053 81.46734 419.7493 81.50646 424.8374 81.60597 429.2344 81.85731 433.0602 82.10865 436.886 82.51216 440.1416 83.14784 442.9532 83.46568 444.3591 83.84137 445.654 84.28335 446.8531 84.72532 448.0523 85.46256 449.961 86.29913 451.6757 85.21245 449.4255 85.049 448.822 85.36715 449.5716 85.6853 450.3212 86.55086 452.3976 88.20924 455.0756 86.96395 453.0483 85.76437 450.681 84.78643 448.0445 84.29745 446.7262 84.09333 446.248 83.80562 445.297 83.51792 444.3461 83.26262 443.3302 83.03934 442.251 82.1462 437.9345 81.78649 432.4872 81.63878 426.852 81.7506 430.7074 82.18644 436.5739 82.40989 438.2545 82.14317 436.1237 81.9022 433.119 81.77069 430.0574 81.63917 426.9959 81.59677 423.8941 81.58534 422.3566 81.6987 431.0145 82.0503 437.8813 83.31581 443.2473 83.63218 444.5887 84.00611 445.8389 84.44837 447.0065 84.89064 448.174 85.66486 450.1665 86.51484 451.8747 88.21481 455.2912 90.3895 458.4257 92.94062 461.1821 93.98708 462.2968 92.84803 461.1308 91.62246 459.6633 90.39689 458.1958 89.15136 456.378 89.38428 456.7035 93.43229 462.5802 100.124 468.2821 107.7962 471.2542 109.7142 471.9972 110.5311 472.2989 111.8508 472.6605 113.1704 473.0221 114.5478 473.3088 115.9493 473.5389 118.7523 473.9992 121.6645 474.2365 124.2372 474.3792 121.2693 474.2043 117.9447 473.9087 114.9015 473.3359 111.8582 472.763 109.498 472.0772 105.686 470.3406 98.06195 466.8673 92.71135 461.1125 90.50374 458.1951 93.37669 461.967 96.89688 465.217 101.0523 467.8161 105.1798 470.4045 108.6593 471.5359 109.2864 471.7722 109.5999 471.8903 109.5097 471.8614 108.9353 471.6304 108.3608 471.3994 106.5327 470.7747 104.0845 469.52 98.83001 466.8262 99.16547 466.5608 100.3924 467.3628 101.7873 468.2733 104.1205 469.6603 107.0274 470.8573 109.9344 472.0543 111.6505 472.5995 114.0673 473.1012 118.901 474.1045 124.5718 474.3104 124.2432 474.2755 121.3433 474.1085 114.8522 473.6104 110.2177 472.0366 107.9005 471.2496 104.2234 469.6595 101.5827 468.052 98.94204 466.4446 96.98602 464.8169 95.89857 463.8475 97.54309 465.2866 100.7905 467.7285 104.0664 469.4083 105.7043 470.2483 107.3245 470.9227 108.6142 471.3902 109.259 471.6239 109.3771 471.6925 109.6562 471.7926 109.9354 471.8926 110.1375 471.959 110.2339 471.9888 108.1855 471.2957 105.4014 470.1322 103.2447 468.9602 101.088 467.7882 99.36082 466.5994 97.93302 465.4955 95.0774 463.2876 93.3923 461.4511 92.16548 460.0291 89.71185 457.1851 88.97104 456.0191 87.42179 453.2118 88.76825 455.6732 93.34518 461.3488 93.15474 461.1644 90.47568 458.2867 88.2204 455.0077 86.48192 451.4137 85.61267 449.6167 84.89327 447.7438 84.44838 446.4973 84.00349 445.2508 83.63058 443.9058 83.31826 442.4462 82.06896 436.6078 81.79438 428.9565 81.7393 418.3307 81.76637 420.2405 81.78201 419.5641 81.78509 417.6319 81.80536 422.1987 81.84596 426.4004 82.05752 430.7657 82.26909 435.1311 82.59626 439.6568 83.76718 444.1034 83.46889 442.9074 82.85012 440.227 82.44489 435.9697 82.03965 431.7123 81.85733 425.753 81.81199 418.6765 81.81753 418.7904 81.8231 418.904 81.82887 419.0206 81.89887 430.4312 82.18167 440.7824 84.93135 447.5019 85.27506 448.3418 85.93441 450.0623 86.54705 451.3311 87.1597 452.5998 87.83591 453.8266 88.56778 455.0044 90.03154 457.3599 91.71886 459.5179 93.55306 461.439 97.22145 465.2812 101.4769 468.1455 105.6159 470.0498 101.8452 468.3069 93.09937 463.1994 87.62825 453.3644 86.26048 450.9057 85.09663 448.0268 84.45605 446.1631 83.81548 444.2994 83.32553 442.193 82.95982 439.8391 82.22839 435.1314 81.99034 429.3683 81.89773 423.1553 81.91533 423.9438 81.93512 424.715 81.95838 425.4911 81.87563 421.7618 81.85854 417.5334 81.85584 412.6989 81.85314 407.8645 81.85583 404.8205 81.85657 401.3051 81.85806 394.2741 81.86055 387.0509 81.86283 379.7273 81.86738 365.0802 81.87108 350.0318 81.86421 335.3179 81.90419 349.4968 81.87224 366.0835 81.88139 384.4091 81.88597 392.8362 81.89854 400.5945 81.91111 408.754 81.91061 410.2087 81.90897 412.9539 81.91363 415.3866 81.9183 417.8193 81.92931 420.3191 81.96292 422.7969 82.03015 427.7525 82.18161 432.595 82.64029 436.8753 82.86963 439.0155 83.1776 441.0211 83.59722 442.8724 83.80703 443.7981 84.04475 444.6855 84.31434 445.5343 84.58392 446.3832 84.80715 446.9264 85.28393 448.1799 87.19107 453.194 90.13102 457.775 93.75076 461.5321 97.37051 465.2893 101.6572 468.2131 106.0885 470.1905 110.5198 472.1679 112.7685 472.6779 115.8556 473.1958 122.0298 474.2317 128.5285 474.2594 130.7706 474.3054 133.2406 474.3562 129.7701 474.3616 124.4746 474.063 121.8269 473.9138 118.8097 473.6676 115.9405 473.1894 114.506 472.9504 113.1044 472.6524 111.7728 472.2785 110.4412 471.9047 109.4857 471.554 107.5628 470.7867 99.87127 467.7172 93.46176 461.9384 89.79969 456.6734 87.96865 454.0408 86.74817 451.5883 85.97833 449.8065 85.2085 448.0248 84.93093 447.1773 84.92017 447.1467 84.89867 447.0856 85.4167 448.6811 86.60877 451.1671 87.80083 453.653 89.66813 456.6608 91.59234 459.0233 93.51654 461.3859 95.43818 463.1262 96.09576 463.7054 96.75334 464.2846 96.0021 463.8628 93.41424 461.1026 92.06386 459.6627 90.41997 457.6875 88.84946 455.2035 88.0642 453.9616 87.29757 452.5938 86.59208 451.1152 85.8866 449.6366 85.21158 447.8894 84.81188 446.8287 83.21309 442.5859 82.47698 436.5507 82.19112 429.9872 82.1902 429.5304 82.19086 429.0668 82.1931 428.5814 82.40307 434.4973 82.94665 439.5827 83.71499 442.9414 84.09917 444.6207 84.51925 445.9095 84.85305 446.8088 85.18684 447.7081 85.54437 448.6251 85.58564 448.7531 86.60786 451.3075 88.58134 455.0626 90.83738 458.0245 93.09342 460.9864 95.52599 463.1768 96.1743 463.7344 94.79242 462.5169 92.90207 460.5012 92.90886 460.4951 94.66948 462.4488 97.58931 464.9142 97.90664 465.1496 95.31554 463.1199 92.74412 460.5677 90.49926 457.524 89.37683 456.0021 88.33571 454.3596 87.40901 452.6135 86.94566 451.7404 86.51084 450.8415 86.10808 449.9196 85.70533 448.9977 85.2873 447.8732 85.04644 447.2701 83.11956 442.4454 82.43209 435.7537 82.18039 427.8627 82.14647 426.5246 82.12335 425.1301 82.10826 423.6278 82.1125 423.7856 82.14248 427.3008 82.36078 431.3921 82.57908 435.4835 83.04562 439.9872 83.87455 443.3878 84.74932 446.9746 84.12374 445.354 83.31112 440.5932 82.49851 435.8324 82.0966 426.7321 82.07328 415.1219 82.07388 414.2017 82.07538 413.2617 82.07731 412.2993 82.07925 411.3369 82.08163 410.0648 82.084 409.3866 82.08875 408.03 82.09353 406.6633 82.09838 405.2762 82.09824 406.0119 82.09811 406.7622 82.09801 407.5277 82.09791 408.2932 82.0978 408.885 82.09776 410.0587 82.09768 412.4061 82.09792 414.7291 82.10624 417.0128 82.12288 421.5802 82.16665 425.9901 82.35002 430.1184 82.56833 434.9346 82.80888 436.7581 83.06614 438.6199 83.3234 440.4818 83.55465 442.329 84.49995 445.3347 82.7712 439.7916 82.25498 431.6248 82.16985 419.6157 82.14857 416.6134 82.14779 413.38 82.14766 409.9207 82.14759 408.191 82.14754 407.439 82.14744 406.2793 82.14734 405.1197 82.14722 403.9668 82.14707 402.8225 82.14648 398.2452 82.14547 393.806 82.14404 389.6258 82.16137 383.5343 82.1787 377.4427 82.19655 371.1665 82.20456 385.0779 82.21942 397.9192 82.23199 405.5437 82.23142 407.082 82.23075 408.2524 82.23053 410.455 82.2303 412.6575 82.23137 414.6771 82.23714 416.4556 82.24868 420.0126 82.2833 422.6069 82.3121 423.9391 82.25913 420.5692 82.29308 423.3671 82.37585 426.4234 82.45862 429.4797 82.63909 432.5957 82.59027 431.4636 82.36334 427.4041 82.26388 420.497 82.25646 412.1525 82.25275 407.9803 82.25172 405.5479 82.24806 403.0628 82.2444 400.5777 82.2394 398.4542 82.23198 396.9828 82.23197 384.1415 82.23309 370.0964 82.23194 357.6564 82.23495 356.0673 82.23796 354.4781 82.24107 352.8409 82.24336 363.4082 82.24794 373.4405 82.25823 384.6766 82.2902 379.5936 82.29131 348.5605 82.27302 326.0882 82.29581 280.3411 82.17929 234.0589 82.16211 188.3118 82.16211 186.4391 82.16553 183.7638 82.1701 180.821 82.17876 177.5104 82.18743 174.1997 82.19635 170.7888 82.19865 181.7574 82.20322 191.5221 82.21008 199.5479 82.23403 167.1771 82.2284 245.8301 82.25239 250.9131 82.26208 237.8043 82.26756 221.8363 82.27074 204.3111 82.27232 195.5486 82.27334 186.3968 82.27401 177.0184 82.27435 172.3293 82.2746 167.5835 82.2748 162.8014 82.2749 160.4103 82.27397 158.1981 82.27541 154.7577 82.27686 151.3172 82.28361 148.1302 82.31686 145.1786 82.44985 133.3723 83.03435 125.373 85.3089 119.7177 85.59321 119.0108 86.11839 117.616 86.61293 116.5337 87.10746 115.4514 87.64858 114.3979 88.23313 113.3757 89.40222 111.3313 90.74504 109.4123 92.23589 107.6376 95.21759 104.0881 98.791 101.1187 102.7499 98.85242 103.7396 98.28586 104.7535 97.76304 105.7883 97.28545 106.8231 96.80786 108.2578 96.26901 108.9222 95.99511 110.251 95.44732 111.6925 94.99937 113.2615 94.63139 116.3996 93.89543 120.0497 93.47968 124.2596 93.23758 128.4694 92.99547 133.2385 92.92573 138.5549 92.90316 139.884 92.89751 141.247 92.89497 142.6432 92.89389 143.3413 92.89335 144.0476 92.89318 144.7621 92.89318 145.4766 92.89319 146.411 92.89337 146.9021 92.89355 148.8665 92.89426 150.7968 92.89503 152.6904 92.89585 150.8679 92.89613 149.2 92.89644 147.7072 92.89677 146.2144 92.8971 143.9891 92.8973 142.4258 92.89945 139.2991 92.90374 137.4585 92.91646 136.7999 92.92213 136.1413 92.92779 136.6497 92.92278 138.6618 92.91551 139.6679 92.91187 141.0579 92.90863 142.9409 92.90787 143.8824 92.90748 144.9481 92.90768 146.1576 92.90812 147.3671 92.90855 148.1007 92.90906 149.0788 92.90955 153.3164 92.91181 157.5541 92.91407 161.9201 92.91639 158.066 92.91775 154.2026 92.91883 150.334 92.91967 149.3668 92.91988 148.3993 92.92008 147.4316 92.92026 146.4638 92.92044 144.8541 92.92043 143.4837 92.92145 140.743 92.92348 138.1701 92.92981 135.7534 92.9513 126.0867 93.03728 118.9226 93.3742 113.4808 94.61734 112.1203 94.92813 110.8672 95.29483 109.7074 95.72628 108.5476 96.15773 106.5867 96.91697 104.8856 97.75641 101.4836 99.43527 98.37788 101.5847 95.64791 104.1098 92.91795 106.635 90.56393 109.5357 88.65812 112.7179 87.70522 114.309 86.86425 115.9705 86.1434 117.6909 85.42254 119.4113 85.00165 120.5379 84.63185 121.7342 83.15263 126.5196 82.61975 132.7283 82.42308 140.848 82.32475 144.9079 82.31012 149.4422 82.30788 154.4933 82.30564 159.5444 82.308 162.4756 82.3086 165.944 82.31098 179.8178 82.31685 193.0269 82.32885 205.2997 82.32999 198.0096 82.32976 189.7748 82.32925 181.3331 82.329 177.1122 82.32868 172.8396 82.32841 168.6075 82.32828 166.4915 82.32817 164.3855 82.32808 162.3013 82.328 160.217 82.32748 158.4403 82.32807 155.5071 82.33044 143.7741 82.46308 135.8553 83.03474 130.3687 83.60641 124.8822 84.57998 121.7509 85.29015 119.9548 84.30149 122.4851 83.50566 126.1821 83.09374 129.9536 82.68182 133.7252 82.56852 137.4766 82.54167 138.4026 82.68765 134.4148 82.96068 128.7217 84.12167 123.821 84.41192 122.5958 84.76046 121.4113 85.18247 120.2845 85.60448 119.1577 86.36829 117.1775 87.22927 115.4421 88.95122 111.9714 91.24156 108.6853 93.97489 105.8254 96.70823 102.9655 99.88009 100.5363 103.2493 98.66693 104.9339 97.73222 106.6664 96.93525 108.4116 96.27721 110.1568 95.61916 110.7934 95.37346 111.953 95.05117 116.5912 93.76198 121.976 93.42233 125.7095 93.25145 121.1448 93.46878 117.2246 93.86036 113.8824 94.58826 112.2113 94.95222 110.6839 95.4003 109.2838 95.95354 108.5837 96.23016 107.2803 96.71996 106.1985 97.20594 105.1167 97.69193 104.0577 98.22697 103.0249 98.80936 98.8937 101.1389 95.18074 104.2295 92.11224 107.9436 90.57799 109.8006 89.20503 111.8128 88.02207 113.9595 86.83911 116.1062 85.75304 118.8005 85.19021 120.3074 82.93892 126.3348 82.4749 134.9898 82.39729 148.0511 82.38759 149.6837 82.38336 151.3848 82.38154 153.1574 82.37972 154.9299 82.38018 157.0106 82.38024 158.2796 82.38036 160.8177 82.38048 163.353 82.38061 165.8833 82.38087 170.9439 82.38115 175.9846 82.3815 180.9882 82.38425 221.017 82.39057 258.6714 82.41343 285.1566 82.40913 265.1255 82.40747 243.3471 82.40686 220.8748 82.40655 209.6387 82.40651 198.2291 82.40653 186.7777 82.40654 181.052 82.40657 175.3158 82.40659 169.5857 82.4066 166.7206 82.4066 163.857 82.40661 160.997 82.40661 159.567 82.4065 158.4472 82.40663 156.3578 82.40675 154.2684 82.40764 152.2745 82.41362 150.3709 82.43753 142.7566 82.54553 136.5869 82.99822 131.529 83.22457 129 83.5366 126.7492 83.96172 124.7347 84.17429 123.7275 84.41505 122.7793 84.68703 121.8846 84.959 120.9899 85.15558 120.5342 85.63509 119.2404 89.47118 108.89 97.40944 100.9416 107.004 96.88514 109.4027 95.87102 110.7723 95.39406 112.5192 94.94119 114.2661 94.48832 116.182 94.14373 118.283 93.88033 122.4849 93.35352 127.4307 93.14939 133.187 93.06379 136.0652 93.02099 139.145 93.00827 142.4281 93.00382 144.0697 93.0016 146.1249 93.00145 147.287 93.00105 148.4491 93.00065 149.6028 93.00023 150.748 92.99981 155.3286 92.9981 159.7715 92.99619 164.0603 92.99404 152.1554 92.98949 152.0216 92.98149 158.3085 92.96893 179.5849 92.96287 200.8613 92.95682 222.7825 92.95059 227.1967 92.9563 225.7253 92.95972 215.158 92.96773 206.4634 92.97459 201.3803 92.97231 198.5713 92.98487 204.4569 92.99058 272.275 92.98822 218.3683 92.99627 204.9251 92.99828 189.0239 93.00073 173.5847 93.00338 165.8651 93.00471 158.2609 93.00609 151.1373 93.0075 149.3563 93.00785 147.9389 93.00799 145.4404 93.00861 142.942 93.00922 140.6306 93.01141 138.4886 93.02154 134.2048 93.04179 130.5981 93.09616 127.5306 93.20907 115.2605 93.66071 110.9792 95.36055 109.8288 95.78658 109.2536 95.99959 109.5713 95.8276 111.2098 95.32606 112.8483 94.82451 115.6786 94.02319 121.9566 93.53235 128.2345 93.04151 135.6664 93.03393 143.8349 93.03111 147.9192 93.0297 150.3788 93.03192 152.9699 93.03261 155.561 93.03331 158.0101 93.03403 160.3129 93.03476 169.5237 93.03772 176.3916 93.04099 180.6303 93.04427 189.1075 93.05083 187.0676 93.0574 172.2199 93.06141 168.4912 93.06241 163.7573 93.06377 158.3892 93.06539 155.7052 93.0662 152.8627 93.06708 149.908 93.068 148.4307 93.06847 146.9289 93.06858 144.7267 93.0696 142.5244 93.07062 140.3969 93.07329 138.3537 93.08347 130.1805 93.12418 123.4162 93.29206 118.1249 93.97055 115.4792 94.30979 113.1897 94.77526 111.2059 95.38684 110.214 95.69263 109.5212 95.96774 108.1232 96.51002 106.7251 97.0523 105.3898 97.66326 104.1228 98.32781 93.98621 103.6442 88.81994 112.2245 86.82897 116.5751 85.83349 118.7503 85.51574 119.7817 85.60954 119.559 85.70334 119.3362 86.31877 117.2653 88.19703 113.8885 90.06733 110.5261 92.69493 106.9978 96.23422 103.8278 98.00387 102.2428 99.99812 100.7495 102.2142 99.42387 103.3222 98.76106 104.4854 98.14027 105.702 97.57138 106.9187 97.0025 108.4847 96.40604 109.3049 96.08135 115.8665 93.48384 126.3019 93.11971 144.3697 93.11595 148.8867 93.11501 151.4607 93.1168 154.6183 93.11732 157.776 93.11784 160.9298 93.11833 164.0642 93.11879 170.3331 93.1197 176.5244 93.12046 182.5134 93.12099 194.4915 93.12205 205.6608 93.12218 215.0242 93.12075 252.6118 93.115 189.6092 93.03855 244.8535 93.03621 300.0978 93.03387 254.0832 93.06247 264.6505 93.06132 281.3709 93.06016 312.1365 93.06127 341.297 93.06238 361.7628 93.06693 388.1142 93.06576 401.3568 93.07831 400.4204 93.09201 338.0866 93.0818 362.6991 93.09548 377.8478 93.09546 393.4396 93.0958 407.8715 93.09582 411.4794 93.09583 415.0149 93.09581 418.4528 93.09577 420.1718 93.09575 422.7254 93.09469 425.0285 93.09795 427.3315 93.10122 429.4729 93.10933 431.4686 93.12799 439.4513 93.20265 445.1189 93.47953 449.371 94.0627 451.4971 94.35428 453.2658 94.71538 454.765 95.12249 456.2641 95.52959 457.1836 95.88785 458.8797 96.54853 462.272 97.8699 464.6031 99.29567 465.9854 100.194 467.3677 101.0924 467.8235 101.4559 467.2743 101.0623 466.7252 100.6688 465.1781 99.4898 462.1194 97.95991 470.3588 102.07 476.3109 108.6243 479.8173 115.9133 480.6939 117.7355 481.3936 119.5719 481.8207 120.7854 482.2479 121.9989 482.6009 123.2939 482.8952 124.6756 483.4838 127.439 483.8389 130.5501 484.0638 134.0229 484.2887 137.4957 484.3836 141.3293 484.428 145.5253 484.4501 147.6232 484.4593 149.8117 484.4634 152.0903 484.4675 154.3689 484.4668 156.9964 484.4671 158.6115 484.468 165.0719 484.4692 171.1832 484.4707 177.0354 484.4387 213.419 484.4445 255.6883 484.4365 260.37 484.4262 265.8543 484.4914 365.1068 484.4012 402.4269 484.4015 402.778 484.4021 404.1303 484.403 406.2391 484.4035 407.2936 484.4041 408.0971 484.4046 410.1608 484.4051 412.2244 484.4058 414.4296 484.3991 416.6801 484.3726 425.6822 484.2644 434.9695 482.9979 441.5149 482.6812 443.1512 482.2931 444.6433 481.8271 445.9946 481.5941 446.6702 481.3516 447.2811 480.9607 448.2837 480.5699 449.2863 480.1429 450.2589 479.6854 451.1976 477.8556 454.9523 475.5315 458.1469 473.1754 460.6754 468.463 465.7323 463.7542 468.1104 462.5005 468.7606 460.7611 469.6514 458.617 470.4851 457.5277 470.9097 456.4384 471.3344 455.304 471.6838 454.1284 471.9773 451.7774 472.5644 449.2621 472.931 446.6353 473.1845 441.3815 473.6914 435.7048 473.7704 429.9067 473.8058 427.0076 473.8235 424.0736 473.8228 421.1106 473.8216 419.629 473.821 418.7836 473.8203 417.8214 473.8196 416.8592 473.819 415.9195 473.8183 414.9978 473.8177 411.3112 473.8152 407.9138 473.813 404.5238 473.8111 390.9635 473.8034 377.5202 473.8005 346.1527 473.8057 293.7174 473.8138 277.6658 473.8298 268.8374 473.8321 213.5931 473.8481 213.9944 473.8173 186.9741 473.9383 178.8146 473.9737 166.2408 473.9749 161.9604 474.0354 153.3995 474.1565 149.3866 474.3118 152.0619 474.5071ZM81.68386 408.6203C81.68272 409.8409 81.68119 412.0008 81.68285 414.0006 81.68451 416.0003 81.68954 418.0372 81.70491 420.0474 81.73566 424.0678 81.80888 427.9636 81.99119 431.4284 82.35581 438.3578 83.29162 443.463 84.45281 446.6691 83.10834 443.0113 82.29982 438.0873 81.94737 431.0428 81.77115 427.5206 81.69905 423.4652 81.67346 418.777 81.66067 416.4329 81.6591 413.9309 81.65977 411.261 81.66044 408.5912 81.66202 406.9984 81.6633 405.1424 81.67009 406.2901 81.67687 407.4378 81.68386 408.6203ZM82.05606 333.1776C82.0572 339.7321 82.03666 347.6241 82.04237 354.9811 82.04352 361.9368 82.03896 369.16 82.05153 379.7273 82.0641 378.791 82.07664 361.4017 82.0732 347.8916 82.07998 347.8916 82.08677 347.8916 82.09375 347.8916 82.10404 354.446 82.1109 362.2043 82.11091 371.434 82.1094 374.5681 82.1079 377.7022 82.10635 380.9312 82.09379 381.1987 82.08465 376.2495 82.08807 374.3768 82.06866 376.7845 82.05953 384.9441 82.05383 395.5114 82.05007 396.7916 82.0463 398.0717 82.04242 399.3906 82.02415 400.862 82.01501 392.8362 82.0173 401.7983 81.99674 395.5114 82.01385 379.1923 82.00813 369.0263 82.05154 380.3962 82.02409 337.4581 82.04235 326.8908 82.04687 328.9654 82.05139 331.0401 82.05606 333.1776ZM81.20181 251.0469C81.20255 245.2643 81.2033 239.4817 81.20407 233.5238 81.20522 242.0847 81.20751 248.6391 81.2098 254.6585 81.20716 253.4666 81.20453 252.2748 81.20181 251.0469ZM423.7626 91.61524C417.588 91.61752 413.2617 91.62665 407.8866 91.63066 402.5115 91.63468 396.744 91.63739 390.7936 91.63916 378.8929 91.6427 366.2606 91.6425 354.573 91.64151 331.1978 91.63954 311.6015 91.63442 309.1937 91.64984 301.6896 91.64646 294.1855 91.64307 286.4539 91.63958 310.8658 91.63728 336.1471 91.63411 359.7062 91.62995 371.4857 91.62787 382.8347 91.62554 393.4292 91.62294 398.7264 91.62164 403.8351 91.62027 408.7146 91.61884 413.594 91.6174 417.588 91.6121 423.7626 91.61524ZM298.8939 92.96879C295.9511 92.9665 297.155 92.96308 304.2445 92.95964 341.9658 92.94476 364.3043 92.92647 340.4944 92.92649 320.1623 92.92651 275.8866 92.92085 288.8617 92.91284 306.1212 92.90905 323.3807 92.90527 341.1632 92.90137 354.8071 92.90935 368.0497 92.93103 381.5598 92.95842 352.3993 92.96188 324.4428 92.96419 298.8939 92.96879ZM397.8789 92.99381C387.4454 92.99268 375.0054 92.98926 362.4316 92.98699 373.3347 92.98547 384.2377 92.98396 395.4712 92.98239 396.2657 92.98616 397.0603 92.98993 397.8789 92.99381ZM411.2553 93.0212C389.9869 93.02351 368.7185 93.01896 390.1206 93.01095 394.9321 93.00943 399.7436 93.00792 404.7009 93.00636 406.8638 93.01126 409.0268 93.01616 411.2553 93.0212ZM426.166 93.03924C425.9845 93.03484 424.7007 93.02788 422.0681 93.02447 419.4355 93.02106 416.9402 93.01948 413.3955 93.01892 415.2013 93.01863 417.2328 93.01827 419.4028 93.0179 420.4878 93.01771 422.332 93.01722 423.9382 93.01839 425.5445 93.01956 427.1249 93.02247 428.6619 93.02975 434.8101 93.05884 440.1872 93.17346 444.3444 93.47367 452.6588 94.07407 456.4859 95.56461 456.0615 95.43798 449.9888 93.49253 440.8696 93.07113 426.166 93.03924ZM449.4239 92.54289C445.5221 92.01542 441.0257 91.83473 439.5859 91.77889 438.146 91.72304 440.529 91.5944 447.1232 92.25923 449.6326 92.5124 451.8923 92.85878 453.9572 93.3416 456.0221 93.82443 457.4065 94.27755 460.1732 95.41815 457.9065 94.48633 456.6759 94.05193 454.9933 93.60753 453.3106 93.16313 451.4712 92.81523 449.4239 92.54289ZM82.35629 237.0017C82.354 232.9888 82.35513 217.7397 82.34713 208.9114 82.28432 207.975 82.33003 242.6198 82.35629 237.0017ZM82.38261 294.1187C82.38032 290.2396 82.38145 274.9905 82.37459 266.0284 82.31064 265.092 82.35635 299.7368 82.38261 294.1187ZM484.4001 402.5606C484.4001 402.5165 484.4001 402.4723 484.4001 402.4269 484.4001 402.471 484.4001 402.5151 484.4001 402.5606ZM484.4001 402.5606"/>
</g>
<g clip-path="url(#clip_1)">
<path transform="matrix(1,0,0,-1,0,566.9291)" d="M129.5251 345.7879H207.599C216.6754 345.7879 222.1212 345.7879 225.7517 344.2722 230.9855 342.3673 235.1083 338.2445 237.0132 333.0107 238.5289 329.3802 238.5289 323.9344 238.5289 314.858V198.6986C238.5289 189.6222 238.5289 184.1764 237.0132 180.5458 235.1083 175.3121 230.9855 171.1893 225.7517 169.2843 222.1212 167.7686 216.6754 167.7686 207.599 167.7686H129.5251C120.4488 167.7686 115.003 167.7686 111.3724 169.2843 106.1387 171.1893 102.0158 175.3121 100.1109 180.5458 98.59521 184.1764 98.59521 189.6222 98.59521 198.6986V314.858C98.59521 323.9344 98.59521 329.3802 100.1109 333.0107 102.0158 338.2445 106.1387 342.3673 111.3724 344.2722 115.003 345.7879 120.4488 345.7879 129.5251 345.7879ZM129.5251 345.7879" fill="#6ce4cf"/>
</g>
<g clip-path="url(#clip_2)">
<path transform="matrix(1,0,0,-1,0,566.9291)" d="M113.274 440.9992H453.6551C459.4943 440.9992 462.9979 440.9992 465.3335 440.1324 468.9343 438.8218 471.7708 435.9854 473.0814 432.3846 473.7261 430.9444 473.9481 427.5521 473.9481 425.3273 473.9481 423.1025 473.7261 419.7103 473.0814 418.27 471.7708 414.6693 468.9343 411.8328 465.3335 410.5222 462.9979 409.6554 459.4943 409.6554 453.6551 409.6554H113.274C107.4348 409.6554 103.9313 409.6554 101.5956 410.5222 97.99482 411.8328 95.15836 414.6693 93.84779 418.27 93.203 419.7103 92.98099 423.1025 92.98099 425.3273 92.98099 427.5521 93.203 430.9444 93.84779 432.3846 95.15836 435.9854 97.99482 438.8218 101.5956 440.1324 103.9313 440.9992 107.4348 440.9992 113.274 440.9992ZM113.274 440.9992" fill="#5ac4f6"/>
</g>
<g clip-path="url(#clip_3)">
<use data-text="P" xlink:href="#font_4_16" transform="matrix(10.62,0,0,-10.62,151.7755,145.72809)"/>
<use data-text="r" xlink:href="#font_4_30" transform="matrix(10.62,0,0,-10.62,158.3599,145.72809)"/>
<use data-text="e" xlink:href="#font_4_21" transform="matrix(10.62,0,0,-10.62,164.94429,145.72809)"/>
<use data-text="f" xlink:href="#font_4_22" transform="matrix(10.62,0,0,-10.62,171.5287,145.72809)"/>
<use data-text="i" xlink:href="#font_4_24" transform="matrix(10.62,0,0,-10.62,178.1131,145.72809)"/>
<use data-text="x" xlink:href="#font_4_34" transform="matrix(10.62,0,0,-10.62,184.6975,145.72809)"/>
<use data-text=" " xlink:href="#font_4_1" transform="matrix(10.62,0,0,-10.62,191.28189,145.72809)"/>
<use data-text="-" xlink:href="#font_4_2" transform="matrix(10.62,0,0,-10.62,197.86629,145.72809)"/>
<use data-text=" " xlink:href="#font_4_1" transform="matrix(10.62,0,0,-10.62,204.4507,145.72809)"/>
<use data-text="h" xlink:href="#font_4_23" transform="matrix(10.62,0,0,-10.62,211.0351,145.72809)"/>
<use data-text="t" xlink:href="#font_4_32" transform="matrix(10.62,0,0,-10.62,217.6195,145.72809)"/>
<use data-text="t" xlink:href="#font_4_32" transform="matrix(10.62,0,0,-10.62,224.2039,145.72809)"/>
<use data-text="p" xlink:href="#font_4_29" transform="matrix(10.62,0,0,-10.62,230.7883,145.72809)"/>
<use data-text="s" xlink:href="#font_4_31" transform="matrix(10.62,0,0,-10.62,237.37271,145.72809)"/>
<use data-text=":" xlink:href="#font_4_9" transform="matrix(10.62,0,0,-10.62,243.9571,145.72809)"/>
<use data-text="/" xlink:href="#font_5_2" transform="matrix(10.62,0,0,-10.62,250.54149,145.72809)"/>
<use data-text="/" xlink:href="#font_5_1" transform="matrix(10.62,0,0,-10.62,257.1259,145.72809)"/>
<use data-text="o" xlink:href="#font_4_28" transform="matrix(10.62,0,0,-10.62,263.7103,145.72809)"/>
<use data-text="a" xlink:href="#font_4_19" transform="matrix(10.62,0,0,-10.62,270.29469,145.72809)"/>
<use data-text="s" xlink:href="#font_4_31" transform="matrix(10.62,0,0,-10.62,276.8791,145.72809)"/>
<use data-text="." xlink:href="#font_4_3" transform="matrix(10.62,0,0,-10.62,283.4635,145.72809)"/>
<use data-text="2" xlink:href="#font_4_7" transform="matrix(10.62,0,0,-10.62,290.0479,145.72809)"/>
<use data-text="0" xlink:href="#font_4_5" transform="matrix(10.62,0,0,-10.62,296.63233,145.72809)"/>
<use data-text="0" xlink:href="#font_4_5" transform="matrix(10.62,0,0,-10.62,303.2167,145.72809)"/>
<use data-text="3" xlink:href="#font_4_8" transform="matrix(10.62,0,0,-10.62,309.8011,145.72809)"/>
<use data-text="2" xlink:href="#font_4_7" transform="matrix(10.62,0,0,-10.62,316.3855,145.72809)"/>
<use data-text="0" xlink:href="#font_4_5" transform="matrix(10.62,0,0,-10.62,322.9699,145.72809)"/>
<use data-text="0" xlink:href="#font_4_5" transform="matrix(10.62,0,0,-10.62,329.55433,145.72809)"/>
<use data-text="3" xlink:href="#font_4_8" transform="matrix(10.62,0,0,-10.62,336.13874,145.72809)"/>
<use data-text="." xlink:href="#font_4_3" transform="matrix(10.62,0,0,-10.62,342.7231,145.72809)"/>
<use data-text="x" xlink:href="#font_4_34" transform="matrix(10.62,0,0,-10.62,349.3075,145.72809)"/>
<use data-text="y" xlink:href="#font_4_35" transform="matrix(10.62,0,0,-10.62,355.8919,145.72809)"/>
<use data-text="z" xlink:href="#font_4_36" transform="matrix(10.62,0,0,-10.62,362.47633,145.72809)"/>
<use data-text="/" xlink:href="#font_4_4" transform="matrix(10.62,0,0,-10.62,369.06074,145.72809)"/>
<use data-text="a" xlink:href="#font_4_19" transform="matrix(10.62,0,0,-10.62,375.64515,145.72809)"/>
<use data-text="p" xlink:href="#font_4_29" transform="matrix(10.62,0,0,-10.62,382.22953,145.72809)"/>
<use data-text="i" xlink:href="#font_4_24" transform="matrix(10.62,0,0,-10.62,388.81394,145.72809)"/>
<use data-text="/" xlink:href="#font_4_4" transform="matrix(10.62,0,0,-10.62,395.39833,145.72809)"/>
<use data-text="v" xlink:href="#font_4_33" transform="matrix(10.62,0,0,-10.62,401.98274,145.72809)"/>
<use data-text="1" xlink:href="#font_4_6" transform="matrix(10.62,0,0,-10.62,408.56715,145.72809)"/>
<use data-text=" " xlink:href="#font_4_1" transform="matrix(10.62,0,0,-10.62,415.15156,145.72809)"/>
</g>
<g clip-path="url(#clip_6)">
<path transform="matrix(1,0,0,-1,0,566.9291)" d="M117.8027 398.2657H216.3922C221.098 398.2657 223.9215 398.2657 225.8038 397.4798 228.5174 396.4922 230.6549 394.3546 231.6426 391.6411 232.4284 389.7588 232.4284 386.9353 232.4284 382.2295V373.2139C232.4284 368.5081 232.4284 365.6846 231.6426 363.8023 230.6549 361.0887 228.5174 358.9512 225.8038 357.9635 223.9215 357.1777 221.098 357.1777 216.3922 357.1777H117.8027C113.0969 357.1777 110.2734 357.1777 108.391 357.9635 105.6775 358.9512 103.54 361.0887 102.5523 363.8023 101.7665 365.6846 101.7665 368.5081 101.7665 373.2139V382.2295C101.7665 386.9353 101.7665 389.7588 102.5523 391.6411 103.54 394.3546 105.6775 396.4922 108.391 397.4798 110.2734 398.2657 113.0969 398.2657 117.8027 398.2657ZM117.8027 398.2657" fill="#5ac4f6"/>
</g>
<g clip-path="url(#clip_7)">
<use data-text="M" xlink:href="#font_8_6" transform="matrix(10.62,0,0,-10.62,108.6691,187.26319)"/>
<use data-text="A" xlink:href="#font_8_2" transform="matrix(10.62,0,0,-10.62,117.88832,187.26319)"/>
<use data-text="I" xlink:href="#font_8_4" transform="matrix(10.62,0,0,-10.62,125.16408,187.26319)"/>
<use data-text="L" xlink:href="#font_8_5" transform="matrix(10.62,0,0,-10.62,128.0644,187.26319)"/>
<use data-text=" " xlink:href="#font_8_1" transform="matrix(10.62,0,0,-10.62,133.99143,187.26319)"/>
<use data-text="-" xlink:href="#font_8_10" transform="matrix(10.62,0,0,-10.62,136.53067,187.26319)"/>
<use data-text=" " xlink:href="#font_8_1" transform="matrix(10.62,0,0,-10.62,141.34259,187.26319)"/>
<use data-text="/" xlink:href="#font_4_4" transform="matrix(10.62,0,0,-10.62,143.87973,187.26319)"/>
<use data-text="m" xlink:href="#font_4_26" transform="matrix(10.62,0,0,-10.62,150.46413,187.26319)"/>
<use data-text="a" xlink:href="#font_4_19" transform="matrix(10.62,0,0,-10.62,157.04853,187.26319)"/>
<use data-text="i" xlink:href="#font_4_24" transform="matrix(10.62,0,0,-10.62,163.63294,187.26319)"/>
<use data-text="l" xlink:href="#font_4_25" transform="matrix(10.62,0,0,-10.62,170.21733,187.26319)"/>
<use data-text="/" xlink:href="#font_4_4" transform="matrix(10.62,0,0,-10.62,176.80173,187.26319)"/>
<use data-text="d" xlink:href="#font_4_20" transform="matrix(10.62,0,0,-10.62,108.9721,200.35938)"/>
<use data-text="e" xlink:href="#font_4_21" transform="matrix(10.62,0,0,-10.62,115.556499,200.35938)"/>
<use data-text="s" xlink:href="#font_4_31" transform="matrix(10.62,0,0,-10.62,122.1409,200.35938)"/>
<use data-text="t" xlink:href="#font_4_32" transform="matrix(10.62,0,0,-10.62,128.7253,200.35938)"/>
<use data-text="i" xlink:href="#font_4_24" transform="matrix(10.62,0,0,-10.62,135.3097,200.35938)"/>
<use data-text="n" xlink:href="#font_4_27" transform="matrix(10.62,0,0,-10.62,141.8941,200.35938)"/>
<use data-text="a" xlink:href="#font_4_19" transform="matrix(10.62,0,0,-10.62,148.4785,200.35938)"/>
<use data-text="t" xlink:href="#font_4_32" transform="matrix(10.62,0,0,-10.62,155.0629,200.35938)"/>
<use data-text="i" xlink:href="#font_4_24" transform="matrix(10.62,0,0,-10.62,161.6473,200.35938)"/>
<use data-text="o" xlink:href="#font_4_28" transform="matrix(10.62,0,0,-10.62,168.23169,200.35938)"/>
<use data-text="n" xlink:href="#font_4_27" transform="matrix(10.62,0,0,-10.62,174.8161,200.35938)"/>
</g>
<g clip-path="url(#clip_9)">
<path transform="matrix(.59,0,0,.59,112.1514,230.18247)" stroke-width="1" stroke-linecap="butt" stroke-miterlimit="4" stroke-linejoin="miter" fill="none" stroke="#000000" d="M0 0H175.8086V52.125H0Z"/>
</g>
<g clip-path="url(#clip_10)">
<use data-text="P" xlink:href="#font_4_16" transform="matrix(10.62,0,0,-10.62,118.9364,249.72257)"/>
<use data-text="O" xlink:href="#font_4_15" transform="matrix(10.62,0,0,-10.62,125.5208,249.72257)"/>
<use data-text="S" xlink:href="#font_4_17" transform="matrix(10.62,0,0,-10.62,132.1052,249.72257)"/>
<use data-text="T" xlink:href="#font_4_18" transform="matrix(10.62,0,0,-10.62,138.6896,249.72257)"/>
<use data-text=" " xlink:href="#font_4_1" transform="matrix(10.62,0,0,-10.62,145.274,249.72257)"/>
<use data-text="-" xlink:href="#font_4_2" transform="matrix(10.62,0,0,-10.62,151.8584,249.72257)"/>
<use data-text=" " xlink:href="#font_4_1" transform="matrix(10.62,0,0,-10.62,158.4428,249.72257)"/>
<use data-text="/" xlink:href="#font_4_4" transform="matrix(10.62,0,0,-10.62,165.02719,249.72257)"/>
</g>
<g clip-path="url(#clip_11)">
<path transform="matrix(.59,0,0,.59,112.1514,268.08769)" stroke-width="1" stroke-linecap="butt" stroke-miterlimit="4" stroke-linejoin="miter" fill="none" stroke="#000000" d="M0 0H175.8086V52.125H0Z"/>
</g>
<g clip-path="url(#clip_12)">
<use data-text="G" xlink:href="#font_4_13" transform="matrix(10.62,0,0,-10.62,118.9364,287.62779)"/>
<use data-text="E" xlink:href="#font_4_12" transform="matrix(10.62,0,0,-10.62,125.5208,287.62779)"/>
<use data-text="T" xlink:href="#font_4_18" transform="matrix(10.62,0,0,-10.62,132.1052,287.62779)"/>
<use data-text=" " xlink:href="#font_4_1" transform="matrix(10.62,0,0,-10.62,138.6896,287.62779)"/>
<use data-text="-" xlink:href="#font_4_2" transform="matrix(10.62,0,0,-10.62,145.274,287.62779)"/>
<use data-text=" " xlink:href="#font_4_1" transform="matrix(10.62,0,0,-10.62,151.8584,287.62779)"/>
<use data-text="/" xlink:href="#font_4_4" transform="matrix(10.62,0,0,-10.62,158.4428,287.62779)"/>
</g>
<g clip-path="url(#clip_13)">
<path transform="matrix(.59,0,0,.59,112.1514,305.9929)" stroke-width="1" stroke-linecap="butt" stroke-miterlimit="4" stroke-linejoin="miter" fill="none" stroke="#000000" d="M0 0H173.5373V51.50781H0Z"/>
</g>
<g clip-path="url(#clip_14)">
<use data-text="G" xlink:href="#font_4_13" transform="matrix(8.3898,0,0,-8.3898,118.9364,324.633)"/>
<use data-text="E" xlink:href="#font_4_12" transform="matrix(8.3898,0,0,-8.3898,124.13808,324.633)"/>
<use data-text="T" xlink:href="#font_4_18" transform="matrix(8.3898,0,0,-8.3898,129.33975,324.633)"/>
<use data-text=" " xlink:href="#font_4_1" transform="matrix(8.3898,0,0,-8.3898,134.54143,324.633)"/>
<use data-text="-" xlink:href="#font_4_2" transform="matrix(8.3898,0,0,-8.3898,139.7431,324.633)"/>
<use data-text=" " xlink:href="#font_4_1" transform="matrix(8.3898,0,0,-8.3898,144.94478,324.633)"/>
<use data-text="/" xlink:href="#font_4_4" transform="matrix(8.3898,0,0,-8.3898,150.14646,324.633)"/>
<use data-text=":" xlink:href="#font_4_9" transform="matrix(8.3898,0,0,-8.3898,155.34813,324.633)"/>
<use data-text="i" xlink:href="#font_4_24" transform="matrix(8.3898,0,0,-8.3898,160.5498,324.633)"/>
<use data-text="d" xlink:href="#font_4_20" transform="matrix(8.3898,0,0,-8.3898,165.75148,324.633)"/>
<use data-text="/" xlink:href="#font_4_4" transform="matrix(8.3898,0,0,-8.3898,170.95316,324.633)"/>
<use data-text="v" xlink:href="#font_4_33" transform="matrix(8.3898,0,0,-8.3898,176.15483,324.633)"/>
<use data-text="e" xlink:href="#font_4_21" transform="matrix(8.3898,0,0,-8.3898,181.3565,324.633)"/>
<use data-text="r" xlink:href="#font_4_30" transform="matrix(8.3898,0,0,-8.3898,186.55818,324.633)"/>
<use data-text="i" xlink:href="#font_4_24" transform="matrix(8.3898,0,0,-8.3898,191.75986,324.633)"/>
<use data-text="f" xlink:href="#font_4_22" transform="matrix(8.3898,0,0,-8.3898,196.96154,324.633)"/>
<use data-text="y" xlink:href="#font_4_35" transform="matrix(8.3898,0,0,-8.3898,202.16321,324.633)"/>
</g>
<g clip-path="url(#clip_15)">
<path transform="matrix(.59,0,0,.59,215.2432,245.10837)" stroke-width="3" stroke-linecap="butt" stroke-miterlimit="4" stroke-linejoin="miter" fill="none" stroke="#000000" d="M0 0H250.1684 251.6684"/>
<path transform="matrix(1,0,0,-1,0,566.9291)" d="M362.8425 317.9267 370.6305 321.8207 362.8425 325.7147ZM362.8425 317.9267"/>
</g>
<g clip-path="url(#clip_16)">
<path transform="matrix(.59,0,0,.59,112.8214,345.77009)" stroke-width="1" stroke-linecap="butt" stroke-miterlimit="4" stroke-linejoin="miter" fill="none" stroke="#000000" d="M0 0H173.5373V52.125H0Z"/>
</g>
<g clip-path="url(#clip_17)">
<use data-text="D" xlink:href="#font_4_11" transform="matrix(10.62,0,0,-10.62,119.6064,365.31019)"/>
<use data-text="E" xlink:href="#font_4_12" transform="matrix(10.62,0,0,-10.62,126.190799,365.31019)"/>
<use data-text="L" xlink:href="#font_4_14" transform="matrix(10.62,0,0,-10.62,132.77519,365.31019)"/>
<use data-text="E" xlink:href="#font_4_12" transform="matrix(10.62,0,0,-10.62,139.3596,365.31019)"/>
<use data-text="T" xlink:href="#font_4_18" transform="matrix(10.62,0,0,-10.62,145.944,365.31019)"/>
<use data-text="E" xlink:href="#font_4_12" transform="matrix(10.62,0,0,-10.62,152.5284,365.31019)"/>
<use data-text=" " xlink:href="#font_4_1" transform="matrix(10.62,0,0,-10.62,159.1128,365.31019)"/>
<use data-text="-" xlink:href="#font_4_2" transform="matrix(10.62,0,0,-10.62,165.69719,365.31019)"/>
<use data-text=" " xlink:href="#font_4_1" transform="matrix(10.62,0,0,-10.62,172.2816,365.31019)"/>
<use data-text="/" xlink:href="#font_4_4" transform="matrix(10.62,0,0,-10.62,178.866,365.31019)"/>
<use data-text=":" xlink:href="#font_4_9" transform="matrix(10.62,0,0,-10.62,185.45041,365.31019)"/>
<use data-text="i" xlink:href="#font_4_24" transform="matrix(10.62,0,0,-10.62,192.0348,365.31019)"/>
<use data-text="d" xlink:href="#font_4_20" transform="matrix(10.62,0,0,-10.62,198.6192,365.31019)"/>
</g>
<g clip-path="url(#clip_18)">
<path transform="matrix(1,0,0,-1,0,566.9291)" d="M107.4478 157.2737H459.4814C465.3206 157.2737 468.8241 157.2737 471.1598 156.4069 474.7606 155.0963 477.597 152.2599 478.9076 148.6591 479.5524 147.2189 479.7744 143.8266 479.7744 141.6018 479.7744 139.377 479.5524 135.9848 478.9076 134.5446 477.597 130.9438 474.7606 128.1073 471.1598 126.7968 468.8241 125.93 465.3206 125.93 459.4814 125.93H107.4478C101.6086 125.93 98.10503 125.93 95.76934 126.7968 92.16857 128.1073 89.33211 130.9438 88.02154 134.5446 87.37675 135.9848 87.15474 139.377 87.15474 141.6018 87.15474 143.8266 87.37675 147.2189 88.02154 148.6591 89.33211 152.2599 92.16857 155.0963 95.76934 156.4069 98.10503 157.2737 101.6086 157.2737 107.4478 157.2737ZM107.4478 157.2737" fill="#5ac4f6"/>
</g>
<g clip-path="url(#clip_19)">
<use data-text="G" xlink:href="#font_4_13" transform="matrix(10.5138,0,0,-10.5138,107.4625,429.4748)"/>
<use data-text="E" xlink:href="#font_4_12" transform="matrix(10.5138,0,0,-10.5138,113.98106,429.4748)"/>
<use data-text="T" xlink:href="#font_4_18" transform="matrix(10.5138,0,0,-10.5138,120.49961,429.4748)"/>
<use data-text=" " xlink:href="#font_4_1" transform="matrix(10.5138,0,0,-10.5138,127.018169,429.4748)"/>
<use data-text="-" xlink:href="#font_4_2" transform="matrix(10.5138,0,0,-10.5138,133.53673,429.4748)"/>
<use data-text=" " xlink:href="#font_4_1" transform="matrix(10.5138,0,0,-10.5138,140.05529,429.4748)"/>
<use data-text="h" xlink:href="#font_4_23" transform="matrix(10.5138,0,0,-10.5138,146.57384,429.4748)"/>
<use data-text="t" xlink:href="#font_4_32" transform="matrix(10.5138,0,0,-10.5138,153.09239,429.4748)"/>
<use data-text="t" xlink:href="#font_4_32" transform="matrix(10.5138,0,0,-10.5138,159.61095,429.4748)"/>
<use data-text="p" xlink:href="#font_4_29" transform="matrix(10.5138,0,0,-10.5138,166.1295,429.4748)"/>
<use data-text="s" xlink:href="#font_4_31" transform="matrix(10.5138,0,0,-10.5138,172.64806,429.4748)"/>
<use data-text=":" xlink:href="#font_4_9" transform="matrix(10.5138,0,0,-10.5138,179.16663,429.4748)"/>
<use data-text="/" xlink:href="#font_5_2" transform="matrix(10.5138,0,0,-10.5138,185.68517,429.4748)"/>
<use data-text="/" xlink:href="#font_5_1" transform="matrix(10.5138,0,0,-10.5138,192.20372,429.4748)"/>
<use data-text="o" xlink:href="#font_4_28" transform="matrix(10.5138,0,0,-10.5138,198.72229,429.4748)"/>
<use data-text="a" xlink:href="#font_4_19" transform="matrix(10.5138,0,0,-10.5138,205.24085,429.4748)"/>
<use data-text="s" xlink:href="#font_4_31" transform="matrix(10.5138,0,0,-10.5138,211.7594,429.4748)"/>
<use data-text="." xlink:href="#font_4_3" transform="matrix(10.5138,0,0,-10.5138,218.27796,429.4748)"/>
<use data-text="2" xlink:href="#font_4_7" transform="matrix(10.5138,0,0,-10.5138,224.79651,429.4748)"/>
<use data-text="0" xlink:href="#font_4_5" transform="matrix(10.5138,0,0,-10.5138,231.31507,429.4748)"/>
<use data-text="0" xlink:href="#font_4_5" transform="matrix(10.5138,0,0,-10.5138,237.83362,429.4748)"/>
<use data-text="3" xlink:href="#font_4_8" transform="matrix(10.5138,0,0,-10.5138,244.35218,429.4748)"/>
<use data-text="2" xlink:href="#font_4_7" transform="matrix(10.5138,0,0,-10.5138,250.87073,429.4748)"/>
<use data-text="0" xlink:href="#font_4_5" transform="matrix(10.5138,0,0,-10.5138,257.38929,429.4748)"/>
<use data-text="0" xlink:href="#font_4_5" transform="matrix(10.5138,0,0,-10.5138,263.90785,429.4748)"/>
<use data-text="3" xlink:href="#font_4_8" transform="matrix(10.5138,0,0,-10.5138,270.4264,429.4748)"/>
<use data-text="." xlink:href="#font_4_3" transform="matrix(10.5138,0,0,-10.5138,276.94496,429.4748)"/>
<use data-text="x" xlink:href="#font_4_34" transform="matrix(10.5138,0,0,-10.5138,283.4635,429.4748)"/>
<use data-text="y" xlink:href="#font_4_35" transform="matrix(10.5138,0,0,-10.5138,289.98207,429.4748)"/>
<use data-text="z" xlink:href="#font_4_36" transform="matrix(10.5138,0,0,-10.5138,296.5006,429.4748)"/>
<use data-text="/" xlink:href="#font_4_4" transform="matrix(10.5138,0,0,-10.5138,303.01918,429.4748)"/>
<use data-text="a" xlink:href="#font_4_19" transform="matrix(10.5138,0,0,-10.5138,309.53773,429.4748)"/>
<use data-text="p" xlink:href="#font_4_29" transform="matrix(10.5138,0,0,-10.5138,316.05628,429.4748)"/>
<use data-text="i" xlink:href="#font_4_24" transform="matrix(10.5138,0,0,-10.5138,322.57484,429.4748)"/>
<use data-text="/" xlink:href="#font_4_4" transform="matrix(10.5138,0,0,-10.5138,329.09339,429.4748)"/>
<use data-text="v" xlink:href="#font_4_33" transform="matrix(10.5138,0,0,-10.5138,335.61195,429.4748)"/>
<use data-text="1" xlink:href="#font_4_6" transform="matrix(10.5138,0,0,-10.5138,342.1305,429.4748)"/>
<use data-text="/" xlink:href="#font_4_4" transform="matrix(10.5138,0,0,-10.5138,348.64909,429.4748)"/>
<use data-text="m" xlink:href="#font_4_26" transform="matrix(10.5138,0,0,-10.5138,355.16764,429.4748)"/>
<use data-text="a" xlink:href="#font_4_19" transform="matrix(10.5138,0,0,-10.5138,361.6862,429.4748)"/>
<use data-text="i" xlink:href="#font_4_24" transform="matrix(10.5138,0,0,-10.5138,368.2047,429.4748)"/>
<use data-text="l" xlink:href="#font_4_25" transform="matrix(10.5138,0,0,-10.5138,374.72328,429.4748)"/>
<use data-text="/" xlink:href="#font_4_4" transform="matrix(10.5138,0,0,-10.5138,381.24186,429.4748)"/>
<use data-text="d" xlink:href="#font_4_20" transform="matrix(10.5138,0,0,-10.5138,387.7604,429.4748)"/>
<use data-text="e" xlink:href="#font_4_21" transform="matrix(10.5138,0,0,-10.5138,394.27897,429.4748)"/>
<use data-text="s" xlink:href="#font_4_31" transform="matrix(10.5138,0,0,-10.5138,400.79753,429.4748)"/>
<use data-text="t" xlink:href="#font_4_32" transform="matrix(10.5138,0,0,-10.5138,407.31608,429.4748)"/>
<use data-text="i" xlink:href="#font_4_24" transform="matrix(10.5138,0,0,-10.5138,413.8346,429.4748)"/>
<use data-text="n" xlink:href="#font_4_27" transform="matrix(10.5138,0,0,-10.5138,420.35316,429.4748)"/>
<use data-text="a" xlink:href="#font_4_19" transform="matrix(10.5138,0,0,-10.5138,426.8717,429.4748)"/>
<use data-text="t" xlink:href="#font_4_32" transform="matrix(10.5138,0,0,-10.5138,433.39027,429.4748)"/>
<use data-text="i" xlink:href="#font_4_24" transform="matrix(10.5138,0,0,-10.5138,439.9088,429.4748)"/>
<use data-text="n" xlink:href="#font_4_27" transform="matrix(10.5138,0,0,-10.5138,446.42738,429.4748)"/>
<use data-text="/" xlink:href="#font_4_4" transform="matrix(10.5138,0,0,-10.5138,452.94593,429.4748)"/>
</g>
<g clip-path="url(#clip_20)">
<path transform="matrix(1,0,0,-1,0,566.9291)" d="M260.5014 346.976H325.3723C329.2705 346.976 331.6095 346.976 333.1688 346.3699 335.5135 345.5165 337.3605 343.6695 338.2139 341.3248 338.7149 340.2358 338.82 337.5957 338.82 335.4433 338.82 333.291 338.7149 330.6509 338.2139 329.5619 337.3605 327.2172 335.5135 325.3702 333.1688 324.5168 331.6095 323.9107 329.2705 323.9107 325.3723 323.9107H260.5014C256.6031 323.9107 254.2642 323.9107 252.7049 324.5168 250.3602 325.3702 248.5132 327.2172 247.6598 329.5619 247.1588 330.6509 247.0537 333.291 247.0537 335.4433 247.0537 337.5957 247.1588 340.2358 247.6598 341.3248 248.5132 343.6695 250.3602 345.5165 252.7049 346.3699 254.2642 346.976 256.6031 346.976 260.5014 346.976ZM260.5014 346.976" fill="#ef8c00"/>
</g>
<g clip-path="url(#clip_21)">
<use data-text="C" xlink:href="#font_4_10" transform="matrix(7.08,0,0,-7.08,253.5719,234.09839)"/>
<use data-text="r" xlink:href="#font_4_30" transform="matrix(7.08,0,0,-7.08,257.9615,234.09839)"/>
<use data-text="e" xlink:href="#font_4_21" transform="matrix(7.08,0,0,-7.08,262.3511,234.09839)"/>
<use data-text="a" xlink:href="#font_4_19" transform="matrix(7.08,0,0,-7.08,266.7407,234.09839)"/>
<use data-text="t" xlink:href="#font_4_32" transform="matrix(7.08,0,0,-7.08,271.1303,234.09839)"/>
<use data-text="e" xlink:href="#font_4_21" transform="matrix(7.08,0,0,-7.08,275.5199,234.09839)"/>
<use data-text=" " xlink:href="#font_4_1" transform="matrix(7.08,0,0,-7.08,279.9095,234.09839)"/>
<use data-text="P" xlink:href="#font_4_16" transform="matrix(7.08,0,0,-7.08,284.2991,234.09839)"/>
<use data-text="a" xlink:href="#font_4_19" transform="matrix(7.08,0,0,-7.08,288.6887,234.09839)"/>
<use data-text="y" xlink:href="#font_4_35" transform="matrix(7.08,0,0,-7.08,293.0783,234.09839)"/>
<use data-text="l" xlink:href="#font_4_25" transform="matrix(7.08,0,0,-7.08,297.4679,234.09839)"/>
<use data-text="o" xlink:href="#font_4_28" transform="matrix(7.08,0,0,-7.08,301.85749,234.09839)"/>
<use data-text="a" xlink:href="#font_4_19" transform="matrix(7.08,0,0,-7.08,306.2471,234.09839)"/>
<use data-text="d" xlink:href="#font_4_20" transform="matrix(7.08,0,0,-7.08,310.63673,234.09839)"/>
<use data-text=" " xlink:href="#font_4_1" transform="matrix(7.08,0,0,-7.08,315.0263,234.09839)"/>
</g>
<g clip-path="url(#clip_22)">
<path transform="matrix(1,0,0,-1,0,566.9291)" d="M413.8546 370.7847C404.2744 370.7846 394.6964 369.6826 387.387 367.4733 372.7682 363.0548 372.7682 355.8921 387.387 351.4736 402.0057 347.0551 425.7033 347.0551 440.3221 351.4736 454.9409 355.8921 454.9409 363.0548 440.3221 367.4733 433.0127 369.6826 423.4347 370.7847 413.8546 370.7847ZM376.424 354.344V283.885C376.424 277.6461 393.1818 271.9549 413.8546 271.9549 434.5273 271.9549 451.2851 277.646 451.2851 283.885V354.344C445.9622 349.64 431.2097 346.2745 413.8546 346.2745 396.4994 346.2745 381.7469 349.64 376.424 354.344ZM376.424 354.344" fill="#64c466"/>
</g>
<g clip-path="url(#clip_23)">
<use data-text="S" xlink:href="#font_8_8" transform="matrix(10.62,0,0,-10.62,393.8289,249.67768)"/>
<use data-text="E" xlink:href="#font_8_3" transform="matrix(10.62,0,0,-10.62,400.57048,249.67768)"/>
<use data-text="R" xlink:href="#font_8_7" transform="matrix(10.62,0,0,-10.62,406.79167,249.67768)"/>
<use data-text="V" xlink:href="#font_8_9" transform="matrix(10.62,0,0,-10.62,413.53324,249.67768)"/>
<use data-text="E" xlink:href="#font_8_3" transform="matrix(10.62,0,0,-10.62,420.73149,249.67768)"/>
<use data-text="R" xlink:href="#font_8_7" transform="matrix(10.62,0,0,-10.62,426.95268,249.67768)"/>
</g>
<g clip-path="url(#clip_24)">
<path transform="matrix(.59,0,0,.59,238.5066,294.95808)" stroke-width="3" stroke-linecap="butt" stroke-miterlimit="4" stroke-linejoin="miter" fill="none" stroke="#000000" d="M0 25.7H297.1V12.65 11.15"/>
<path transform="matrix(-1.298,-0,0,-1.298,417.6896,302.42158)" stroke-width="1.363636" stroke-linecap="butt" stroke-linejoin="round" fill="none" stroke="#000000" d="M0 0 3 5 6 0M3 0V5"/>
</g>
<g clip-path="url(#clip_25)">
<g clip-path="url(#clip_26)">
<path transform="matrix(-.59,-0,0,-.59,434.7291,340.7461)" stroke-width="3" stroke-linecap="butt" stroke-miterlimit="4" stroke-linejoin="miter" fill="none" stroke="#000000" d="M0 0H313.1025 314.6025"/>
<path transform="matrix(1,0,0,-1,0,566.9291)" d="M249.9987 230.077 242.2107 226.183 249.9987 222.289ZM249.9987 230.077"/>
</g>
</g>
<g clip-path="url(#clip_27)">
<g clip-path="url(#clip_28)">
<path transform="matrix(0,-.59,.59,0,433.8985,341.2812)" stroke-width="3" stroke-linecap="butt" stroke-miterlimit="4" stroke-linejoin="miter" fill="none" stroke="#000000" d="M0 0H82.03851"/>
</g>
</g>
</svg>
