<svg xmlns="http://www.w3.org/2000/svg" xmlns:xlink="http://www.w3.org/1999/xlink" version="1.1" width="545.71218" height="473.0152" viewBox="0 0 545.71218 473.0152">
<defs>
<clipPath id="clip_0">
<path transform="matrix(1,0,0,-1,-24.54676,652.8603)" d="M24.54676 179.8451H570.2589V652.8603H24.54676Z" fill-rule="evenodd"/>
</clipPath>
<clipPath id="clip_1">
<path transform="matrix(1,0,0,-1,-24.54676,652.8603)" d="M72.83984 211.6386H522.16018V630.3615H72.83984Z"/>
</clipPath>
<clipPath id="clip_2">
<path transform="matrix(1,0,0,-1,-24.54676,652.8603)" d="M208.6325 521.2618H386.3676V581.76638H208.6325Z"/>
</clipPath>
<clipPath id="clip_3">
<path transform="matrix(1,0,0,-1,-24.54676,652.8603)" d="M209.7725 522.4018H385.2276V580.6264H209.7725Z"/>
</clipPath>
<path id="font_4_2" d="M.033203126 .00048828127H.16503906L.35009767 .57421877H.3876953V.7050781H.28320313L.033203126 .00048828127M.15917969 .18261719H.54833987L.5151367 .28027345H.19238281L.15917969 .18261719M.54345706 .00048828127H.67529299L.42529298 .7050781H.35839845V.57421877L.54345706 .00048828127Z"/>
<path id="font_4_7" d="M.07714844 0H.19921875V.7392578H.07714844V0Z"/>
<path id="font_4_6" d="M.07519531 0H.19628906V.5332031H.07519531V0M.13598633 .6220703C.1559143 .6220703 .17289734 .62908938 .18693543 .64312747 .20098369 .6571757 .20800781 .67400106 .20800781 .6936035 .20800781 .7135315 .20098369 .7305145 .18693543 .7445526 .17289734 .7586009 .1559143 .765625 .13598633 .765625 .11605835 .765625 .09898885 .7586009 .08477783 .7445526 .07057699 .7305145 .06347656 .7135315 .06347656 .6936035 .06347656 .67400106 .07057699 .6571757 .08477783 .64312747 .09898885 .62908938 .11605835 .6220703 .13598633 .6220703Z"/>
<path id="font_4_4" d="M.21949768-.0087890629C.2429657-.0087890629 .26464335-.005518595 .28453065 .0010223389 .30441795 .007573446 .32210288 .017064413 .33758546 .02949524 .35307823 .041936239 .3657125 .05682373 .37548829 .074157718H.38378907V.000045776369H.50390627V.3645935C.50390627 .40205894 .4955953 .43414817 .4789734 .4608612 .46236167 .48757426 .43800865 .50809738 .4059143 .5224304 .37381999 .5367737 .33496604 .5439453 .28935243 .5439453 .24699402 .5439453 .20968628 .537679 .1774292 .5251465 .14517212 .51261398 .11934916 .4951172 .09996033 .47265626 .080571498 .4501953 .06876119 .42382813 .06452942 .3935547L.06404114 .38964845H.17919922L.1796875 .39160157C.18587239 .40918986 .1977539 .42286173 .21533203 .4326172 .23291016 .4423828 .25569663 .44726563 .2836914 .44726563 .316569 .44726563 .34147135 .44010417 .35839845 .42578126 .37532554 .41145835 .38378907 .39095054 .38378907 .3642578V.19630432C.38378907 .1751353 .37825523 .15616863 .3671875 .1394043 .35611979 .12263998 .34098307 .109375 .32177735 .099609378 .30257163 .08984375 .28076173 .08496094 .25634767 .08496094 .22932942 .08496094 .20719402 .091308597 .1899414 .104003909 .1726888 .11669922 .1640625 .13444011 .1640625 .15722656V.15820313C.1640625 .18001302 .17220052 .19710286 .18847656 .20947266 .20475261 .22184246 .2298177 .22900899 .26367188 .23097229L.44384767 .24267578V.3227539L.24633789 .3110199C.20299275 .30840556 .1662445 .3005778 .13609314 .28753663 .10595194 .27450563 .08305868 .25657655 .06741333 .23374939 .051767988 .21093242 .043945314 .18355306 .043945314 .15161133V.15063477C.043945314 .11835734 .051523847 .09023539 .06668091 .06626892 .081837978 .042312623 .102620448 .023813883 .12902832 .010772705 .1554362-.0022684735 .18559265-.0087890629 .21949768-.0087890629Z"/>
<path id="font_4_11" d="M.27416993-.0107421879C.3181661-.0107421879 .3571879-.0037384034 .39123536 .010269165 .42529298 .024286906 .45209757 .04408264 .47164918 .06965637 .49120078 .09524027 .50097659 .12497965 .50097659 .15887451V.1593628C.50097659 .18543498 .49543254 .20783489 .48434449 .2265625 .4732666 .2453003 .45639549 .2611033 .43373109 .27397157 .41107688 .28684999 .3821462 .29720054 .3469391 .3050232L.26086427 .32408143C.241628 .3286387 .22614034 .33384706 .21440125 .33970643 .20267232 .34557597 .19411724 .3524221 .18873596 .36024476 .18335469 .3680674 .18066406 .37719728 .18066406 .38763429V.38812257C.18066406 .4014791 .18466187 .41312663 .19265747 .4230652 .20065308 .43300376 .21166484 .44065858 .22569275 .44602967 .23973084 .45141093 .25572206 .45410157 .27366639 .45410157 .30238343 .45410157 .32538859 .44805909 .34268189 .43597413 .3599752 .42388917 .3707428 .40906779 .37498475 .39151H.4897461V.39297486C.48714195 .421875 .47704063 .44768778 .45944215 .4704132 .44184367 .49313865 .41739909 .5110728 .3861084 .5242157 .35482789 .5373688 .31751506 .5439453 .27416993 .5439453 .2324524 .5439453 .19546 .5371043 .16319275 .52342227 .13093567 .5097402 .105763759 .49067689 .087677 .4662323 .06959025 .44178773 .060546876 .4134318 .060546876 .38116456V.38067628C.060546876 .35461427 .06600443 .33180747 .076919559 .31225587 .08784485 .29270426 .104390468 .27624513 .1265564 .26287843 .1487325 .2495219 .1766103 .23910015 .21018982 .23161316L.2972412 .21253968C.32625328 .20569356 .3471171 .19697571 .35983277 .18638611 .37254844 .17579651 .37890626 .16268413 .37890626 .14704895V.14656067C.37890626 .13319397 .37450157 .12145996 .36569215 .11135864 .35688273 .101257327 .3448893 .09335327 .3297119 .087646488 .31454469 .08194987 .29668174 .07910156 .27612306 .07910156 .24611409 .07910156 .22205098 .0850118 .20393372 .096832279 .18582662 .108662929 .17367554 .12409973 .16748047 .1431427H.16699219 .04638672L.046875 .14167786C.050130208 .111821498 .061208089 .08544922 .08010864 .062561038 .09900919 .03967285 .12483215 .021733603 .15757752 .008743286 .19033306-.00424703 .22919719-.0107421879 .27416993-.0107421879Z"/>
<path id="font_4_1" d="M0 0Z"/>
<path id="font_4_5" d="M.30126954-.01171875C.33740235-.01171875 .36914063-.0070648195 .39648438 .002243042 .42382813 .011550903 .44702149 .023798624 .46606446 .038986207 .48510743 .054173788 .50024417 .07066345 .5114746 .0884552 .5227051 .10625712 .5304362 .123809818 .53466799 .14111328L.53564456 .1459961H.42041017L.4189453 .14256287C.4153646 .1341095 .40861003 .1254069 .39868165 .11645508 .38875328 .10750326 .37597657 .099853519 .36035157 .09350586 .34472657 .0871582 .32600913 .083984378 .30419923 .083984378 .27620445 .083984378 .25203453 .090174358 .23168946 .10255432 .2113444 .11494446 .19563802 .13287354 .18457031 .15634156 .17350261 .17980957 .16796875 .20784505 .16796875 .240448V.28933717C.16796875 .32356773 .17358399 .35249839 .18481446 .37612916 .19604492 .39975993 .2113444 .41768394 .23071289 .42990113 .2500814 .4421285 .2722982 .4482422 .29736329 .4482422 .32210288 .4482422 .34399415 .44236756 .3630371 .4306183 .38208009 .41887919 .39697267 .40126548 .40771485 .3777771 .41845704 .35428874 .42382813 .32476298 .42382813 .28919984V.24075318L.4814453 .3173828H.107910159V.23535156H.5410156V.2755127C.5410156 .32939659 .5310872 .37641908 .51123049 .4165802 .4913737 .4567515 .46313478 .48802186 .42651368 .51039126 .38989259 .5327606 .34635417 .5439453 .29589845 .5439453 .2454427 .5439453 .20149739 .5323588 .1640625 .5091858 .12662761 .4860128 .09773763 .45361839 .07739258 .41200257 .057047529 .37039695 .046875 .3215281 .046875 .26539613V.26489259C.046875 .20810955 .057128908 .15907288 .07763672 .11778259 .09814453 .07649231 .12736003 .04458618 .1652832 .022064209 .20320638-.00045776368 .24853516-.01171875 .30126954-.01171875Z"/>
<path id="font_4_8" d="M.07324219 0H.19433594V.32507325C.19433594 .34690348 .19881185 .36669923 .20776367 .38446046 .2167155 .40222169 .22908528 .41615296 .24487305 .42625428 .2606608 .4363556 .27848307 .44140626 .29833985 .44140626 .31819663 .44140626 .33536784 .4375763 .34985353 .42991639 .3643392 .42226664 .3754069 .41135154 .38305665 .39717103 .3907064 .3829905 .39453126 .3659617 .39453126 .3460846V0H.515625V.332901C.515625 .3537445 .5199382 .37231446 .52856448 .38861085 .53719076 .40490724 .5493164 .41778056 .5649414 .42723084 .5805664 .43668113 .5989583 .44140626 .6201172 .44140626 .64160159 .44140626 .6595052 .4375763 .6738281 .42991639 .68815109 .42226664 .69889327 .41070048 .7060547 .3952179 .7132161 .37973533 .7167969 .36042787 .7167969 .33729554V0H.8378906V.3670349C.8378906 .40384928 .8310547 .43545024 .8173828 .46183778 .80371096 .4882253 .7840983 .5085042 .7585449 .52267459 .7329915 .53685507 .7023112 .5439453 .6665039 .5439453 .64176437 .5439453 .6187337 .5399577 .5974121 .5319824 .5760905 .52400717 .5574544 .5126953 .5415039 .49804688 .5255534 .48339845 .5133464 .4663086 .5048828 .44677735H.49658204C.48909507 .46695964 .47835288 .4842936 .46435548 .4987793 .45035807 .51326498 .43367515 .52441409 .41430665 .53222659 .39493815 .54003909 .37320964 .5439453 .3491211 .5439453 .31396485 .5439453 .28361003 .5358073 .25805665 .51953127 .23250325 .5032552 .21402996 .480306 .20263672 .4506836H.19433594V.5332031H.07324219V0Z"/>
<clipPath id="clip_5">
<path transform="matrix(1,0,0,-1,-24.54676,652.8603)" d="M148.1867 420.6654H292.60163V480.62898H148.1867Z"/>
</clipPath>
<path id="font_6_3" d="M.08886719 0H.5253906V.07910156H.17675781V.32128907H.5073242V.39941407H.17675781V.62597659H.5253906V.7050781H.08886719V0Z"/>
<path id="font_6_14" d="M.078125 0H.16308594V.32598878C.16308594 .35075889 .16838582 .37332154 .1789856 .39367677 .18958538 .41404215 .20402019 .43017069 .22229004 .44206239 .24055989 .45395408 .2611135 .4598999 .2839508 .4598999 .30612693 .4598999 .32544963 .45566307 .34191896 .44718934 .35839845 .4387258 .37112428 .42675273 .38009645 .41127015 .3890686 .39579774 .3935547 .37763468 .3935547 .356781V0H.47851563V.33821107C.47851563 .36069236 .48355104 .38113914 .49362184 .3995514 .5036926 .41796366 .5177409 .43262229 .5357666 .44352723 .5537923 .45444236 .57498678 .4598999 .59935 .4598999 .6240387 .4598999 .64450076 .45558167 .6607361 .4469452 .6769816 .43831889 .68908187 .42545066 .69703677 .40834046 .70500186 .39124046 .7089844 .36982218 .7089844 .3440857V0H.7939453V.36361695C.7939453 .4001058 .78744509 .43113709 .7744446 .45671083 .7614441 .4822947 .74250796 .50176498 .7176361 .51512148 .6927745 .52847799 .6624654 .53515627 .626709 .53515627 .60266116 .53515627 .5801544 .5313263 .55918887 .5236664 .53822329 .51601669 .5197754 .50526937 .5038452 .49142457 .4879252 .47757975 .47525025 .46136985 .4658203 .4427948H.45848084C.45033265 .4610443 .43941245 .47709147 .4257202 .49093629 .41202799 .50478109 .39572654 .51560977 .3768158 .52342227 .35790507 .53124496 .33654786 .53515627 .31274415 .53515627 .2781779 .53515627 .24874878 .52733358 .22445679 .51168826 .20017497 .49605308 .1821645 .4742279 .17042542 .44621278H.16308594V.5253906H.078125V0Z"/>
<path id="font_6_6" d="M.22241211-.009765625C.24621582-.009765625 .26805625-.0064086916 .28793336 .00030517579 .30782066 .007019043 .32566834 .01691691 .34147645 .02999878 .3572947 .04309082 .3707428 .058965047 .38182069 .07762146H.38964845V-.0004272461H.47460938V.35943605C.47460938 .39589439 .4667867 .42713929 .45114137 .45317079 .435496 .47921244 .4128418 .49923197 .3831787 .51322939 .3535258 .52723696 .31718955 .5342407 .27416993 .5342407 .23669434 .5342407 .20328777 .5284627 .1739502 .51690676 .1446228 .50535079 .12075297 .4891561 .1023407 .46832276 .08392843 .4474894 .07260132 .4232432 .068359378 .3955841L.067871097 .39265443H.15237427L.15286255 .39411927C.15970867 .41459657 .17324321 .43052674 .19346619 .4419098 .21368917 .45329286 .23961894 .45898438 .2712555 .45898438 .31072489 .45898438 .34032188 .45044963 .3600464 .43338014 .3797811 .41631065 .38964845 .39152528 .38964845 .35902406V.19613648C.38964845 .17109172 .38320414 .14865113 .37031556 .1288147 .35743714 .10898844 .3397471 .09330241 .31724549 .08175659 .29474388 .07022095 .26897685 .064453128 .23994446 .064453128 .20929463 .064453128 .18393962 .07184855 .1638794 .086639408 .14381917 .10144043 .13378906 .12200419 .13378906 .14833069V.14930725C.13378906 .17530823 .14300029 .19546 .16142273 .20976258 .17984517 .22407532 .20894368 .23237102 .24871826 .23464966L.4321289 .24635315V.31414796L.23852539 .30241395C.19778443 .30013529 .16315206 .29264323 .1346283 .27993775 .10611471 .26724244 .084360759 .2497406 .069366458 .22743225 .05437215 .2051239 .046875 .17849732 .046875 .14755249V.14657593C.046875 .11465454 .054534913 .08697001 .06985474 .06352234 .08517456 .040074666 .10611979 .021998087 .13269043 .009292603 .15926107-.0034128826 .18916829-.009765625 .22241211-.009765625Z"/>
<path id="font_6_12" d="M.080078128 0H.16503906V.5253906H.080078128V0M.122802738 .6269531C.13914998 .6269531 .15304058 .6326752 .16447449 .64411929 .17591858 .65556338 .18164063 .6692912 .18164063 .68530276 .18164063 .70164999 .17591858 .7155406 .16447449 .7269745 .15304058 .7384186 .13914998 .7441406 .122802738 .7441406 .106781009 .7441406 .093048099 .7384186 .081604007 .7269745 .07017008 .7155406 .064453128 .70164999 .064453128 .68530276 .064453128 .6692912 .07017008 .65556338 .081604007 .64411929 .093048099 .6326752 .106781009 .6269531 .122802738 .6269531Z"/>
<path id="font_6_13" d="M.08300781 0H.16796875V.734375H.08300781V0Z"/>
<path id="font_6_1" d="M0 0Z"/>
<path id="font_6_18" d="M.078125 0H.16308594V.32603456C.16308594 .35178123 .16894531 .37426759 .18066406 .39349366 .19238281 .41271974 .20857747 .42762757 .22924805 .43821717 .24991863 .44880677 .27360026 .45410157 .30029298 .45410157 .30973307 .45410157 .31860353 .45369468 .3269043 .45288087 .33520509 .45206706 .34358726 .45084635 .35205079 .44921876V.5315552C.347819 .53223678 .34179688 .53300479 .33398438 .53385928 .32617188 .53472396 .31819663 .53515627 .3100586 .53515627 .27490235 .53515627 .24536133 .52750656 .22143555 .51220706 .19750977 .49690757 .1805013 .4754232 .17041016 .4477539H.16308594V.5253906H.078125V0Z"/>
<path id="font_6_16" d="M.2939453-.009765625C.34407554-.009765625 .38712565 .0012207031 .4230957 .02319336 .45906578 .04517619 .4868978 .076431278 .5065918 .11695862 .5262858 .15749614 .5361328 .20576477 .5361328 .26176454V.2627411C.5361328 .31905619 .5262858 .36747743 .5065918 .40800477 .4868978 .44854228 .45906578 .47971598 .4230957 .5015259 .38712565 .52333578 .34407554 .5342407 .2939453 .5342407 .24446614 .5342407 .20157878 .52333578 .1652832 .5015259 .12898763 .47971598 .100992839 .44854228 .08129883 .40800477 .061604818 .36747743 .051757814 .31905619 .051757814 .2627411V.26176454C.051757814 .20576477 .061604818 .15749614 .08129883 .11695862 .100992839 .076431278 .12898763 .04517619 .1652832 .02319336 .20157878 .0012207031 .24446614-.009765625 .2939453-.009765625M.2939453 .06549072C.26106773 .06549072 .23307292 .07330322 .20996094 .08892822 .18684896 .10455322 .16918946 .12692769 .15698242 .15605164 .14477539 .18518575 .13867188 .22041829 .13867188 .26174928V.26272584C.13867188 .30438233 .14477539 .33977763 .15698242 .36891175 .16918946 .39804588 .18684896 .42033897 .20996094 .43579103 .23307292 .45125328 .26106773 .45898438 .2939453 .45898438 .32714845 .45898438 .3552246 .45133464 .37817384 .43603517 .40112306 .42074586 .41870118 .39845277 .4309082 .36915589 .44311524 .339859 .44921876 .30438233 .44921876 .26272584V.26174928C.44921876 .22041829 .44311524 .18518575 .4309082 .15605164 .41870118 .12692769 .40112306 .10455322 .37817384 .08892822 .3552246 .07330322 .32714845 .06549072 .2939453 .06549072Z"/>
<path id="font_6_21" d="M.25390626-.009765625C.2796224-.009765625 .30265299-.00634257 .32299806 .00050354006 .3433431 .00734965 .36083985 .017364502 .37548829 .030548096 .39013673 .043741865 .40169273 .0594635 .41015626 .07771301H.41796876V0H.5029297V.5253906H.41796876V.21406555C.41796876 .19125875 .41495768 .17064922 .40893556 .15223694 .40291343 .13382466 .39388023 .11818441 .38183595 .10531616 .36979167 .092447917 .35489909 .08259074 .3371582 .07574463 .31941734 .06890869 .29915367 .06549072 .2763672 .06549072 .234375 .06549072 .20418294 .077056888 .18579102 .10018921 .1673991 .12332153 .15820313 .15834554 .15820313 .20526123V.5253906H.07324219V.18475342C.07324219 .1436971 .07999674 .10858663 .09350586 .079422 .10701498 .050267538 .12727864 .028111777 .15429688 .012954712 .18131511-.0021921795 .21451824-.009765625 .25390626-.009765625Z"/>
<path id="font_6_20" d="M.26464845-.00390625C.27311198-.00390625 .28141276-.0034179688 .28955079-.0024414063 .2976888-.0014750162 .30566407-.00034586589 .31347657 .0009460449V.07281494C.3059896 .07183838 .29956056 .0713501 .29418946 .0713501 .28881837 .0713501 .2823893 .0713501 .27490235 .0713501 .24788411 .0713501 .22851563 .07803345 .21679688 .09140015 .20507813 .104766849 .19921875 .12675984 .19921875 .15737915V.4560547H.31347657V.5263672H.19921875V.66259768H.111328128V.5263672H.028320313V.4560547H.111328128V.13687134C.111328128 .087015789 .12345377 .051086427 .14770508 .029083252 .17195638 .0070902507 .2109375-.00390625 .26464845-.00390625Z"/>
<path id="font_6_15" d="M.078125 0H.16308594V.31134034C.16308594 .34228517 .16870117 .36875407 .17993164 .39074708 .19116211 .41274009 .20694988 .4297638 .22729492 .44181825 .24763997 .45387269 .2718099 .4598999 .2998047 .4598999 .34179688 .4598999 .37280274 .4484965 .39282228 .4256897 .4128418 .4028829 .42285157 .36769615 .42285157 .3201294V0H.5078125V.3406372C.5078125 .4028727 .49194337 .45085145 .46020509 .48457337 .4284668 .5182953 .38297526 .53515627 .32373048 .53515627 .285319 .53515627 .25349937 .527415 .22827149 .5119324 .20304363 .49645997 .18375652 .47487895 .17041016 .44718934H.16308594V.5253906H.078125V0Z"/>
<path id="font_6_11" d="M.29515077-.18554688C.34272767-.18554688 .3841146-.17756145 .41931153-.16159058 .45450846-.14562989 .48163859-.12315369 .5007019-.09416199 .5197652-.06517029 .5292969-.031133017 .5292969 .007949829V.5259247H.44384767V.43896485H.43798829C.4272461 .4588318 .41381837 .4759318 .39770509 .4902649 .3815918 .50459799 .3631185 .5156708 .34228517 .5234833 .3214518 .53130599 .29866538 .5352173 .27392579 .5352173 .22835286 .5352173 .18896485 .5242259 .15576172 .50224307 .122558597 .4802704 .09692383 .45015464 .07885742 .41189576 .060791017 .37363688 .051757814 .32992555 .051757814 .28076173V.27978517C.051757814 .23028565 .060709638 .18648784 .07861328 .14839173 .09651693 .110295619 .12198893 .08042399 .1550293 .058776857 .18806966 .03712972 .22705078 .026306153 .27197267 .026306153 .2960612 .026306153 .31852214 .029805502 .33935548 .0368042 .3601888 .04381307 .37890626 .054153444 .3955078 .06782532 .41210938 .08150736 .425944 .097961429 .43701173 .1171875H.44482423V.01260376C.44482423-.026245118 .43155924-.056437177 .4050293-.07797241 .37849937-.09951782 .34163413-.11029053 .2944336-.11029053 .2569987-.11029053 .22688802-.10384115 .20410156-.09094238 .18131511-.07804362 .16748047-.061645509 .16259766-.041748048H.16210938 .07421875L.07373047-.042251588C.07828776-.07083639 .0899353-.09593201 .108673099-.11753845 .12741089-.13915508 .15258281-.15589397 .18418885-.16775513 .21580506-.17961629 .25279237-.18554688 .29515077-.18554688M.29052735 .1015625C.25830079 .1015625 .23087566 .10913086 .20825196 .12426758 .18562825 .1394043 .16837566 .16031902 .15649414 .18701172 .14461263 .2137146 .13867188 .24463909 .13867188 .27978517V.28076173C.13867188 .31559245 .14461263 .34651695 .15649414 .37353517 .16837566 .40056358 .18562825 .4217224 .20825196 .43701173 .23087566 .4523112 .25830079 .45996095 .29052735 .45996095 .32307945 .45996095 .35091148 .4523112 .37402345 .43701173 .3971354 .4217224 .41495768 .40056358 .42749024 .37353517 .4400228 .34651695 .44628907 .31559245 .44628907 .28076173V.27978517C.44628907 .24463909 .4400228 .2137146 .42749024 .18701172 .41495768 .16031902 .3971354 .1394043 .37402345 .12426758 .35091148 .10913086 .32307945 .1015625 .29052735 .1015625Z"/>
<path id="font_6_7" d="M.33935548-.009765625C.3839518-.009765625 .42277018 .0014648438 .45581056 .023925782 .48885093 .04638672 .5144043 .07796732 .5324707 .1186676 .5505371 .15936788 .5595703 .20706685 .5595703 .26176454V.2627411C.5595703 .31775413 .55045577 .36560569 .53222659 .40629579 .5139974 .44699607 .488444 .47849528 .4555664 .50079348 .4226888 .5230916 .3839518 .5342407 .33935548 .5342407 .31526695 .5342407 .29256187 .53041079 .27124024 .52275088 .24991863 .51510116 .2310384 .50443527 .21459961 .49075318 .19816081 .47707115 .1850586 .4607849 .17529297 .44189454H.16796875V.734375H.08300781V0H.16796875V.08355713H.17529297C.18603516 .06401571 .19954427 .04732259 .21582031 .033477785 .23209636 .019643149 .25065104 .008977254 .27148438 .0014801025 .29231773-.0060170495 .3149414-.009765625 .33935548-.009765625M.31982423 .06549072C.2882487 .06549072 .26090495 .07346598 .23779297 .089416507 .21468099 .10536703 .19694011 .12806702 .18457031 .15751648 .17220052 .18697612 .16601563 .22172039 .16601563 .26174928V.26272584C.16601563 .30340577 .17220052 .33831278 .18457031 .3674469 .19694011 .39658103 .21468099 .41911827 .23779297 .4350586 .26090495 .45100913 .2882487 .45898438 .31982423 .45898438 .35205079 .45898438 .37955729 .45109049 .40234376 .43530274 .42513023 .41952516 .44254557 .3970693 .45458985 .36793519 .46663413 .33880107 .47265626 .3037313 .47265626 .26272584V.26174928C.47265626 .22106934 .46663413 .18608094 .45458985 .15678406 .44254557 .12749736 .42513023 .10496012 .40234376 .08917236 .37955729 .073384609 .35205079 .06549072 .31982423 .06549072Z"/>
<path id="font_6_23" d="M.123046878-.18359375C.15429688-.18359375 .18058269-.17903646 .2019043-.16992188 .2232259-.1608073 .24186199-.14526367 .2578125-.123291019 .27376304-.10131836 .28873698-.07080078 .30273438-.03173828L.5083008 .5258789H.4189453L.2578125 .041381837 .29101563 .09326172H.25146485L.28466798 .041381837 .123046878 .5258789H.032226564L.2265625-.00021362305 .21679688-.031402589C.20735677-.061625165 .1949056-.08282471 .17944336-.09500122 .16398113-.107187908 .14420574-.11328125 .12011719-.11328125 .11425781-.11328125 .10823568-.11328125 .10205078-.11328125 .09586588-.11328125 .09016927-.11279297 .08496094-.111816409V-.18115235C.09082031-.18277996 .09724935-.18359375 .10424805-.18359375 .11124674-.18359375 .11751302-.18359375 .123046878-.18359375Z"/>
<path id="font_6_2" d="M.37330628-.016601563C.42347718-.016601563 .46851603-.0077056887 .50842288 .01008606 .54832968 .027877808 .5813141 .0526886 .6073761 .08451843 .6334483 .11634827 .6503906 .1538086 .6582031 .19689942H.56933596L.5683594 .19544983C.56119796 .16859436 .5485026 .14538574 .53027346 .12582398 .51204428 .10626221 .48958335 .09114075 .46289063 .080459598 .4361979 .06978861 .40641276 .064453128 .37353517 .064453128 .32828776 .064453128 .2890625 .076182048 .25585938 .09963989 .22265625 .12309774 .19710286 .1563263 .17919922 .19932556 .16129558 .242335 .15234375 .29316203 .15234375 .35180665V.3527832C.15234375 .41175334 .16129558 .46273805 .17919922 .5057373 .19710286 .54874679 .22265625 .5819804 .25585938 .60543826 .2890625 .62889608 .328125 .640625 .37304688 .640625 .40559898 .640625 .43513999 .63455709 .46166993 .62242129 .48819987 .61028549 .5107422 .59314987 .5292969 .5710144 .54785159 .54887899 .56103518 .5227254 .56884768 .4925537H.56933596 .65771487L.6582031 .49353028C.6513672 .5383911 .63475039 .5779622 .60835269 .61224368 .58196517 .6465352 .54849246 .6733449 .5079346 .6926727 .4673767 .7120107 .42233787 .7216797 .372818 .7216797 .30896507 .7216797 .2537435 .70669558 .20715332 .6767273 .16056316 .6467692 .12464396 .6042633 .09939575 .5492096 .074147548 .49415589 .061523439 .42868043 .061523439 .3527832V.35180665C.061523439 .27623496 .074147548 .21092224 .09939575 .15586853 .12464396 .10082499 .16064453 .05831909 .20739746 .02835083 .2541504-.0016174316 .30945335-.016601563 .37330628-.016601563Z"/>
<path id="font_6_9" d="M.2722473-.009765625C.2966919-.009765625 .31934104-.0060170495 .3401947 .0014801025 .36105857 .008977254 .37963868 .019643149 .39593507 .033477785 .41223146 .04732259 .42575584 .06401571 .43650819 .08355713H.44433595V0H.5292969V.734375H.44433595V.44189454H.43652345C.427063 .4607849 .41402183 .47707115 .3973999 .49075318 .38077799 .50443527 .36179099 .51510116 .34043885 .52275088 .3190969 .53041079 .29636637 .5342407 .2722473 .5342407 .22792562 .5342407 .18921916 .5230916 .15612793 .50079348 .123046878 .47849528 .09738159 .44699607 .07913208 .40629579 .06088257 .36560569 .051757814 .31775413 .051757814 .2627411V.26176454C.051757814 .20706685 .06088257 .15936788 .07913208 .1186676 .09738159 .07796732 .12312826 .04638672 .15637207 .023925782 .18961589 .0014648438 .22824097-.009765625 .2722473-.009765625M.29174806 .06549072C.25979615 .06549072 .23240662 .073384609 .20957947 .08917236 .1867625 .10496012 .16924031 .12749736 .15701294 .15678406 .14478557 .18608094 .13867188 .22106934 .13867188 .26174928V.26272584C.13867188 .3037313 .14478557 .33880107 .15701294 .36793519 .16924031 .3970693 .1867625 .41952516 .20957947 .43530274 .23240662 .45109049 .25979615 .45898438 .29174806 .45898438 .32369996 .45898438 .35116578 .45100913 .3741455 .4350586 .3971354 .41911827 .41482545 .39658103 .42721559 .3674469 .4396057 .33831278 .44580079 .30340577 .44580079 .26272584V.26174928C.44580079 .22172039 .4396057 .18697612 .42721559 .15751648 .41482545 .12806702 .3971354 .10536703 .3741455 .089416507 .35116578 .07346598 .32369996 .06549072 .29174806 .06549072Z"/>
<path id="font_6_4" d="M.08886719 0H.17675781V.30566407H.48876954V.38378907H.17675781V.62597659H.51660159V.7050781H.08886719V0Z"/>
<path id="font_6_10" d="M.29270936-.009765625C.32366435-.009765625 .35152183-.0057779948 .37628175 .0021972657 .40105186 .010172526 .42263795 .020909628 .44104005 .03440857 .4594523 .047907514 .47444154 .06303406 .4860077 .07978821 .49757386 .09654236 .5056407 .11402893 .51020815 .13224793L.5111847 .13618469H.42578126L.42382813 .1317749C.41927085 .12097168 .41129557 .11049398 .39990235 .1003418 .38850913 .09019979 .37402345 .08185323 .3564453 .075302127 .3388672 .06876119 .31819663 .06549072 .2944336 .06549072 .26253257 .06549072 .23494466 .07258606 .21166992 .08677673 .18839519 .10097758 .17041016 .121287029 .15771485 .14770508 .14501953 .1741333 .13867188 .20611573 .13867188 .24365235V.27742005C.13867188 .31688944 .1451823 .3501638 .15820313 .37724305 .17122396 .4043325 .18880208 .4247284 .2109375 .4384308 .23307292 .45213319 .25830079 .45898438 .2866211 .45898438 .3149414 .45898438 .3400065 .45247398 .3618164 .43945313 .3836263 .42644248 .40071617 .4065908 .41308595 .37989808 .42545573 .35320536 .43164063 .3191986 .43164063 .2778778V.2441864L.47387696 .30664063H.095703128V.23828125H.5175781V.2714386C.5175781 .32377626 .508372 .36968995 .48995973 .4091797 .47154746 .44866944 .44514976 .47938539 .4107666 .5013275 .37639366 .52326968 .33525596 .5342407 .28735353 .5342407 .23977661 .5342407 .1983083 .5227661 .16294861 .4998169 .12759908 .47686769 .1002299 .44488017 .080841068 .40385438 .06145223 .36283876 .051757814 .31514994 .051757814 .26078797V.26029969C.051757814 .20527649 .06145223 .15757752 .080841068 .11720276 .1002299 .076828 .12784322 .045572919 .16368103 .0234375 .19951885 .0013020834 .24252828-.009765625 .29270936-.009765625Z"/>
<clipPath id="clip_7">
<path transform="matrix(1,0,0,-1,-24.54676,652.8603)" d="M306.164 521.8511V336.1232H288.836V521.8511Z"/>
</clipPath>
<clipPath id="clip_8">
<path transform="matrix(1,0,0,-1,-24.54676,652.8603)" d="M72.83984 211.6386H522.16018V630.3615H72.83984Z"/>
</clipPath>
<clipPath id="clip_9">
<path transform="matrix(1,0,0,-1,-24.54676,652.8603)" d="M197.1177 259.6111H397.8824V336.71253H197.1177Z"/>
</clipPath>
<clipPath id="clip_10">
<path transform="matrix(1,0,0,-1,-24.54676,652.8603)" d="M198.2577 260.7511H396.7424V335.5725H198.2577Z"/>
</clipPath>
<path id="font_4_3" d="M.0859375 0H.349823C.42019654 0 .48006187 .013926188 .52941897 .041778566 .57877609 .06963094 .6164856 .11002096 .6425476 .16294861 .6686096 .21588643 .6816406 .27997843 .6816406 .3552246V.35620118C.6816406 .42981974 .66852828 .49269105 .64230349 .54481509 .6160787 .5969391 .5782878 .63667806 .52893069 .664032 .47957359 .69139608 .419871 .7050781 .349823 .7050781H.0859375V0M.21191406 .10644531V.5986328H.3334961C.37972007 .5986328 .41927085 .5890401 .45214845 .56985476 .48502604 .5506694 .51017257 .52286276 .5275879 .48643495 .54500326 .4500173 .55371096 .405955 .55371096 .35424806V.35327149C.55371096 .30058799 .54508468 .25587464 .52783206 .21913147 .5105794 .1823883 .4855957 .15441895 .45288087 .13522339 .42016603 .116038 .3803711 .10644531 .3334961 .10644531H.21191406Z"/>
<path id="font_4_12" d="M.28245545-.0029296876C.29422508-.0029296876 .30558268-.0023600262 .31652833-.0012207031 .32748414-.00008138021 .33720909 .0011393229 .34570313 .0024414063V.096191409C.33851115 .09554037 .3320516 .0949707 .32632447 .09448242 .3206075 .09399414 .31349693 .09375 .30499269 .09375 .27982585 .09375 .26160179 .09977722 .25032044 .111831668 .23903911 .12389628 .23339844 .14313253 .23339844 .1695404V.43945313H.34570313V.5332031H.23339844V.6645508H.109375V.5332031H.02734375V.43945313H.109375V.14175415C.109375 .090270999 .12294006 .05328369 .15007019 .030792237 .17720032 .008310954 .22132874-.0029296876 .28245545-.0029296876Z"/>
<path id="font_4_9" d="M.07324219 0H.19433594V.31088258C.19433594 .33761598 .19913738 .3606771 .20874024 .38006593 .2183431 .39945475 .23185222 .41452537 .24926758 .4252777 .26668296 .43603007 .28759767 .44140626 .31201173 .44140626 .34847007 .44140626 .3754069 .4310557 .39282228 .4103546 .41023765 .3896637 .4189453 .35862733 .4189453 .31724549V0H.5410156V.34503175C.5410156 .40856935 .5252838 .457606 .4938202 .49214173 .46236674 .5266774 .41681419 .5439453 .35716249 .5439453 .31836448 .5439453 .28608705 .5357259 .2603302 .5192871 .23458354 .5028483 .21535237 .480306 .20263672 .45166017H.19433594V.5332031H.07324219V0Z"/>
<path id="font_4_10" d="M.30297853-.0107421879C.35631309-.0107421879 .40208436 .00041707359 .44029237 .022735596 .47851054 .04505412 .50794479 .0769043 .528595 .11828613 .5492452 .15966797 .5595703 .20902507 .5595703 .26635743V.26733399C.5595703 .3246765 .5491638 .3740336 .52835085 .41540528 .50753787 .4567871 .47802226 .4885559 .43980409 .51071169 .40159608 .53286746 .35598756 .5439453 .30297853 .5439453 .250295 .5439453 .20484416 .5327861 .16662598 .5104675 .12841797 .48814903 .09890747 .45629884 .07809448 .414917 .057281496 .37354533 .046875 .32435099 .046875 .26733399V.26635743C.046875 .20902507 .057200117 .15966797 .07785034 .11828613 .09850057 .0769043 .12792969 .04505412 .1661377 .022735596 .20435588 .00041707359 .24996948-.0107421879 .30297853-.0107421879M.30322267 .08798218C.27522788 .08798218 .25138346 .09498596 .23168946 .10899353 .21199544 .12301127 .19694011 .14329529 .18652344 .16984558 .17610677 .19639588 .17089844 .22856649 .17089844 .26635743V.26733399C.17089844 .3047994 .17618816 .33680726 .18676758 .36335755 .197347 .389918 .21240235 .41020204 .2319336 .4242096 .25146485 .43821717 .27522788 .44522096 .30322267 .44522096 .33121745 .44522096 .35506187 .43821717 .37475587 .4242096 .39444987 .41020204 .40950523 .389918 .41992188 .36335755 .43033854 .33680726 .43554688 .3047994 .43554688 .26733399V.26635743C.43554688 .22889202 .43033854 .19688416 .41992188 .17033386 .40950523 .14378357 .39453126 .123418178 .375 .10923767 .35546876 .095067348 .33154298 .08798218 .30322267 .08798218Z"/>
<clipPath id="clip_11">
<path transform="matrix(1,0,0,-1,-24.54676,652.8603)" d="M200.4332 580.8354H394.5668V616.85897H200.4332Z"/>
</clipPath>
<path id="font_6_19" d="M.25878907-.009765625C.2985026-.009765625 .33422853-.0030873616 .3659668 .010269165 .39770509 .023635865 .42277018 .042210897 .4411621 .06599426 .45955406 .0897878 .46875 .11732483 .46875 .14860535V.14958191C.46875 .17466736 .4634603 .19633484 .45288087 .21458435 .44230143 .23283386 .42618815 .24831136 .40454103 .26101686 .3828939 .2737325 .35546876 .28399659 .32226563 .29180909L.24121094 .31137086C.22070313 .3165792 .20402019 .32260133 .19116211 .32943727 .17830403 .33628337 .16878255 .3442688 .16259766 .35339356 .15641277 .3625183 .15332031 .37294517 .15332031 .38467408V.38565064C.15332031 .401296 .15804036 .41490174 .16748047 .4264679 .17692058 .43804423 .18969727 .44716899 .20581055 .45384217 .22192383 .4605255 .24039714 .4638672 .26123048 .4638672 .2931315 .4638672 .3190104 .45735169 .3388672 .44432069 .35872398 .43129985 .3712565 .4142151 .37646485 .3930664H.45996095C.4560547 .4218038 .44547526 .4468689 .42822267 .46826173 .41097007 .4896647 .3881022 .50616458 .35961915 .51776126 .33113609 .5293579 .2985026 .53515627 .26171876 .53515627 .22460938 .53515627 .19132488 .5284729 .16186524 .5151062 .1324056 .5017497 .10913086 .48358155 .092041019 .4606018 .07495117 .43763224 .06640625 .41148887 .06640625 .38217164V.38168336C.06640625 .35658775 .07145182 .33483378 .08154297 .3164215 .09163412 .29800926 .10725912 .28253175 .12841797 .269989 .14957683 .2574463 .17659505 .2472585 .20947266 .23942566L.29101563 .21987915C.3232422 .21205648 .34643556 .20187378 .3605957 .18933106 .37475587 .17678833 .38183595 .16156006 .38183595 .14364624V.14266968C.38183595 .12668865 .37670899 .1126709 .36645509 .100616458 .35620118 .08856201 .34204103 .07903036 .3239746 .072021488 .3059082 .06502279 .2849935 .061523439 .26123048 .061523439 .22770183 .061523439 .20060222 .06819662 .17993164 .08154297 .15926107 .09488932 .14534505 .11263021 .1381836 .13476563H.05126953C.05452474 .10569254 .06518555 .08029684 .08325195 .05857849 .10131836 .03687032 .12532552 .020050049 .15527344 .008117676 .18522136-.0038045247 .21972656-.009765625 .25878907-.009765625Z"/>
<path id="font_6_24" d="M.4803009-.11425781C.5112457-.11425781 .54096987-.11212667 .56947329-.10786438 .5979767-.10360209 .6231435-.09769694 .64497378-.090148929V-.028411866C.6348826-.03294881 .62121078-.037002565 .60395815-.04057312 .5867055-.044143678 .5675812-.046900434 .5465851-.048843385 .5255992-.050786336 .50387576-.051757814 .4814148-.051757814 .41208903-.051757814 .35171-.03768921 .3002777-.009552002 .24884542 .018585206 .20888774 .05826823 .18040467 .10949707 .15193177 .16073609 .13769531 .22099813 .13769531 .2902832V.29125978C.13769531 .34200035 .1457367 .3885142 .16181946 .4308014 .1779124 .47309876 .20066834 .5098572 .23008728 .54107668 .25950624 .57230636 .29412333 .5963796 .3339386 .6132965 .37375389 .63021346 .41755168 .6386719 .46533204 .6386719 .53034469 .6386719 .58754989 .6262207 .63694766 .60131838 .6863556 .576416 .72487387 .5416667 .75250247 .4970703 .78013107 .45247398 .7939453 .40071107 .7939453 .34178163V.34129334C.7939453 .30158998 .7898204 .2669271 .78157046 .23730469 .7733205 .2076823 .761673 .18481446 .7466278 .16870117 .73159286 .15258789 .7140452 .14453125 .693985 .14453125 .67651876 .14453125 .66293337 .14950054 .65322878 .15943909 .64352419 .16937764 .6386719 .18331401 .6386719 .20124817V.48583985H.5644531V.42626954H.5566406C.5472005 .44742839 .53222659 .46419273 .51171877 .4765625 .49121095 .48893229 .46809898 .4951172 .4423828 .4951172 .4091797 .4951172 .37980143 .4865519 .35424806 .4694214 .32869468 .45229087 .30867515 .4285482 .29418946 .39819337 .27970378 .36784873 .27246095 .33294169 .27246095 .2934723V.29249574C.27246095 .25105287 .27954103 .21482849 .29370118 .18382263 .30786134 .15282695 .3277181 .12860108 .35327149 .11114502 .37882487 .093688968 .40852867 .08496094 .4423828 .08496094 .47102867 .08496094 .49601237 .09176127 .517334 .10536194 .5386556 .11896261 .5545247 .13837178 .5649414 .16358948H.5727539L.5732422 .16065979C.57747396 .1368866 .5894368 .11767578 .60913088 .103027347 .6288249 .088378909 .65266928 .08105469 .68066409 .08105469 .71777346 .08105469 .75 .0916392 .77734377 .11280823 .8046875 .13398743 .8258464 .16396077 .8408203 .20272827 .85579428 .24150594 .86328127 .28743998 .86328127 .3405304V.34150697C.86328127 .41220603 .8466797 .47459413 .81347659 .52867129 .78027346 .5827484 .73429366 .62501528 .6755371 .6554718 .6167806 .68593856 .5488281 .7011719 .4716797 .7011719 .41178385 .7011719 .35717774 .69139608 .30786134 .6718445 .25854493 .65230306 .21598308 .62445577 .18017578 .5883026 .14436849 .5521495 .1167806 .5091553 .09741211 .45932008 .07804362 .40949504 .068359378 .3544515 .068359378 .29418946V.2932129C.068359378 .2306722 .07796732 .17432149 .09718323 .12416077 .1164093 .074010219 .14401753 .031183878 .18000794-.0043182375 .2160085-.039820356 .25933839-.0670166 .30999757-.08590698 .36065675-.10480753 .41742454-.11425781 .4803009-.11425781M.45361329 .15429688C.43245445 .15429688 .4141439 .15975952 .39868165 .17068482 .3832194 .1816101 .3713379 .19734192 .3630371 .21788025 .35473634 .23842876 .35058595 .26272074 .35058595 .29075624V.29174806C.35058595 .32011924 .35473634 .34449259 .3630371 .36486817 .3713379 .3852539 .3832194 .40082804 .39868165 .41159059 .4141439 .42235313 .43277995 .42773438 .45458985 .42773438 .48779298 .42773438 .5142415 .41550193 .53393557 .391037 .5536296 .36658225 .56347659 .33348594 .56347659 .29174806V.29075624C.56347659 .24935405 .55354818 .21625774 .5336914 .19146729 .51383468 .16668701 .48714195 .15429688 .45361329 .15429688Z"/>
<path id="font_6_22" d="M.036132814 0H.13134766L.25634767 .19824219H.26367188L.3881836 0H.4873047L.30664063 .26611329 .48535157 .5253906H.39013673L.26660157 .33007813H.25927735L.13427735 .5253906H.034179689L.21582031 .2626953 .036132814 0Z"/>
<path id="font_6_17" d="M.078125-.17578125H.16308594V.083496097H.17041016C.18017578 .06460571 .193278 .0483195 .2097168 .03463745 .2261556 .020955405 .24503581 .010284424 .26635743 .0026245118 .28767906-.005025228 .31038413-.008850098 .33447267-.008850098 .379069-.008850098 .41788737 .002380371 .45092774 .024841309 .4839681 .04731242 .5095215 .078816737 .5275879 .11935425 .5456543 .15989177 .5546875 .20767212 .5546875 .2626953V.26367188C.5546875 .31837974 .5456543 .3660787 .5275879 .4067688 .5095215 .4474691 .4839681 .47904969 .45092774 .5015106 .41788737 .52398177 .379069 .5352173 .33447267 .5352173 .3100586 .5352173 .2874349 .5314738 .26660157 .5239868 .24576824 .5164998 .22721355 .50582888 .2109375 .49197389 .19466146 .47812907 .18115235 .46143595 .17041016 .44189454H.16308594V.5263672H.078125V-.17578125M.3149414 .06640625C.28336589 .06640625 .25602214 .07438151 .23291016 .09033203 .20979817 .106282558 .1920573 .12890625 .1796875 .15820313 .1673177 .1875 .16113281 .22233582 .16113281 .26271058V.26368714C.16113281 .30436708 .1673177 .33927409 .1796875 .3684082 .1920573 .3975525 .20979817 .42009483 .23291016 .43603517 .25602214 .4519857 .28336589 .45996095 .3149414 .45996095 .34716798 .45996095 .37467448 .45206706 .39746095 .4362793 .4202474 .4205017 .43766276 .39804078 .44970704 .36889649 .4617513 .33976237 .46777345 .3046926 .46777345 .26368714V.26271058C.46777345 .2220103 .4617513 .18701172 .44970704 .15771485 .43766276 .12841797 .4202474 .10587565 .39746095 .09008789 .37467448 .07430013 .34716798 .06640625 .3149414 .06640625Z"/>
<path id="font_6_26" d="M.1459961-.0048828127C.16357422-.0048828127 .1784668 .0013020834 .19067383 .013671875 .20288086 .026041666 .20898438 .04084778 .20898438 .05809021 .20898438 .075678508 .20288086 .09057617 .19067383 .1027832 .1784668 .114990238 .16357422 .12109375 .1459961 .12109375 .12874349 .12109375 .11393229 .114990238 .1015625 .1027832 .08919271 .09057617 .08300781 .075678508 .08300781 .05809021 .08300781 .04084778 .08919271 .026041666 .1015625 .013671875 .11393229 .0013020834 .12874349-.0048828127 .1459961-.0048828127Z"/>
<path id="font_6_8" d="M.29296876-.009765625C.33528648-.009765625 .37141929-.002766927 .4013672 .011230469 .4313151 .025238038 .45540367 .044611616 .4736328 .0693512 .49186198 .09410095 .5045573 .12226868 .51171877 .15385437L.5126953 .15922547 .42871095 .15873719 .42773438 .15579224C.41796876 .1265157 .40185548 .104146327 .37939454 .08868408 .3569336 .07322184 .32796226 .06549072 .29248048 .06549072 .261556 .06549072 .23453777 .073628749 .21142578 .089904788 .1883138 .106180828 .17041016 .12912496 .15771485 .15873719 .14501953 .18834941 .13867188 .22333782 .13867188 .2637024V.26467896C.13867188 .30438233 .14493816 .3387197 .1574707 .36769105 .17000325 .39666239 .18782552 .41911827 .2109375 .4350586 .23404949 .45100913 .26123048 .45898438 .29248048 .45898438 .33024089 .45898438 .3606771 .44977317 .38378907 .4313507 .40690104 .41293846 .42171226 .39057923 .42822267 .36427308H.42871095 .5126953L.51220706 .3671875C.5073242 .3983663 .49560548 .42653404 .47705079 .45169068 .4584961 .47684733 .4337565 .4968923 .40283204 .51182559 .37190757 .526769 .3351237 .5342407 .29248048 .5342407 .24365235 .5342407 .20117188 .52317306 .16503906 .5010376 .12890625 .4789022 .100992839 .4476471 .08129883 .40727235 .061604818 .36690776 .051757814 .31937663 .051757814 .26467896V.2637024C.051757814 .20803833 .0616862 .15977478 .08154297 .11891174 .10139974 .078048709 .12931316 .04638672 .1652832 .023925782 .20125325 .0014648438 .24381511-.009765625 .29296876-.009765625Z"/>
<clipPath id="clip_12">
<path transform="matrix(1,0,0,-1,-24.54676,652.8603)" d="M202.7902 221.7354H425.0827V257.75895H202.7902Z"/>
</clipPath>
<path id="font_6_5" d="M.08886719 0H.17675781V.27929688H.34498597C.34596253 .27929688 .3468577 .27929688 .3476715 .27929688 .34848533 .27929688 .3493856 .27929688 .3503723 .27929688L.50146487 0H.6044922L.44132997 .29296876C.48529563 .30696617 .51989749 .3318685 .5451355 .36767579 .5703837 .40348307 .5830078 .44580079 .5830078 .4946289V.49560548C.5830078 .53792318 .5737203 .57470706 .55514529 .60595706 .53657028 .63720706 .51042178 .66153976 .47669984 .6789551 .4429779 .6963704 .4034678 .7050781 .35816957 .7050781H.08886719V0M.17675781 .35742188V.6269531H.3464508C.3917694 .6269531 .42738853 .6150716 .4533081 .5913086 .4792277 .5675456 .4921875 .53466799 .4921875 .49267579V.49169923C.4921875 .44874064 .47987876 .4156189 .45526124 .39233399 .4306539 .36905924 .39569093 .35742188 .3503723 .35742188H.17675781Z"/>
<path id="font_6_25" d="M.07128906 .24414063H.3984375V.3232422H.07128906V.24414063Z"/>
</defs>
<g clip-path="url(#clip_0)">
<g clip-path="url(#clip_1)">
<path transform="matrix(1,0,0,-1,-24.54676,652.8603)" d="M142.7026 625.8014H452.2974C471.4605 625.8014 482.9583 625.8014 490.6235 622.6013 501.6736 618.5794 510.3781 609.8749 514.4 598.8248 517.6002 591.1596 517.6002 579.6617 517.6002 560.4987V281.5013C517.6002 262.3383 517.6002 250.8404 514.4 243.1752 510.3781 232.1251 501.6736 223.4206 490.6235 219.3987 482.9583 216.1986 471.4605 216.1986 452.2974 216.1986H142.7026C123.5395 216.1986 112.0417 216.1986 104.3765 219.3987 93.32643 223.4206 84.62187 232.1251 80.59997 243.1752 77.39984 250.8404 77.39984 262.3383 77.39984 281.5013V560.4987C77.39984 579.6617 77.39984 591.1596 80.59997 598.8248 84.62187 609.8749 93.32643 618.5794 104.3765 622.6013 112.0417 625.8014 123.5395 625.8014 142.7026 625.8014ZM142.7026 625.8014" fill="#bfbfbf"/>
<path transform="matrix(1,0,0,-1,-24.54676,652.8603)" d="M75.93467 531.2678C75.89054 534.6066 75.8729 548.9776 75.96557 549.1227 75.94792 543.7517 76.00969 532.284 75.93467 531.2678ZM75.89051 502.3807C75.82873 507.6065 75.86846 519.0743 75.92583 522.7033 75.90376 516.6065 75.96553 504.2678 75.89051 502.3807ZM76.15533 546.655C76.16084 548.5784 76.16112 550.91 76.15961 553.38 76.15885 554.6151 76.15765 555.8846 76.15642 557.1551 76.1552 558.4255 76.15392 559.3206 76.15314 561.1445 76.14999 568.4403 76.2 573.7259 76.27626 575.7491 76.22796 573.5144 76.2007 570.6538 76.19263 567.3349 76.18456 564.016 76.19119 560.2548 76.19285 557.778 76.19615 552.8243 76.19284 548.3969 76.15533 546.655ZM171.5543 213.4051C168.2156 213.361 153.8446 213.3433 153.8446 213.436 159.0704 213.4183 170.5382 213.4801 171.5543 213.4051ZM91.69694 223.5643C89.51233 225.251 86.29492 228.3007 83.81384 231.6956 81.33276 235.0906 79.60195 238.7628 78.88035 240.5731 80.12558 237.5455 82.54081 233.2452 85.27715 229.92 88.01349 226.5947 90.93874 224.2122 91.69694 223.5643ZM74.94002 263.2968C74.85094 266.3027 74.81466 269.6388 74.80147 273.0295 74.78828 276.4202 74.79533 280.4284 74.8014 282.4244 74.81354 286.4164 74.83561 288.7752 74.87974 287.6865 74.86098 286.8156 74.85215 285.1825 74.84781 283.2047 74.84346 281.2268 74.84112 277.6706 74.84907 274.6443 74.86498 268.5918 74.97347 263.9397 74.94002 263.2968ZM79.85774 537.3646C79.82243 525.7517 79.89303 517.3323 79.8886 509.4936 79.87091 470.1548 79.70328 529.6711 79.85774 537.3646ZM75.07397 349.5254C75.07396 341.6867 75.0563 335.4447 75.00776 331.6705 75.01218 338.9286 74.97688 349.0899 75.07397 349.5254ZM75.16671 417.0256C75.11375 418.7675 75.14027 458.8322 75.2109 481.0419 75.22412 462.1709 75.21966 415.2836 75.16671 417.0256ZM79.89295 443.445C79.82232 417.4611 79.8311 375.9448 79.79137 357.0738 79.75163 338.3479 79.70756 390.461 79.72526 438.3643 79.74737 486.4129 79.91943 446.7837 79.95476 466.3806 79.99449 485.8322 80.03858 447.6547 79.99002 428.203 79.94146 408.8965 79.95914 441.1224 79.89295 443.445ZM80.21951 444.6063C80.2151 454.0418 80.23276 462.1709 80.28131 467.5418 80.31219 457.816 80.33866 448.5257 80.21951 444.6063ZM148.3639 625.3115C151.5575 626.2294 174.2027 626.9796 199.0253 627.5179 205.2049 627.6388 211.3844 627.7597 217.7512 627.8842 263.1868 628.2857 308.9127 628.4931 354.6387 628.5945 363.6924 628.6105 372.7461 628.6266 382.0742 628.6431 396.0823 628.6761 410.1267 628.6993 424.2074 628.7164 431.2477 628.7249 438.2972 628.7319 445.3556 628.7379 447.1203 628.7394 448.8855 628.7409 450.6512 628.7422 452.417 628.7436 455.0918 628.7462 457.5286 628.7435 462.4022 628.7382 466.7452 628.7103 470.6485 628.5916 475.8271 628.4333 480.2306 628.121 484.1124 627.4533 487.9942 626.7856 490.9594 625.961 495.6561 623.6883 503.9134 619.7213 510.5794 613.2459 514.804 605.3126 519.0286 597.3792 519.6906 592.3184 520.2068 584.1142 520.4649 580.0121 520.5509 575.3748 520.5791 570.0457 520.5932 567.3812 520.5925 564.5439 520.5905 561.515 520.5884 558.4861 520.5861 557.053 520.5842 554.9844 520.5763 546.7102 520.5711 538.4178 520.5744 530.071 520.5788 513.3774 520.6185 496.3935 520.742 478.9741 520.8082 470.2644 520.7861 432.9579 520.7066 419.7482 520.9008 432.5224 520.8213 371.2641 520.8169 374.0222 520.7463 367.1996 520.7022 360.0867 520.6845 352.9738 520.6624 345.8609 520.6315 354.8609 520.6095 363.8609 520.5698 355.877 520.5521 347.8931 520.5477 339.7641 520.5535 331.2373 520.5593 322.7105 520.5653 313.9253 520.5852 306.7761 520.5962 299.4908 520.6001 292.1692 520.6011 290.3388 520.6016 288.5061 520.6018 286.6727 520.6019 284.8394 520.6016 283.7201 520.6009 281.0138 520.5994 275.6013 520.5942 270.7989 520.5119 266.514 520.3473 257.9442 519.8851 251.4391 518.4891 246.1419 517.7911 243.4932 516.8157 240.8309 515.1379 237.531 513.4601 234.2311 511.3963 231.2381 509.0565 228.5959 505.8727 224.9753 501.7162 221.4932 496.518 218.8226 491.3198 216.1519 487.5532 215.0623 482.2743 214.3274 476.9954 213.5924 470.4534 213.3769 461.7979 213.3254 457.4701 213.2996 452.3842 213.3086 448.9264 213.3092 445.4686 213.3098 441.9644 213.3105 438.425 213.3113 410.1094 213.3173 379.5347 213.3274 352.3532 213.3393 297.9901 213.363 257.1997 213.394 275.1997 213.4138 315.845 213.4667 294.9417 213.5418 284.0546 213.555 277.6675 213.5594 269.1029 213.5683 259.5223 213.5771 259.8126 213.5418 260.5384 213.5109 261.99 213.4933 243.8448 213.4668 218.2964 213.3565 193.3285 213.458 197.9737 213.4757 203.9253 213.4757 206.1028 213.5242 193.4737 213.5198 203.4899 213.6213 195.2156 213.6522 172.1349 213.6787 161.1027 213.7052 187.8124 213.6963 175.4011 213.7405 165.2398 213.799 155.1147 213.8624 150.0522 213.8941 145.7752 213.9205 138.3439 213.9616 130.9126 214.0028 124.3169 214.0608 118.3834 214.5102 109.3908 215.125 114.4127 214.8244 116.9959 214.5593 113.182 214.8655 108.7279 215.4417 104.77 216.8595 102.7911 217.5683 99.5571 218.8881 96.78777 220.5035 94.01843 222.1189 91.45302 224.0503 89.20394 226.1618 84.70576 230.3847 81.5574 235.3352 79.69232 239.4406 77.82723 243.5461 77.48528 245.1783 77.29911 245.8073 77.20496 246.1215 77.41085 245.1717 78.01796 243.4833 78.62508 241.795 80.06932 237.9049 82.6474 233.9158 85.22547 229.9267 88.96371 225.7211 93.80745 222.3205 96.22932 220.6202 98.91626 219.1202 101.7984 217.9192 104.6806 216.7182 106.2035 216.2163 108.4123 215.699 117.2476 213.6298 130.0451 213.8772 140.291 213.8671 145.414 213.862 147.1626 213.8591 148.2354 213.8536 149.3083 213.8481 148.9091 213.8414 146.5865 213.8332 144.6994 213.8266 142.0124 213.8202 138.3469 213.8216 134.6815 213.823 131.0168 213.8365 127.7291 213.8947 121.1537 214.011 116.1522 214.3928 113.5705 214.7026 119.2949 213.9694 127.084 213.8088 136.242 213.7799 145.3999 213.7511 151.0865 213.7604 155.2962 213.7405 150.7236 213.7317 146.1092 213.7218 138.7185 213.7229 131.3278 213.724 125.5954 213.7995 121.8714 213.9509 131.1419 213.5409 141.0703 213.6831 143.6832 213.6478 142.0683 213.6473 139.4729 213.6459 137.3635 213.6485 135.254 213.6512 133.2891 213.658 131.4302 213.6738 127.7123 213.7053 124.4116 213.7706 121.3207 213.916 115.1389 214.2068 109.7319 214.6721 104.4848 216.6031 102.1629 217.472 103.1873 217.1534 103.5166 217.035 103.846 216.9165 103.343 216.3905 96.69272 220.2681 95.50788 220.987 97.66576 219.6456 100.1969 218.4749 102.728 217.3042 104.8215 216.6065 104.5335 216.7357 102.5405 217.4744 98.57047 219.0885 95.08251 221.3471 91.59455 223.6058 88.2566 226.5547 85.55642 229.8038 82.85623 233.0529 80.80067 236.583 79.42385 239.699 78.04702 242.815 77.61753 244.3144 77.32013 245.3601 77.03242 246.3803 77.07649 246.2533 77.30018 245.4782 77.52388 244.7032 77.75523 244.0009 78.57658 241.8353 80.21927 237.5039 83.18132 233.0082 83.32438 232.8284 81.62594 235.2891 80.16752 237.9637 79.00275 240.8121 77.83798 243.6604 77.37148 245.0856 76.86431 247.2816 75.84995 251.6735 75.42547 256.8744 75.23354 263.1932 75.13758 266.3526 75.10142 269.7899 75.08777 273.5258 75.07411 277.2616 75.08066 281.4427 75.08217 284.2063 75.08518 289.7335 75.08812 295.1124 75.09102 300.2612 75.10262 320.856 75.11367 337.7673 75.12692 345.7512 75.149 361.8641 75.14898 346.7673 75.17104 339.9447 75.20636 358.6706 75.20638 372.7513 75.21964 394.961 75.23289 409.1869 75.24612 403.5255 75.26818 398.1546 75.27701 401.9288 75.28584 405.2675 75.29467 407.4449 75.3035 409.0417 75.31233 413.1062 75.32998 415.8643 75.34763 407.1546 75.32996 390.8965 75.36084 383.7836 75.42263 396.8481 75.36088 427.9127 75.43592 439.2353 75.48444 421.2353 75.47118 401.9288 75.50205 381.7513 75.54622 421.0901 75.34327 461.4451 75.5154 493.0903 75.52863 487.429 75.586 484.9613 75.61689 480.3161 75.56836 492.3645 75.50218 510.2194 75.61693 520.9614 75.63017 526.913 75.6699 538.6711 75.68756 550.4292 75.71402 529.8162 75.73166 516.0259 75.69634 501.6548 75.71399 501.9452 75.73164 503.2516 75.74488 505.7194 75.88165 473.4935 75.62569 455.0579 75.58153 432.1224 75.58736 430.35 75.59318 428.5776 75.59918 426.7514 75.68743 419.3482 75.65657 445.4773 75.71835 448.0902 75.74921 414.1224 75.68739 377.1061 75.78004 360.4125 75.81097 400.7675 75.77129 436.3321 75.85958 466.6709 75.95666 458.8322 75.89043 428.3482 75.94779 413.832 76.04052 479.8806 76.04494 486.558 76.0626 491.929 76.07133 486.8513 76.08007 481.7735 76.08906 476.5419 76.10654 477.8353 76.12402 479.1287 76.14202 480.4612 76.15088 509.4936 76.1465 543.6066 76.17739 541.8646 76.19945 540.5582 76.21707 513.9936 76.21705 485.9774 76.25782 488.8995 76.2986 491.8216 76.34062 494.8322 76.34946 511.2355 76.39581 528.7275 76.43168 546.2195 76.44065 550.5925 76.44896 554.9655 76.45587 559.3215 76.45933 561.4995 76.4606 565.1318 76.47352 568.012 76.48645 570.8921 76.51145 573.5642 76.56317 576.0482 76.77004 585.9846 77.41605 592.9218 79.34229 598.1928 78.74789 596.4535 78.67932 595.9519 78.87136 596.5391 79.0634 597.1262 79.40921 598.4238 80.84955 601.6198 78.73452 596.7649 77.94759 593.5288 77.3695 587.953 76.79141 582.3772 76.69704 575.3114 76.69321 567.979 76.7374 572.9958 76.90775 580.6079 77.06616 582.7829 76.79175 577.2659 76.75172 566.1323 76.81294 562.1265 76.82998 573.406 76.85856 582.3157 77.72932 589.2294 78.1647 592.6862 78.81441 595.6575 79.79404 598.2375 80.77368 600.8175 82.93149 605.5376 85.3583 608.8747 87.40191 611.5424 81.68573 602.7071 82.13727 603.4677 85.72137 610.4744 92.37024 617.477 100.4013 621.3765 104.4168 623.3262 107.022 624.0917 109.915 624.6762 112.808 625.2606 115.8418 625.5544 118.5417 625.7224 112.3167 625.2555 106.1435 624.6103 98.23435 620.1382 90.32523 615.666 85.20949 608.706 83.22716 605.2112 85.84624 609.7117 89.29452 613.6564 93.52141 616.8875 97.70925 620.1169 101.4275 621.6545 102.466 622.0808 103.5045 622.5071 101.6701 622.1931 96.64521 618.9981 91.25436 615.5666 91.65885 615.2816 92.90048 616.2732 94.31413 617.3967 96.69171 619.1269 99.71152 620.6727 101.2214 621.4456 103.4261 622.3163 104.5232 622.7589 105.6203 623.2014 106.8104 623.5837 108.0434 623.9001 112.9756 625.1658 118.9102 625.4076 118.5698 625.3219 117.0531 625.2156 114.5142 625.0131 111.8713 624.5821 110.5499 624.3666 109.1993 624.0923 107.897 623.7437 106.5947 623.3952 105.9204 623.1372 104.0468 622.4331 96.55238 619.6168 90.6681 614.2129 88.58142 611.8466 90.20408 613.5691 93.42491 616.5494 96.77235 618.6621 100.1198 620.7747 103.4843 622.0593 104.1151 622.2508 97.50619 619.7866 93.44555 616.4907 90.63067 613.8002 87.81578 611.1097 86.23548 608.9151 85.10148 607.2221 82.83347 603.8362 82.19766 602.4687 80.92932 599.193 82.00144 602.0734 86.18387 608.8082 85.97158 608.6074 83.45431 605.1619 81.28742 600.3881 80.31561 597.7163 79.34379 595.0445 78.70922 591.9157 78.29721 588.1696 77.8852 584.4235 77.69602 580.0609 77.61067 574.9076 77.52531 569.7544 77.54062 562.5647 77.54099 558.1227 77.60718 559.7195 77.68662 559.1389 77.73074 557.5421 77.73295 561.3163 77.71719 567.4037 77.78883 573.073 77.86048 578.7422 77.96133 584.6047 78.77044 590.2809 78.61515 588.7506 78.23171 585.3238 78.03836 579.8183 77.94169 577.0655 77.88456 573.7844 77.85626 570.0061 77.82797 566.2278 77.82452 561.3889 77.81459 558.4131 77.83352 558.5089 77.85245 558.6047 77.87196 558.7034 77.87141 561.1167 77.86736 565.1893 77.88359 568.7196 77.89982 572.25 77.93769 575.6234 78.03736 578.7633 78.23669 585.0429 78.69118 590.3506 79.74433 594.5792 80.27091 596.6934 80.88505 598.4638 82.11617 601.2117 83.34729 603.9597 84.86875 606.5012 86.59135 608.7848 90.03655 613.3519 94.2857 616.8519 98.51076 619.2502 94.67257 617.0389 85.7946 610.6988 81.40607 599.284 80.30893 596.4303 79.93704 595.2363 79.46556 592.8802 78.99408 590.524 78.66775 587.8342 78.44838 584.8075 78.00965 578.754 77.98689 571.2686 77.97821 563.1722 78.00191 564.1999 78.02607 565.2046 78.05205 566.2153 78.02645 556.5038 78.04378 549.9755 78.04956 542.3455 78.05534 534.7154 78.06499 526.8767 78.07381 518.9291 78.09144 503.0339 78.10577 486.7032 78.07928 470.7354 78.23374 486.1225 78.1102 504.1226 78.14552 524.0097 78.16318 533.1549 78.21173 541.5743 78.26028 550.4292 78.25836 552.0078 78.25648 553.7809 78.25467 555.7202 78.25286 557.6594 78.25046 559.4767 78.24964 562.7063 78.24802 569.1656 78.24819 575.4621 78.48331 580.986 78.71844 586.5099 79.20264 591.2627 80.23237 595.1197 80.74723 597.0481 81.40631 598.9071 82.60434 601.5103 83.80237 604.1135 85.27571 606.5533 86.96482 608.7773 90.34305 613.2251 94.58866 616.7835 99.09079 619.2791 101.3419 620.5269 104.0572 621.6076 105.5001 622.1474 106.9431 622.6872 108.4641 623.0995 110.0184 623.4227 116.2357 624.7155 123.0916 624.752 125.4624 624.8007 128.0743 624.8548 124.366 624.853 118.8578 624.4694 116.1038 624.2775 113.0014 623.9631 110.1165 623.3629 108.674 623.0628 107.2814 622.6905 105.9744 622.227 104.6674 621.7635 102.5845 620.9601 100.6253 619.9803 92.7886 616.061 86.63211 609.1647 83.476 603.0402 80.3199 596.9156 80.11665 594.1575 80.10753 594.0801 80.09841 594.0027 80.42552 595.5162 81.07979 597.3152 81.73405 599.1142 83.37251 602.9975 85.10516 605.7583 86.83781 608.5191 88.66954 610.5855 89.29874 611.2736 89.92794 611.9618 89.17314 611.4414 86.77792 608.1921 85.52739 606.4974 84.03998 604.1861 82.72604 601.3139 81.41209 598.4416 80.66323 596.3324 80.06658 593.6768 78.87328 588.3655 78.52042 580.59 78.43114 572.0649 78.4982 571.4719 78.56622 570.8698 78.63717 570.2393 78.68908 577.9298 78.94908 584.4865 79.45468 588.7556 79.96027 593.0247 80.64452 595.2944 80.63 595.5019 80.90795 596.4654 81.16035 597.1694 81.87505 599.0415 82.58975 600.9136 83.5039 602.8374 84.49788 604.5615 86.48586 608.0096 88.80281 610.6099 89.44072 611.2567 88.12946 609.8063 86.37949 607.442 86.40837 607.4217 88.02247 609.7092 90.81157 612.65 91.13947 612.9126 86.1397 608.0571 81.8556 600.2041 80.42246 594.2028 78.98932 588.2015 78.73066 579.5675 78.67591 569.305 78.70049 567.5649 78.73069 565.7494 78.76401 563.7917 78.77076 563.9974 78.76275 568.583 78.84804 573.8902 78.93333 579.1974 79.16227 585.0054 79.72933 589.3121 80.32918 593.8547 79.8843 591.8394 79.39463 585.754 79.1498 582.7113 78.97564 578.4095 78.91483 572.8115 78.88442 570.0125 78.87707 566.8945 78.87554 563.5123 78.874 560.1302 78.87479 557.8143 78.87368 555.5098 78.91009 552.5877 78.94649 549.6656 78.984 546.655 78.98179 549.8485 78.98069 553.2961 78.98125 557.034 78.9818 560.7719 78.96586 566.8779 79.02421 572.2381 79.1092 578.4915 79.2565 580.8338 79.42705 583.2225 79.5976 585.6112 79.74016 587.9876 80.42981 591.7418 79.82088 588.2779 79.47924 583.9338 79.31959 578.4655 79.23976 575.7314 79.20276 572.7174 79.18651 569.4044 79.17025 566.0914 79.1739 561.779 79.17432 559.2115 79.17596 548.9413 79.17154 538.7437 79.1605 529.6711 79.22748 523.0604 79.29446 516.4497 79.36347 509.6387 79.39437 524.7356 79.45176 538.6711 79.50031 546.9453 79.49149 553.6227 79.48092 560.7281 79.53214 564.2011 79.54419 559.8087 79.55235 563.459 79.58247 567.4374 79.61258 571.4158 79.69712 575.4534 79.72047 573.9861 79.66222 571.355 79.6319 567.8515 79.61938 563.5821 79.60686 559.3127 79.60154 556.3717 79.59354 553.2054 79.57753 546.8727 79.55767 540.8485 79.5003 537.6549 79.50028 523.7194 79.50468 508.4774 79.50025 494.9774 79.5119 493.2529 79.52355 491.5284 79.53555 489.7516 79.54439 501.2194 79.56205 512.1065 79.60178 524.3001 79.72534 518.7839 79.72972 485.1064 79.65909 460.7192 79.74729 411.074 79.29713 360.848 79.23088 311.2027 79.23088 309.1704 79.24412 306.2672 79.26177 303.0737 79.29526 299.4809 79.32875 295.8882 79.36325 292.1865 79.37209 304.0898 79.38975 314.6866 79.41624 323.3963 79.50887 288.2672 79.48689 373.6222 79.57957 379.1384 79.61707 364.9125 79.63829 347.5839 79.65061 328.5654 79.65677 319.0562 79.66071 309.1245 79.66334 298.947 79.66466 293.8583 79.66566 288.7081 79.66644 283.5185 79.66683 280.9238 79.6634 276.8281 79.6782 273.4038 79.69299 269.9794 79.72741 266.8442 79.80788 263.9774 80.12973 252.5102 80.46224 246.9643 85.29425 238.3818 87.71026 234.0906 90.9288 230.357 94.7073 227.368 98.48579 224.3789 103.7513 221.9588 106.6771 220.9624 112.5289 218.9698 121.1751 218.5774 133.0724 218.5094 136.0467 218.4924 139.2189 218.4943 142.585 218.4963 144.268 218.4974 144.8845 218.4984 146.0029 218.4995 147.1214 218.5007 148.2316 218.5018 149.3332 218.503 153.7397 218.5078 158.0089 218.5133 162.1188 218.5197 146.2962 218.5285 141.2155 218.5417 158.1994 218.5726 162.7981 218.5813 167.3969 218.5901 172.1349 218.5991 163.77 218.6096 155.3642 218.6157 146.9545 218.6188 144.8521 218.6196 142.7043 218.6192 139.7136 218.621 136.7229 218.6229 133.935 218.6292 131.3357 218.6535 126.1371 218.7021 121.6921 218.8244 117.8918 219.1212 114.0915 219.4179 110.9393 219.8913 108.3169 220.6075 107.0058 220.9656 106.1025 221.2996 104.2664 222.0231 102.4304 222.7465 100.6707 223.6076 98.99916 224.5922 92.31308 228.5305 87.04984 234.4419 83.89982 241.4259 82.32481 244.9178 81.72432 246.9184 81.17644 249.7569 80.62856 252.5955 80.2934 255.9268 80.09333 259.8075 79.69319 267.569 79.79243 279.401 79.79702 286.929 79.80621 301.9849 79.82884 316.3197 79.87519 329.6382 79.87959 321.7269 79.87875 312.7904 79.87682 303.6294 79.87488 294.4683 79.83989 285.8449 79.87971 274.151 79.91952 262.4571 80.28695 254.9926 81.2094 250.0691 81.67062 247.6074 82.24118 245.7734 82.82379 244.3577 83.1151 243.6498 83.69055 242.1585 84.12238 241.2319 84.55422 240.3053 84.97407 239.5063 85.35277 238.8327 84.30606 240.738 83.17867 243.4863 82.63978 244.9294 82.10088 246.3725 81.66298 248.0217 81.33606 249.7066 80.68221 253.0764 80.45359 256.6173 80.41394 257.4932 80.70157 253.7285 81.2555 248.5061 82.90905 244.415 83.32243 243.3922 84.25457 241.0347 85.14912 239.3498 86.04367 237.6649 87.088 236.0127 88.27677 234.4321 90.65432 231.271 93.61868 228.4039 97.00035 226.09 100.382 223.7761 104.6298 221.9663 107.1178 221.1562 109.6059 220.3461 112.5462 219.8262 115.7646 219.4945 122.2014 218.831 129.8395 218.8423 135.1167 218.8461 122.2117 218.9016 113.0226 219.2435 106.9653 221.2666 103.9366 222.2782 98.56231 224.7588 94.69634 227.8755 90.83036 230.9922 87.57078 234.9028 85.18735 239.4037 83.99563 241.6541 83.0256 244.1362 82.49602 245.7154 81.96645 247.2945 81.54224 249.0916 81.21053 251.1468 80.54713 255.2572 80.26116 260.3962 80.14902 266.786 80.09294 269.9808 80.0786 273.4883 80.07524 277.3362 80.07188 281.1842 80.07482 284.1172 80.07531 286.8631 80.07629 292.3549 80.07739 297.8252 80.07871 303.2551 80.08923 346.6947 80.11354 387.5578 80.20183 416.2998 80.18526 394.5618 80.17889 370.9277 80.17659 346.5405 80.17544 334.3469 80.17531 321.9651 80.17542 309.5379 80.17548 303.3243 80.1756 297.0993 80.17569 290.8809 80.17574 287.7717 80.17577 284.6641 80.17579 281.5604 80.17579 280.0086 80.17573 277.0859 80.18114 275.0004 80.18654 272.9149 80.19741 270.9381 80.21915 269.0642 80.30608 261.5685 80.57813 255.716 81.31544 251.1559 81.68409 248.8759 82.16598 246.9213 82.77645 245.2314 83.38692 243.5416 84.67275 240.4143 86.08958 238.0066 91.75689 228.3757 102.3466 222.2352 110.0346 220.541 113.8786 219.6939 118.7098 219.2923 124.6288 219.1079 127.5883 219.0157 130.8183 218.9762 134.3257 218.9579 137.8331 218.9397 142.0417 218.9414 144.6676 218.9388 155.1714 218.9287 165.149 218.9157 174.4575 218.8992 161.5381 218.8815 161.393 218.8506 168.2156 218.8021 191.305 218.7788 214.3944 218.7554 238.1835 218.7314 242.9738 218.7535 241.3771 218.7667 229.9093 218.7976 220.4738 218.8241 214.9576 218.8153 211.9092 218.8638 218.2964 218.8859 291.8933 218.877 233.3932 218.9079 218.8044 218.9157 201.5483 218.9251 184.7935 218.9353 176.4161 218.9404 168.164 218.9457 160.4333 218.9511 152.7026 218.9565 146.3626 218.9517 137.6893 218.97 120.3428 219.0065 114.4126 219.8154 112.8391 220.065 112.0523 220.1897 112.4755 220.088 114.7379 219.8239 117.0004 219.5597 120.9433 219.1847 129.8104 219.0761 132.0272 219.0489 134.3455 219.0383 136.7572 219.0342 139.1689 219.0301 142.0364 219.0323 143.7408 219.0334 147.1495 219.0356 150.4139 219.038 153.529 219.0404 159.7593 219.0454 165.3929 219.0508 170.3907 219.0565 180.3865 219.0679 187.8396 219.0806 192.4394 219.0933 201.6391 219.1187 199.4253 219.144 183.3124 219.1595 175.2196 219.1672 162.7629 219.1805 149.1654 219.1962 147.4657 219.1982 145.7482 219.2002 144.0191 219.2022 142.2901 219.2043 139.5292 219.2052 137.1439 219.2117 132.3732 219.2247 128.1277 219.2622 124.4023 219.3844 116.9514 219.6287 111.618 220.2629 107.8573 221.3957 104.0965 222.5285 98.60498 225.2771 95.11366 228.0685 91.62233 230.86 89.34145 233.7212 87.95946 235.701 85.19549 239.6606 84.81931 239.3035 89.83405 233.2983 92.33081 230.3084 95.66238 227.2989 99.91851 224.8918 102.0466 223.6883 104.9294 222.5073 106.4947 221.9385 108.06 221.3697 109.9101 220.8951 112.1361 220.5236 116.5882 219.7807 122.5402 219.4785 130.5742 219.3954 132.5827 219.3746 134.7213 219.3657 136.9986 219.3624 139.276 219.3592 142.0483 219.3612 143.7362 219.3624 147.1118 219.3647 150.5172 219.3669 153.9353 219.3691 181.2801 219.3868 209.4415 219.4 229.7641 219.3889 270.5546 219.3668 202.1834 219.0712 262.1352 219.0623 322.087 219.0535 272.1513 219.1638 283.6191 219.1594 301.7643 219.155 335.1515 219.1594 366.7968 219.1637 389.0065 219.1814 417.6034 219.1769 431.9744 219.2255 430.9582 219.2784 363.3129 219.2388 390.0226 219.2917 406.4622 219.2917 423.3826 219.293 439.0442 219.2932 442.9596 219.2932 446.7963 219.2931 450.5272 219.293 454.258 219.2928 460.2931 219.2863 464.5361 219.3332 473.0221 219.4271 478.808 219.7816 482.964 220.4852 485.0421 220.837 486.7091 221.265 488.0853 221.7341 489.4615 222.2033 491.4815 222.9999 493.14 223.8082 496.4572 225.4246 498.684 227.0942 499.9982 228.1389 502.6266 230.2284 502.2306 229.1418 496.3241 225.464 500.3097 227.9232 503.6472 231.029 506.2905 234.5038 508.9339 237.9785 511.1278 242.855 512.0149 245.3124 513.7893 250.227 514.3358 257.164 514.515 266.1442 514.6045 270.6343 514.6053 275.625 514.6067 281.1023 514.6074 283.8409 514.6082 284.9122 514.609 286.7137 514.6098 288.5153 514.6107 290.2917 514.6116 292.0444 514.6153 299.0553 514.62 305.6874 514.6255 312.0382 514.502 351.5222 514.5241 397.3933 514.4932 402.4739 514.4535 408.4255 514.7052 516.1355 514.3566 556.6356 514.3572 556.8262 514.358 557.2883 514.3592 557.9889 514.3603 558.6894 514.3618 559.2145 514.3635 560.905 514.3669 564.286 514.3794 568.6254 514.3323 573.0508 514.2382 581.9017 513.8378 590.6221 512.0327 596.0849 511.1301 598.8163 508.9454 603.6448 506.4424 607.0372 503.9393 610.4297 500.9887 613.1709 498.0989 615.2158 495.2091 617.2608 492.3893 618.6176 490.1363 619.4929 487.8833 620.3682 487.382 620.5269 486.9155 620.6751 481.7084 622.1675 474.9543 622.4989 467.5412 622.6299 463.8346 622.6954 459.9627 622.6996 456.0024 622.6966 452.0421 622.6936 449.4219 622.6856 446.9547 622.6799 437.086 622.6572 429.6963 622.6376 422.3384 622.6227 407.6227 622.5929 393.0339 622.5819 358.9935 622.6018 302.0901 622.6328 284.6707 622.6946 275.09 622.7034 215.1383 622.7652 215.5738 622.6461 186.2511 623.1139 177.3962 623.2507 163.751 623.2551 159.1059 623.489 149.8155 623.9568 145.4607 624.5569 148.3639 625.3115ZM77.38212 550.284C77.37329 552.9332 77.36833 556.1177 77.36516 559.5789 77.36358 561.3095 77.36128 564.3239 77.36636 566.8095 77.37144 569.2952 77.3843 571.6824 77.41484 573.9319 77.537 582.9298 78.07877 589.4961 78.93335 593.5843 77.88672 588.9271 77.4316 582.5807 77.31549 573.4308 77.25743 568.8559 77.27043 562.4458 77.27704 558.497 77.28366 554.5481 77.29276 550.538 77.30268 546.5098 77.32889 547.7553 77.35511 549.0008 77.38212 550.284ZM78.82064 468.4128C78.82506 475.5257 78.74564 484.0903 78.76771 492.0742 78.77213 499.6226 78.75449 507.4613 78.80304 518.9291 78.85158 517.913 78.9001 499.0419 78.88685 484.3806 78.91306 484.3806 78.93928 484.3806 78.96628 484.3806 79.00601 491.4935 79.03249 499.9129 79.0325 509.9291 79.02668 513.3302 79.02086 516.7313 79.01486 520.2355 78.96632 520.5259 78.93101 515.1549 78.94425 513.1226 78.86923 515.7355 78.83394 524.5904 78.81188 536.0582 78.79732 537.4474 78.78276 538.8366 78.76776 540.2679 78.69715 541.8646 78.66184 533.1549 78.67068 542.8808 78.59124 536.0582 78.65741 518.3484 78.63534 507.3162 78.80304 519.6549 78.69708 473.058 78.76768 461.5902 78.78516 463.8417 78.80263 466.0931 78.82064 468.4128ZM75.5197 379.2835C75.52261 373.0082 75.52551 366.7329 75.52851 360.2674 75.53293 369.5577 75.54176 376.6706 75.55059 383.2029 75.5404 381.9095 75.5302 380.6161 75.5197 379.2835ZM456.2825 213.5692C449.6051 213.5903 444.8938 213.6157 439.0606 213.6312 433.2275 213.6467 426.9686 213.6571 420.5111 213.664 407.5963 213.6776 393.8876 213.6768 381.2041 213.673 355.8371 213.6653 334.5709 213.6454 331.958 213.705 323.8144 213.6919 315.6708 213.6788 307.2805 213.6653 333.7725 213.6565 361.208 213.6443 386.7746 213.6283 399.5579 213.6203 411.874 213.6113 423.3713 213.6013 429.1199 213.5963 434.6638 213.591 439.9591 213.5855 445.2544 213.58 449.6051 213.5693 456.2825 213.5692ZM320.7805 218.8019C317.587 218.7931 318.8934 218.7799 326.587 218.7666 367.5226 218.7092 391.7646 218.6386 365.9258 218.6386 343.8612 218.6386 295.8127 218.6166 309.8934 218.5857 328.6236 218.5711 347.3538 218.5565 366.6516 218.5415 381.4581 218.5724 395.8291 218.6562 410.4904 218.7621 378.8452 218.7754 348.5064 218.7842 320.7805 218.8019ZM428.2002 218.8989C416.8776 218.8945 403.3775 218.8813 389.7323 218.8725 401.5644 218.8666 413.3966 218.8608 425.5873 218.8548 426.4495 218.8693 427.3118 218.8839 428.2002 218.8989ZM442.7163 219.0048C419.6356 219.0136 396.5549 218.996 419.7808 218.9651 425.0023 218.9593 430.2237 218.9534 435.6034 218.9474 437.9507 218.9664 440.2979 218.9853 442.7163 219.0048ZM458.8675 219.0633C458.6724 219.0473 457.2962 219.0288 454.4475 219.0171 451.5987 219.0054 448.8857 218.9982 445.0389 218.996 446.9986 218.9949 449.2032 218.9935 451.5582 218.992 453.9131 218.9906 458.2554 218.9867 461.5445 219.0043 468.1227 219.0394 473.7466 219.185 477.9736 219.558 486.4276 220.3041 489.7379 222.0572 489.3409 221.9341 483.8098 219.7036 474.6723 219.1008 458.8675 219.0633ZM483.7793 214.6931C479.5963 213.9892 474.8111 213.7569 473.2744 213.6794 471.7376 213.6019 474.2686 213.4189 481.3218 214.2841 486.6897 214.9439 490.5109 215.7989 496.5427 218.8973 491.5944 216.3766 488.1735 215.398 483.7793 214.6931ZM79.98113 364.0416C79.9723 359.6867 79.9767 343.1383 79.9458 333.5576 79.70309 332.5415 79.87964 370.1384 79.98113 364.0416ZM80.08269 426.0256C80.07386 421.8159 80.07826 405.2675 80.05177 395.5417 79.80464 394.5255 79.9812 432.1224 80.08269 426.0256ZM514.3522 556.7808C514.3522 556.7329 514.3522 556.685 514.3522 556.6356 514.3522 556.6835 514.3522 556.7314 514.3522 556.7808ZM514.3522 556.7808"/>
</g>
<g clip-path="url(#clip_2)">
<path transform="matrix(1,0,0,-1,-24.54676,652.8603)" d="M237.2901 580.6265H357.71C365.785 580.6265 370.63 580.6265 373.86 579.278 378.5163 577.5832 382.1843 573.9152 383.8791 569.2589 385.2276 566.0289 385.2276 561.1839 385.2276 553.1089V549.9194C385.2276 541.8444 385.2276 536.9994 383.8791 533.7694 382.1843 529.1131 378.5163 525.4451 373.86 523.7503 370.63 522.4018 365.785 522.4018 357.71 522.4018H237.2901C229.215 522.4018 224.37 522.4018 221.14 523.7503 216.4837 525.4451 212.8157 529.1131 211.1209 533.7694 209.7725 536.9994 209.7725 541.8444 209.7725 549.9194V553.1089C209.7725 561.1839 209.7725 566.0289 211.1209 569.2589 212.8157 573.9152 216.4837 577.5832 221.14 579.278 224.37 580.6265 229.215 580.6265 237.2901 580.6265ZM237.2901 580.6265" fill="#5ac4f6"/>
</g>
<g clip-path="url(#clip_3)">
<use data-text="A" xlink:href="#font_4_2" transform="matrix(20.52,0,0,-20.52,221.76923,108.76727)"/>
<use data-text="l" xlink:href="#font_4_7" transform="matrix(20.52,0,0,-20.52,235.81928,108.76727)"/>
<use data-text="i" xlink:href="#font_4_6" transform="matrix(20.52,0,0,-20.52,241.00467,108.76727)"/>
<use data-text="a" xlink:href="#font_4_4" transform="matrix(20.52,0,0,-20.52,246.04644,108.76727)"/>
<use data-text="s" xlink:href="#font_4_11" transform="matrix(20.52,0,0,-20.52,257.3263,108.76727)"/>
<use data-text=" " xlink:href="#font_4_1" transform="matrix(20.52,0,0,-20.52,268.0726,108.76727)"/>
<use data-text="e" xlink:href="#font_4_5" transform="matrix(20.52,0,0,-20.52,272.97074,108.76727)"/>
<use data-text="m" xlink:href="#font_4_8" transform="matrix(20.52,0,0,-20.52,284.53785,108.76727)"/>
<use data-text="a" xlink:href="#font_4_4" transform="matrix(20.52,0,0,-20.52,302.63035,108.76727)"/>
<use data-text="i" xlink:href="#font_4_6" transform="matrix(20.52,0,0,-20.52,313.9102,108.76727)"/>
<use data-text="l" xlink:href="#font_4_7" transform="matrix(20.52,0,0,-20.52,318.95195,108.76727)"/>
</g>
<g clip-path="url(#clip_5)">
<use data-text="E" xlink:href="#font_6_3" transform="matrix(20.52,0,0,-20.52,136.42874,197.8847)"/>
<use data-text="m" xlink:href="#font_6_14" transform="matrix(20.52,0,0,-20.52,148.11078,197.8847)"/>
<use data-text="a" xlink:href="#font_6_6" transform="matrix(20.52,0,0,-20.52,165.39478,197.8847)"/>
<use data-text="i" xlink:href="#font_6_12" transform="matrix(20.52,0,0,-20.52,176.17394,197.8847)"/>
<use data-text="l" xlink:href="#font_6_13" transform="matrix(20.52,0,0,-20.52,180.71501,197.8847)"/>
<use data-text=" " xlink:href="#font_6_1" transform="matrix(20.52,0,0,-20.52,185.35869,197.8847)"/>
<use data-text="r" xlink:href="#font_6_18" transform="matrix(20.52,0,0,-20.52,190.5564,197.8847)"/>
<use data-text="o" xlink:href="#font_6_16" transform="matrix(20.52,0,0,-20.52,197.49832,197.8847)"/>
<use data-text="u" xlink:href="#font_6_21" transform="matrix(20.52,0,0,-20.52,209.05724,197.8847)"/>
<use data-text="t" xlink:href="#font_6_20" transform="matrix(20.52,0,0,-20.52,220.47252,197.8847)"/>
<use data-text="i" xlink:href="#font_6_12" transform="matrix(20.52,0,0,-20.52,227.37339,197.8847)"/>
<use data-text="n" xlink:href="#font_6_15" transform="matrix(20.52,0,0,-20.52,231.91446,197.8847)"/>
<use data-text="g" xlink:href="#font_6_11" transform="matrix(20.52,0,0,-20.52,243.32975,197.8847)"/>
<use data-text=" " xlink:href="#font_6_1" transform="matrix(20.52,0,0,-20.52,255.27854,197.8847)"/>
<use data-text=" " xlink:href="#font_6_1" transform="matrix(20.52,0,0,-20.52,260.47627,197.8847)"/>
<use data-text="b" xlink:href="#font_6_7" transform="matrix(20.52,0,0,-20.52,132.85135,221.82468)"/>
<use data-text="y" xlink:href="#font_6_23" transform="matrix(20.52,0,0,-20.52,144.4985,221.82468)"/>
<use data-text=" " xlink:href="#font_6_1" transform="matrix(20.52,0,0,-20.52,155.07862,221.82468)"/>
<use data-text="C" xlink:href="#font_6_2" transform="matrix(20.52,0,0,-20.52,160.28249,221.82468)"/>
<use data-text="l" xlink:href="#font_6_13" transform="matrix(20.52,0,0,-20.52,174.4536,221.82468)"/>
<use data-text="o" xlink:href="#font_6_16" transform="matrix(20.52,0,0,-20.52,179.10343,221.82468)"/>
<use data-text="u" xlink:href="#font_6_21" transform="matrix(20.52,0,0,-20.52,190.6685,221.82468)"/>
<use data-text="d" xlink:href="#font_6_9" transform="matrix(20.52,0,0,-20.52,202.08994,221.82468)"/>
<use data-text="F" xlink:href="#font_6_4" transform="matrix(20.52,0,0,-20.52,214.14749,221.82468)"/>
<use data-text="l" xlink:href="#font_6_13" transform="matrix(20.52,0,0,-20.52,225.3432,221.82468)"/>
<use data-text="a" xlink:href="#font_6_6" transform="matrix(20.52,0,0,-20.52,229.99304,221.82468)"/>
<use data-text="r" xlink:href="#font_6_18" transform="matrix(20.52,0,0,-20.52,240.77835,221.82468)"/>
<use data-text="e" xlink:href="#font_6_10" transform="matrix(20.52,0,0,-20.52,247.7059,221.82468)"/>
<use data-text=" " xlink:href="#font_6_1" transform="matrix(20.52,0,0,-20.52,258.8811,221.82468)"/>
</g>
<g clip-path="url(#clip_7)">
<g clip-path="url(#clip_8)">
<path transform="matrix(0,1.14,-1.14,-0,272.95326,132.14917)" stroke-width="3" stroke-linecap="butt" stroke-miterlimit="4" stroke-linejoin="miter" fill="none" stroke="#000000" d="M0 0H147.7192 149.2192"/>
<path transform="matrix(1,0,0,-1,-24.54676,652.8603)" d="M289.976 352.3112 297.5 337.2632 305.024 352.3112ZM289.976 352.3112"/>
</g>
</g>
<g clip-path="url(#clip_9)">
<path transform="matrix(1,0,0,-1,-24.54676,652.8603)" d="M229.1406 335.5725H365.8594C374.922 335.5725 380.3595 335.5725 383.9846 334.0591 389.2104 332.1571 393.3269 328.0405 395.2289 322.8147 396.7423 319.1897 396.7423 313.7522 396.7423 304.6896V291.634C396.7423 282.5714 396.7423 277.1339 395.2289 273.5089 393.3269 268.2831 389.2104 264.1665 383.9846 262.2645 380.3595 260.7511 374.922 260.7511 365.8594 260.7511H229.1406C220.078 260.7511 214.6405 260.7511 211.0154 262.2645 205.7896 264.1665 201.6731 268.2831 199.7711 273.5089 198.2577 277.1339 198.2577 282.5714 198.2577 291.634V304.6896C198.2577 313.7522 198.2577 319.1897 199.7711 322.8147 201.6731 328.0405 205.7896 332.1571 211.0154 334.0591 214.6405 335.5725 220.078 335.5725 229.1406 335.5725ZM229.1406 335.5725" fill="#5ac4f6"/>
</g>
<g clip-path="url(#clip_10)">
<use data-text="D" xlink:href="#font_4_3" transform="matrix(20.52,0,0,-20.52,190.29654,363.0481)"/>
<use data-text="e" xlink:href="#font_4_5" transform="matrix(20.52,0,0,-20.52,204.92935,363.0481)"/>
<use data-text="s" xlink:href="#font_4_11" transform="matrix(20.52,0,0,-20.52,216.48416,363.0481)"/>
<use data-text="t" xlink:href="#font_4_12" transform="matrix(20.52,0,0,-20.52,227.15662,363.0481)"/>
<use data-text="i" xlink:href="#font_4_6" transform="matrix(20.52,0,0,-20.52,234.68952,363.0481)"/>
<use data-text="n" xlink:href="#font_4_9" transform="matrix(20.52,0,0,-20.52,239.73949,363.0481)"/>
<use data-text="a" xlink:href="#font_4_4" transform="matrix(20.52,0,0,-20.52,251.72522,363.0481)"/>
<use data-text="t" xlink:href="#font_4_12" transform="matrix(20.52,0,0,-20.52,262.99275,363.0481)"/>
<use data-text="i" xlink:href="#font_4_6" transform="matrix(20.52,0,0,-20.52,270.52565,363.0481)"/>
<use data-text="o" xlink:href="#font_4_10" transform="matrix(20.52,0,0,-20.52,275.57563,363.0481)"/>
<use data-text="n" xlink:href="#font_4_9" transform="matrix(20.52,0,0,-20.52,287.5203,363.0481)"/>
<use data-text=" " xlink:href="#font_4_1" transform="matrix(20.52,0,0,-20.52,299.50605,363.0481)"/>
<use data-text="e" xlink:href="#font_4_5" transform="matrix(20.52,0,0,-20.52,304.41236,363.0481)"/>
<use data-text="m" xlink:href="#font_4_8" transform="matrix(20.52,0,0,-20.52,315.9672,363.0481)"/>
<use data-text="a" xlink:href="#font_4_4" transform="matrix(20.52,0,0,-20.52,334.06788,363.0481)"/>
<use data-text="i" xlink:href="#font_4_6" transform="matrix(20.52,0,0,-20.52,345.3354,363.0481)"/>
<use data-text="l" xlink:href="#font_4_7" transform="matrix(20.52,0,0,-20.52,350.38539,363.0481)"/>
</g>
<g clip-path="url(#clip_11)">
<use data-text="a" xlink:href="#font_6_6" transform="matrix(20.52,0,0,-20.52,182.49823,61.654664)"/>
<use data-text="l" xlink:href="#font_6_13" transform="matrix(20.52,0,0,-20.52,193.27329,61.654664)"/>
<use data-text="i" xlink:href="#font_6_12" transform="matrix(20.52,0,0,-20.52,197.91286,61.654664)"/>
<use data-text="a" xlink:href="#font_6_6" transform="matrix(20.52,0,0,-20.52,202.44983,61.654664)"/>
<use data-text="s" xlink:href="#font_6_19" transform="matrix(20.52,0,0,-20.52,213.22489,61.654664)"/>
<use data-text="@" xlink:href="#font_6_24" transform="matrix(20.52,0,0,-20.52,223.40485,61.654664)"/>
<use data-text="e" xlink:href="#font_6_10" transform="matrix(20.52,0,0,-20.52,241.69022,61.654664)"/>
<use data-text="x" xlink:href="#font_6_22" transform="matrix(20.52,0,0,-20.52,252.46527,61.654664)"/>
<use data-text="a" xlink:href="#font_6_6" transform="matrix(20.52,0,0,-20.52,262.66578,61.654664)"/>
<use data-text="m" xlink:href="#font_6_14" transform="matrix(20.52,0,0,-20.52,273.44084,61.654664)"/>
<use data-text="p" xlink:href="#font_6_17" transform="matrix(20.52,0,0,-20.52,290.74125,61.654664)"/>
<use data-text="l" xlink:href="#font_6_13" transform="matrix(20.52,0,0,-20.52,302.70646,61.654664)"/>
<use data-text="e" xlink:href="#font_6_10" transform="matrix(20.52,0,0,-20.52,307.346,61.654664)"/>
<use data-text="." xlink:href="#font_6_26" transform="matrix(20.52,0,0,-20.52,318.51097,61.654664)"/>
<use data-text="c" xlink:href="#font_6_8" transform="matrix(20.52,0,0,-20.52,323.6225,61.654664)"/>
<use data-text="o" xlink:href="#font_6_16" transform="matrix(20.52,0,0,-20.52,334.54118,61.654664)"/>
<use data-text="m" xlink:href="#font_6_14" transform="matrix(20.52,0,0,-20.52,346.11653,61.654664)"/>
</g>
<g clip-path="url(#clip_12)">
<use data-text="R" xlink:href="#font_6_5" transform="matrix(20.52,0,0,-20.52,184.85523,420.7547)"/>
<use data-text="e" xlink:href="#font_6_10" transform="matrix(20.52,0,0,-20.52,197.42372,420.7547)"/>
<use data-text="a" xlink:href="#font_6_6" transform="matrix(20.52,0,0,-20.52,208.59687,420.7547)"/>
<use data-text="l" xlink:href="#font_6_13" transform="matrix(20.52,0,0,-20.52,219.38013,420.7547)"/>
<use data-text="-" xlink:href="#font_6_25" transform="matrix(20.52,0,0,-20.52,224.02791,420.7547)"/>
<use data-text="e" xlink:href="#font_6_10" transform="matrix(20.52,0,0,-20.52,233.16956,420.7547)"/>
<use data-text="m" xlink:href="#font_6_14" transform="matrix(20.52,0,0,-20.52,244.3427,420.7547)"/>
<use data-text="a" xlink:href="#font_6_6" transform="matrix(20.52,0,0,-20.52,261.6308,420.7547)"/>
<use data-text="i" xlink:href="#font_6_12" transform="matrix(20.52,0,0,-20.52,272.41407,420.7547)"/>
<use data-text="l" xlink:href="#font_6_13" transform="matrix(20.52,0,0,-20.52,276.93873,420.7547)"/>
<use data-text="@" xlink:href="#font_6_24" transform="matrix(20.52,0,0,-20.52,281.5865,420.7547)"/>
<use data-text="g" xlink:href="#font_6_11" transform="matrix(20.52,0,0,-20.52,299.88008,420.7547)"/>
<use data-text="m" xlink:href="#font_6_14" transform="matrix(20.52,0,0,-20.52,311.83296,420.7547)"/>
<use data-text="a" xlink:href="#font_6_6" transform="matrix(20.52,0,0,-20.52,329.12107,420.7547)"/>
<use data-text="i" xlink:href="#font_6_12" transform="matrix(20.52,0,0,-20.52,339.90434,420.7547)"/>
<use data-text="l" xlink:href="#font_6_13" transform="matrix(20.52,0,0,-20.52,344.42897,420.7547)"/>
<use data-text="." xlink:href="#font_6_26" transform="matrix(20.52,0,0,-20.52,349.07679,420.7547)"/>
<use data-text="c" xlink:href="#font_6_8" transform="matrix(20.52,0,0,-20.52,354.17597,420.7547)"/>
<use data-text="o" xlink:href="#font_6_16" transform="matrix(20.52,0,0,-20.52,365.1029,420.7547)"/>
<use data-text="m" xlink:href="#font_6_14" transform="matrix(20.52,0,0,-20.52,376.6659,420.7547)"/>
</g>
</g>
</svg>
