<?xml version="1.0" standalone="no"?>
<!DOCTYPE svg PUBLIC "-//W3C//DTD SVG 20010904//EN"
 "http://www.w3.org/TR/2001/REC-SVG-20010904/DTD/svg10.dtd">
<svg version="1.0" xmlns="http://www.w3.org/2000/svg"
 width="700.000000pt" height="700.000000pt" viewBox="0 0 700.000000 700.000000"
 preserveAspectRatio="xMidYMid meet">
<metadata>
Created by potrace 1.14, written by Peter Selinger 2001-2017
</metadata>
<g transform="translate(0.000000,700.000000) scale(0.100000,-0.100000)"
fill="#000000" stroke="none">
<path d="M1709 6716 c-2 -2 -33 -6 -69 -10 -36 -3 -78 -8 -95 -11 -58 -11
-240 -58 -250 -65 -5 -4 -28 -13 -50 -20 -55 -17 -212 -93 -258 -124 -21 -14
-40 -26 -43 -26 -3 0 -43 -27 -87 -59 -195 -141 -351 -308 -491 -523 -60 -92
-186 -336 -186 -360 0 -8 -4 -18 -9 -23 -24 -27 -120 -368 -136 -485 -3 -25
-8 -56 -10 -70 -26 -147 -27 -455 -1 -585 4 -22 17 -114 18 -130 0 -5 4 -19 8
-31 5 -11 11 -36 14 -55 7 -44 71 -270 94 -329 9 -25 17 -47 18 -50 1 -6 13
-39 24 -65 65 -151 90 -207 141 -303 203 -385 472 -710 882 -1064 12 -11 38
-34 57 -52 19 -17 87 -79 150 -136 63 -57 117 -106 120 -109 3 -3 48 -44 100
-91 52 -47 101 -92 110 -100 14 -13 152 -138 226 -205 12 -11 59 -54 105 -95
45 -41 87 -79 93 -85 17 -14 106 -96 220 -200 54 -49 107 -97 118 -106 18 -16
180 -164 202 -184 6 -6 78 -71 161 -145 82 -74 159 -144 171 -155 11 -11 63
-58 115 -105 52 -47 119 -108 149 -136 30 -28 68 -62 84 -75 16 -13 39 -35 51
-48 l23 -23 93 84 c52 46 107 95 123 109 15 13 43 38 60 54 18 17 63 57 101
90 37 33 75 67 84 75 9 9 54 49 101 90 47 41 87 77 90 80 3 3 48 43 100 90 52
46 97 86 100 90 3 3 59 53 125 110 66 58 129 114 140 125 11 11 79 72 150 135
72 63 132 117 135 120 3 3 63 57 135 120 71 63 137 122 145 130 18 16 162 145
192 171 10 9 50 45 88 79 38 34 78 70 88 79 11 9 54 48 97 86 44 39 104 92
134 119 125 110 261 235 336 311 453 454 769 1057 870 1660 25 148 29 196 29
355 1 128 -3 183 -19 295 -2 17 -6 46 -9 65 -2 19 -16 87 -30 150 -142 630
-525 1145 -1040 1399 -162 80 -362 139 -533 158 -87 10 -339 10 -422 0 -596
-71 -1130 -455 -1410 -1016 l-52 -103 -54 109 c-89 182 -221 367 -360 508
-100 102 -251 222 -340 271 -136 74 -183 97 -260 127 -85 34 -214 72 -280 83
-154 25 -209 31 -331 32 -78 1 -143 0 -145 -2z"/>
</g>
</svg>
